%TF.GenerationSoftware,KiCad,Pcbnew,10.0.3*%
%TF.CreationDate,2026-06-22T18:46:31-03:00*%
%TF.ProjectId,amp_AB,616d705f-4142-42e6-9b69-6361645f7063,rev?*%
%TF.SameCoordinates,Original*%
%TF.FileFunction,Copper,L2,Bot*%
%TF.FilePolarity,Positive*%
%FSLAX46Y46*%
G04 Gerber Fmt 4.6, Leading zero omitted, Abs format (unit mm)*
G04 Created by KiCad (PCBNEW 10.0.3) date 2026-06-22 18:46:31*
%MOMM*%
%LPD*%
G01*
G04 APERTURE LIST*
G04 Aperture macros list*
%AMRoundRect*
0 Rectangle with rounded corners*
0 $1 Rounding radius*
0 $2 $3 $4 $5 $6 $7 $8 $9 X,Y pos of 4 corners*
0 Add a 4 corners polygon primitive as box body*
4,1,4,$2,$3,$4,$5,$6,$7,$8,$9,$2,$3,0*
0 Add four circle primitives for the rounded corners*
1,1,$1+$1,$2,$3*
1,1,$1+$1,$4,$5*
1,1,$1+$1,$6,$7*
1,1,$1+$1,$8,$9*
0 Add four rect primitives between the rounded corners*
20,1,$1+$1,$2,$3,$4,$5,0*
20,1,$1+$1,$4,$5,$6,$7,0*
20,1,$1+$1,$6,$7,$8,$9,0*
20,1,$1+$1,$8,$9,$2,$3,0*%
G04 Aperture macros list end*
%TA.AperFunction,ComponentPad*%
%ADD10R,3.000000X3.000000*%
%TD*%
%TA.AperFunction,ComponentPad*%
%ADD11C,3.000000*%
%TD*%
%TA.AperFunction,ComponentPad*%
%ADD12O,3.000000X1.600000*%
%TD*%
%TA.AperFunction,ComponentPad*%
%ADD13RoundRect,0.250000X0.550000X1.250000X-0.550000X1.250000X-0.550000X-1.250000X0.550000X-1.250000X0*%
%TD*%
%TA.AperFunction,ComponentPad*%
%ADD14O,1.600000X3.000000*%
%TD*%
%TA.AperFunction,ComponentPad*%
%ADD15RoundRect,0.250000X-1.250000X0.620000X-1.250000X-0.620000X1.250000X-0.620000X1.250000X0.620000X0*%
%TD*%
%TA.AperFunction,ComponentPad*%
%ADD16O,3.000000X1.740000*%
%TD*%
%TA.AperFunction,ComponentPad*%
%ADD17RoundRect,0.250000X1.250000X-0.620000X1.250000X0.620000X-1.250000X0.620000X-1.250000X-0.620000X0*%
%TD*%
%TA.AperFunction,ComponentPad*%
%ADD18O,2.190000X1.740000*%
%TD*%
%TA.AperFunction,ComponentPad*%
%ADD19C,2.000000*%
%TD*%
%TA.AperFunction,ComponentPad*%
%ADD20C,1.600000*%
%TD*%
%TA.AperFunction,ComponentPad*%
%ADD21RoundRect,0.250000X-0.750000X0.750000X-0.750000X-0.750000X0.750000X-0.750000X0.750000X0.750000X0*%
%TD*%
%TA.AperFunction,ComponentPad*%
%ADD22R,2.500000X3.500000*%
%TD*%
%TA.AperFunction,ComponentPad*%
%ADD23O,2.500000X3.500000*%
%TD*%
%TA.AperFunction,ComponentPad*%
%ADD24RoundRect,0.250000X-0.750000X-1.250000X0.750000X-1.250000X0.750000X1.250000X-0.750000X1.250000X0*%
%TD*%
%TA.AperFunction,ComponentPad*%
%ADD25O,2.000000X3.000000*%
%TD*%
%TA.AperFunction,ComponentPad*%
%ADD26O,3.000000X2.000000*%
%TD*%
%TA.AperFunction,ComponentPad*%
%ADD27RoundRect,0.250000X0.550000X-1.250000X0.550000X1.250000X-0.550000X1.250000X-0.550000X-1.250000X0*%
%TD*%
%TA.AperFunction,Conductor*%
%ADD28C,1.000000*%
%TD*%
G04 APERTURE END LIST*
D10*
%TO.P,J3,1,Pin_1_1*%
%TO.N,Net-(C3-B)*%
X189000000Y-103460000D03*
D11*
%TO.P,J3,2,Pin_2_2*%
%TO.N,GND*%
X189000000Y-108540000D03*
%TD*%
D12*
%TO.P,C4,1*%
%TO.N,VCC*%
X121775000Y-81500000D03*
%TO.P,C4,2*%
%TO.N,Net-(Q1-B)*%
X116775000Y-81500000D03*
%TD*%
D13*
%TO.P,C2,1,A_1*%
%TO.N,Net-(C2-A)*%
X123500000Y-104000000D03*
D14*
%TO.P,C2,2,B_2*%
%TO.N,Net-(C2-B)*%
X120000000Y-104000000D03*
%TD*%
D15*
%TO.P,J1,1,Pin_1_1*%
%TO.N,VCC*%
X185000000Y-79960000D03*
D12*
%TO.P,J1,2,Pin_2_2*%
%TO.N,GND*%
X185000000Y-82500000D03*
D16*
%TO.P,J1,3,Pin_3_3*%
%TO.N,VEE*%
X185000000Y-85040000D03*
%TD*%
D17*
%TO.P,J2,1,Pin_1_1*%
%TO.N,/L*%
X102800000Y-90100000D03*
D16*
%TO.P,J2,2,Pin_2_2*%
%TO.N,/R*%
X102800000Y-87560000D03*
D18*
%TO.P,J2,3,Pin_3_3*%
%TO.N,GND*%
X102800000Y-85020000D03*
%TD*%
D12*
%TO.P,R3,1*%
%TO.N,Net-(C3-A)*%
X165500000Y-101500000D03*
%TO.P,R3,2*%
%TO.N,Net-(C2-A)*%
X155340000Y-101500000D03*
%TD*%
D19*
%TO.P,C6,1*%
%TO.N,GND*%
X168300000Y-84950000D03*
%TO.P,C6,2*%
%TO.N,VCC*%
X160800000Y-84950000D03*
%TD*%
D12*
%TO.P,R5,1*%
%TO.N,Net-(C1-Pad2)*%
X118080000Y-90500000D03*
%TO.P,R5,2*%
%TO.N,/L*%
X107920000Y-90500000D03*
%TD*%
D20*
%TO.P,C5,1*%
%TO.N,GND*%
X159500000Y-110500000D03*
D12*
%TO.P,C5,2*%
%TO.N,VEE*%
X159500000Y-105500000D03*
%TD*%
%TO.P,R6,1*%
%TO.N,Net-(C1-Pad2)*%
X118080000Y-87000000D03*
%TO.P,R6,2*%
%TO.N,/R*%
X107920000Y-87000000D03*
%TD*%
%TO.P,R4,1*%
%TO.N,Net-(U2A-+)*%
X140000000Y-88920000D03*
D20*
%TO.P,R4,2*%
%TO.N,GND*%
X140000000Y-99080000D03*
%TD*%
D21*
%TO.P,C7,1,A_1*%
%TO.N,VCC*%
X176500000Y-73500000D03*
D19*
%TO.P,C7,2,B_2*%
%TO.N,GND*%
X176500000Y-78500000D03*
%TD*%
D22*
%TO.P,Q2,1,B_1*%
%TO.N,Net-(Q2-B)*%
X150525000Y-76710000D03*
D23*
%TO.P,Q2,2,C_2*%
%TO.N,VEE*%
X156000000Y-76710000D03*
%TO.P,Q2,3,E_3*%
%TO.N,Net-(C3-A)*%
X161475000Y-76710000D03*
%TD*%
D24*
%TO.P,C3,1,A_1*%
%TO.N,Net-(C3-A)*%
X174000000Y-100500000D03*
D25*
%TO.P,C3,2,B_2*%
%TO.N,Net-(C3-B)*%
X179000000Y-100500000D03*
%TD*%
D21*
%TO.P,C8,1,A_1*%
%TO.N,GND*%
X176500000Y-86000000D03*
D19*
%TO.P,C8,2,B_2*%
%TO.N,VEE*%
X176500000Y-91000000D03*
%TD*%
D18*
%TO.P,J4,1,Pin_1_1*%
%TO.N,unconnected-(J4-Pin_1-Pad1)*%
X112400000Y-103690000D03*
D16*
%TO.P,J4,2,Pin_2_2*%
%TO.N,Net-(C2-B)*%
X112400000Y-101150000D03*
D18*
%TO.P,J4,3,Pin_3_3*%
%TO.N,GND*%
X112400000Y-98610000D03*
%TD*%
D26*
%TO.P,C1,1*%
%TO.N,Net-(U2A-+)*%
X132500000Y-89000000D03*
%TO.P,C1,2*%
%TO.N,Net-(C1-Pad2)*%
X122500000Y-89000000D03*
%TD*%
D19*
%TO.P,R7,1*%
%TO.N,Net-(Q1-B)*%
X135407898Y-84592103D03*
%TO.P,R7,2*%
%TO.N,Net-(Q2-B)*%
X142592103Y-77407898D03*
%TD*%
D22*
%TO.P,Q1,1,B_1*%
%TO.N,Net-(Q1-B)*%
X116325000Y-76550000D03*
D23*
%TO.P,Q1,2,C_2*%
%TO.N,VCC*%
X121800000Y-76550000D03*
%TO.P,Q1,3,E_3*%
%TO.N,Net-(C3-A)*%
X127275000Y-76550000D03*
%TD*%
D27*
%TO.P,U2,1*%
%TO.N,Net-(Q1-B)*%
X151690000Y-96810000D03*
D14*
%TO.P,U2,2,-_2*%
%TO.N,Net-(C2-A)*%
X154230000Y-96810000D03*
%TO.P,U2,3,+_3*%
%TO.N,Net-(U2A-+)*%
X156770000Y-96810000D03*
%TO.P,U2,4,V-_4*%
%TO.N,VEE*%
X159310000Y-96810000D03*
D20*
%TO.P,U2,5*%
%TO.N,N/C*%
X159310000Y-89190000D03*
%TO.P,U2,6*%
X156770000Y-89190000D03*
%TO.P,U2,7*%
X154230000Y-89190000D03*
D14*
%TO.P,U2,8,V+_8*%
%TO.N,VCC*%
X151690000Y-89190000D03*
%TD*%
%TO.N,Net-(C3-B)*%
D28*
X181960000Y-103460000D02*
X179000000Y-100500000D01*
X189000000Y-103460000D02*
X181960000Y-103460000D01*
%TO.N,VCC*%
X151690000Y-89190000D02*
X151690000Y-88090000D01*
X121800000Y-76550000D02*
X125050000Y-79800000D01*
X154830000Y-84950000D02*
X160800000Y-84950000D01*
X121800000Y-76550000D02*
X126890000Y-71460000D01*
X135971572Y-79800000D02*
X145361573Y-89190000D01*
X126890000Y-71460000D02*
X174460000Y-71460000D01*
X174460000Y-71460000D02*
X176500000Y-73500000D01*
X176500000Y-73500000D02*
X178540000Y-73500000D01*
X121800000Y-76550000D02*
X121800000Y-81475000D01*
X121800000Y-81475000D02*
X121775000Y-81500000D01*
X125050000Y-79800000D02*
X135971572Y-79800000D01*
X151690000Y-88090000D02*
X154830000Y-84950000D01*
X145361573Y-89190000D02*
X151690000Y-89190000D01*
X151500000Y-89000000D02*
X151690000Y-89190000D01*
X178540000Y-73500000D02*
X185000000Y-79960000D01*
%TO.N,Net-(Q1-B)*%
X119214466Y-83939466D02*
X121475000Y-83939466D01*
X116775000Y-77000000D02*
X116325000Y-76550000D01*
X135407898Y-84592103D02*
X122127637Y-84592103D01*
X122127637Y-84592103D02*
X121475000Y-83939466D01*
X129035534Y-91500000D02*
X137672692Y-91500000D01*
X116775000Y-81500000D02*
X116775000Y-77000000D01*
X121475000Y-83939466D02*
X129035534Y-91500000D01*
X142982692Y-96810000D02*
X151690000Y-96810000D01*
X137672692Y-91500000D02*
X142982692Y-96810000D01*
X116775000Y-81500000D02*
X119214466Y-83939466D01*
%TO.N,Net-(C2-A)*%
X155340000Y-101500000D02*
X154230000Y-100390000D01*
X155340000Y-101500000D02*
X152840000Y-104000000D01*
X154230000Y-100390000D02*
X154230000Y-96810000D01*
X152840000Y-104000000D02*
X123500000Y-104000000D01*
%TO.N,Net-(C2-B)*%
X112400000Y-101150000D02*
X117150000Y-101150000D01*
X112450000Y-101200000D02*
X112400000Y-101150000D01*
X117150000Y-101150000D02*
X120000000Y-104000000D01*
%TO.N,VEE*%
X182460000Y-85040000D02*
X176500000Y-91000000D01*
X161896572Y-79960000D02*
X163500000Y-81563428D01*
X157085913Y-76710000D02*
X160335913Y-79960000D01*
X163500000Y-92620000D02*
X159310000Y-96810000D01*
X176500000Y-104000000D02*
X176500000Y-91000000D01*
X185000000Y-85040000D02*
X182460000Y-85040000D01*
X159500000Y-97000000D02*
X159310000Y-96810000D01*
X175000000Y-105500000D02*
X176500000Y-104000000D01*
X156000000Y-76710000D02*
X157085913Y-76710000D01*
X160335913Y-79960000D02*
X161896572Y-79960000D01*
X163500000Y-81563428D02*
X163500000Y-92620000D01*
X159500000Y-105500000D02*
X175000000Y-105500000D01*
X159500000Y-105500000D02*
X159500000Y-97000000D01*
%TO.N,/L*%
X102800000Y-90100000D02*
X107520000Y-90100000D01*
X107520000Y-90100000D02*
X107920000Y-90500000D01*
%TO.N,/R*%
X107360000Y-87560000D02*
X107920000Y-87000000D01*
X102800000Y-87560000D02*
X107360000Y-87560000D01*
%TO.N,Net-(C3-A)*%
X165500000Y-98000000D02*
X165500000Y-100500000D01*
X165500000Y-80735000D02*
X165500000Y-87850000D01*
X158225000Y-73460000D02*
X161475000Y-76710000D01*
X165500000Y-98000000D02*
X165500000Y-101500000D01*
X165500000Y-92127308D02*
X165500000Y-98000000D01*
X161475000Y-76710000D02*
X165500000Y-80735000D01*
X165500000Y-87850000D02*
X165500000Y-100500000D01*
X130365000Y-73460000D02*
X158225000Y-73460000D01*
X165500000Y-101500000D02*
X173000000Y-101500000D01*
X127275000Y-76550000D02*
X130365000Y-73460000D01*
X173000000Y-101500000D02*
X174000000Y-100500000D01*
%TO.N,Net-(C1-Pad2)*%
X118080000Y-87000000D02*
X120500000Y-87000000D01*
X121000000Y-90500000D02*
X122500000Y-89000000D01*
X118080000Y-90500000D02*
X121000000Y-90500000D01*
X120500000Y-87000000D02*
X122500000Y-89000000D01*
%TO.N,Net-(U2A-+)*%
X139920000Y-89000000D02*
X140000000Y-88920000D01*
X156770000Y-95270000D02*
X156770000Y-96810000D01*
X140000000Y-88920000D02*
X144080000Y-93000000D01*
X144080000Y-93000000D02*
X154500000Y-93000000D01*
X132500000Y-89000000D02*
X139920000Y-89000000D01*
X154500000Y-93000000D02*
X156770000Y-95270000D01*
%TO.N,Net-(Q2-B)*%
X142592103Y-77407898D02*
X149827102Y-77407898D01*
X149827102Y-77407898D02*
X150525000Y-76710000D01*
%TD*%
%TA.AperFunction,Conductor*%
%TO.N,Net-(C2-B)*%
G36*
X119001798Y-102290373D02*
G01*
X119689836Y-102562002D01*
X119696272Y-102568227D01*
X119696984Y-102570454D01*
X119998683Y-103991180D01*
X119997049Y-103999984D01*
X119991704Y-104004424D01*
X119208775Y-104327745D01*
X119199820Y-104327736D01*
X119194646Y-104323527D01*
X118293024Y-103002672D01*
X118291190Y-102993907D01*
X118294412Y-102987805D01*
X118989234Y-102292983D01*
X118997506Y-102289557D01*
X119001798Y-102290373D01*
G37*
%TD.AperFunction*%
%TD*%
%TA.AperFunction,Conductor*%
%TO.N,VCC*%
G36*
X183876314Y-78126421D02*
G01*
X185352211Y-79084705D01*
X185357284Y-79092084D01*
X185356654Y-79098985D01*
X185004309Y-79951986D01*
X184997983Y-79958324D01*
X184991421Y-79959034D01*
X183506426Y-79691523D01*
X183498891Y-79686683D01*
X183497611Y-79684287D01*
X183164067Y-78835503D01*
X183164230Y-78826550D01*
X183166680Y-78822954D01*
X183861673Y-78127961D01*
X183869945Y-78124535D01*
X183876314Y-78126421D01*
G37*
%TD.AperFunction*%
%TD*%
%TA.AperFunction,Conductor*%
%TO.N,/L*%
G36*
X105741974Y-89600557D02*
G01*
X107909833Y-89699490D01*
X107917942Y-89703291D01*
X107921000Y-89711178D01*
X107921000Y-90093231D01*
X107917573Y-90101504D01*
X107915132Y-90103374D01*
X106534531Y-90897252D01*
X106525651Y-90898405D01*
X106524591Y-90898064D01*
X105737345Y-90602847D01*
X105730802Y-90596733D01*
X105729753Y-90591892D01*
X105729753Y-89612246D01*
X105733180Y-89603973D01*
X105741453Y-89600546D01*
X105741974Y-89600557D01*
G37*
%TD.AperFunction*%
%TD*%
%TA.AperFunction,Conductor*%
%TO.N,Net-(C3-A)*%
G36*
X166284596Y-100705058D02*
G01*
X167786689Y-100998154D01*
X167794152Y-101003101D01*
X167796148Y-101009637D01*
X167796148Y-101990362D01*
X167792721Y-101998635D01*
X167786689Y-102001845D01*
X166284604Y-102294940D01*
X166275827Y-102293161D01*
X166274005Y-102291645D01*
X165507011Y-101508183D01*
X165503674Y-101499876D01*
X165507011Y-101491816D01*
X166274004Y-100708355D01*
X166282239Y-100704843D01*
X166284596Y-100705058D01*
G37*
%TD.AperFunction*%
%TD*%
%TA.AperFunction,Conductor*%
%TO.N,Net-(C2-B)*%
G36*
X114756672Y-100647951D02*
G01*
X114763994Y-100653104D01*
X114765811Y-100659367D01*
X114765811Y-101640632D01*
X114762384Y-101648905D01*
X114756671Y-101652049D01*
X113356315Y-101965998D01*
X113349278Y-101965390D01*
X113227553Y-101914971D01*
X113227533Y-101914964D01*
X113207047Y-101909475D01*
X113202052Y-101906689D01*
X112408036Y-101158514D01*
X112404365Y-101150347D01*
X112407545Y-101141975D01*
X112408006Y-101141513D01*
X113202057Y-100393305D01*
X113207039Y-100390526D01*
X113227542Y-100385033D01*
X113349279Y-100334607D01*
X113356315Y-100334000D01*
X114756672Y-100647951D01*
G37*
%TD.AperFunction*%
%TD*%
%TA.AperFunction,Conductor*%
%TO.N,Net-(Q1-B)*%
G36*
X116779643Y-76564459D02*
G01*
X116784483Y-76569757D01*
X117573169Y-78295993D01*
X117573734Y-78304217D01*
X117277501Y-79291662D01*
X117271841Y-79298602D01*
X117266294Y-79300000D01*
X116282231Y-79300000D01*
X116273958Y-79296573D01*
X116271766Y-79293532D01*
X115777799Y-78305598D01*
X115777164Y-78296666D01*
X115778102Y-78294568D01*
X116763683Y-76568814D01*
X116770760Y-76563332D01*
X116779643Y-76564459D01*
G37*
%TD.AperFunction*%
%TD*%
%TA.AperFunction,Conductor*%
%TO.N,VEE*%
G36*
X177563602Y-89241985D02*
G01*
X178258014Y-89936397D01*
X178261441Y-89944670D01*
X178259874Y-89950519D01*
X177387551Y-91461643D01*
X177380447Y-91467095D01*
X177371960Y-91466143D01*
X176499090Y-91005800D01*
X176494199Y-91000909D01*
X176033856Y-90128039D01*
X176033028Y-90119123D01*
X176038354Y-90112449D01*
X177549482Y-89240124D01*
X177558358Y-89238957D01*
X177563602Y-89241985D01*
G37*
%TD.AperFunction*%
%TD*%
%TA.AperFunction,Conductor*%
%TO.N,VCC*%
G36*
X121807328Y-76558559D02*
G01*
X121809117Y-76560348D01*
X122537355Y-77466778D01*
X122796006Y-77788717D01*
X122798516Y-77797313D01*
X122797986Y-77799739D01*
X122302664Y-79288141D01*
X122296801Y-79294909D01*
X122291563Y-79296147D01*
X121308437Y-79296147D01*
X121300164Y-79292720D01*
X121297336Y-79288141D01*
X121148921Y-78842169D01*
X120802013Y-77799737D01*
X120802652Y-77790807D01*
X120803989Y-77788721D01*
X121790880Y-76560351D01*
X121798732Y-76556049D01*
X121807328Y-76558559D01*
G37*
%TD.AperFunction*%
%TD*%
%TA.AperFunction,Conductor*%
%TO.N,Net-(Q1-B)*%
G36*
X135115613Y-83639246D02*
G01*
X135120941Y-83645921D01*
X135412643Y-84588645D01*
X135412643Y-84595561D01*
X135120941Y-85538284D01*
X135115222Y-85545175D01*
X135106735Y-85546127D01*
X133421384Y-85094426D01*
X133414280Y-85088974D01*
X133412713Y-85083125D01*
X133412713Y-84101080D01*
X133416140Y-84092807D01*
X133421384Y-84089779D01*
X135106736Y-83638078D01*
X135115613Y-83639246D01*
G37*
%TD.AperFunction*%
%TD*%
%TA.AperFunction,Conductor*%
%TO.N,Net-(C3-A)*%
G36*
X160033268Y-74556797D02*
G01*
X160790107Y-74848232D01*
X161169885Y-74994473D01*
X161176374Y-75000643D01*
X161177206Y-75003376D01*
X161473603Y-76698674D01*
X161471652Y-76707414D01*
X161464093Y-76712214D01*
X161463595Y-76712290D01*
X160232844Y-76873187D01*
X160224196Y-76870862D01*
X160221126Y-76867315D01*
X159323407Y-75268903D01*
X159322343Y-75260012D01*
X159325333Y-75254903D01*
X160020794Y-74559442D01*
X160029066Y-74556016D01*
X160033268Y-74556797D01*
G37*
%TD.AperFunction*%
%TD*%
%TA.AperFunction,Conductor*%
%TO.N,Net-(C1-Pad2)*%
G36*
X118864596Y-89705058D02*
G01*
X120366689Y-89998154D01*
X120374152Y-90003101D01*
X120376148Y-90009637D01*
X120376148Y-90990362D01*
X120372721Y-90998635D01*
X120366689Y-91001845D01*
X118864604Y-91294940D01*
X118855827Y-91293161D01*
X118854005Y-91291645D01*
X118087011Y-90508183D01*
X118083674Y-90499876D01*
X118087011Y-90491816D01*
X118854004Y-89708355D01*
X118862239Y-89704843D01*
X118864596Y-89705058D01*
G37*
%TD.AperFunction*%
%TD*%
%TA.AperFunction,Conductor*%
%TO.N,Net-(Q2-B)*%
G36*
X144578617Y-76905574D02*
G01*
X144585721Y-76911026D01*
X144587288Y-76916875D01*
X144587288Y-77898920D01*
X144583861Y-77907193D01*
X144578617Y-77910221D01*
X142893265Y-78361922D01*
X142884387Y-78360754D01*
X142879059Y-78354079D01*
X142854559Y-78274901D01*
X142587357Y-77411352D01*
X142587357Y-77404443D01*
X142879059Y-76461715D01*
X142884778Y-76454825D01*
X142893264Y-76453873D01*
X144578617Y-76905574D01*
G37*
%TD.AperFunction*%
%TD*%
%TA.AperFunction,Conductor*%
%TO.N,/R*%
G36*
X103758076Y-86744394D02*
G01*
X105154402Y-87057442D01*
X105158576Y-87059291D01*
X105160635Y-87060740D01*
X105165137Y-87067045D01*
X105165347Y-87067768D01*
X105165811Y-87071031D01*
X105165811Y-88048304D01*
X105164919Y-88052785D01*
X105163953Y-88055115D01*
X105158792Y-88060881D01*
X105158137Y-88061242D01*
X105155050Y-88062412D01*
X104305529Y-88252868D01*
X104302816Y-88253150D01*
X104300144Y-88253115D01*
X104297438Y-88252761D01*
X104246455Y-88239913D01*
X104246439Y-88239909D01*
X104246424Y-88239906D01*
X104246414Y-88239904D01*
X104246412Y-88239904D01*
X104246408Y-88239903D01*
X104246405Y-88239903D01*
X104246111Y-88239874D01*
X104245955Y-88239868D01*
X104114217Y-88229500D01*
X103516403Y-88229500D01*
X103512086Y-88228674D01*
X103508217Y-88227138D01*
X103504510Y-88224779D01*
X102809730Y-87570110D01*
X102807084Y-87566395D01*
X102806353Y-87564770D01*
X102806084Y-87555821D01*
X102806608Y-87554441D01*
X102809516Y-87550089D01*
X103601003Y-86804297D01*
X103603324Y-86802598D01*
X103605773Y-86801232D01*
X103608435Y-86800151D01*
X103627542Y-86795033D01*
X103747613Y-86745296D01*
X103751074Y-86744452D01*
X103754516Y-86744155D01*
X103758076Y-86744394D01*
G37*
%TD.AperFunction*%
%TD*%
%TA.AperFunction,Conductor*%
%TO.N,Net-(Q2-B)*%
G36*
X149280844Y-76412570D02*
G01*
X150514567Y-77398759D01*
X150518890Y-77406601D01*
X150516401Y-77415203D01*
X150514567Y-77417037D01*
X149280844Y-78403225D01*
X149272242Y-78405714D01*
X149268307Y-78404551D01*
X148281468Y-77911132D01*
X148275600Y-77904367D01*
X148275000Y-77900667D01*
X148275000Y-76915129D01*
X148278427Y-76906856D01*
X148281468Y-76904664D01*
X149268308Y-76411243D01*
X149277239Y-76410609D01*
X149280844Y-76412570D01*
G37*
%TD.AperFunction*%
%TD*%
%TA.AperFunction,Conductor*%
%TO.N,Net-(C3-A)*%
G36*
X173005962Y-100505957D02*
G01*
X173997569Y-101496572D01*
X174001000Y-101504843D01*
X174001000Y-101988300D01*
X173997573Y-101996573D01*
X173989300Y-102000000D01*
X172011700Y-102000000D01*
X172003427Y-101996573D01*
X172000000Y-101988300D01*
X172000000Y-101007231D01*
X172003427Y-100998958D01*
X172006468Y-100996766D01*
X172992462Y-100503768D01*
X173001393Y-100503134D01*
X173005962Y-100505957D01*
G37*
%TD.AperFunction*%
%TD*%
%TA.AperFunction,Conductor*%
%TO.N,VEE*%
G36*
X160317150Y-95100524D02*
G01*
X160320766Y-95102984D01*
X161015585Y-95797803D01*
X161019012Y-95806076D01*
X161016975Y-95812672D01*
X160115353Y-97133527D01*
X160107859Y-97138428D01*
X160101224Y-97137745D01*
X159318295Y-96814424D01*
X159311956Y-96808099D01*
X159311316Y-96801180D01*
X159613015Y-95380451D01*
X159618085Y-95373073D01*
X159620152Y-95372006D01*
X160308199Y-95100374D01*
X160317150Y-95100524D01*
G37*
%TD.AperFunction*%
%TD*%
%TA.AperFunction,Conductor*%
%TO.N,Net-(C3-A)*%
G36*
X166000136Y-99903427D02*
G01*
X166002832Y-99907628D01*
X166297374Y-100701073D01*
X166297040Y-100710022D01*
X166294641Y-100713455D01*
X165508236Y-101492837D01*
X165499948Y-101496227D01*
X165491764Y-101492837D01*
X164705358Y-100713455D01*
X164701894Y-100705197D01*
X164702625Y-100701073D01*
X164997168Y-99907628D01*
X165003260Y-99901065D01*
X165008137Y-99900000D01*
X165991863Y-99900000D01*
X166000136Y-99903427D01*
G37*
%TD.AperFunction*%
%TD*%
%TA.AperFunction,Conductor*%
%TO.N,VEE*%
G36*
X177367003Y-91262456D02*
G01*
X177446181Y-91286956D01*
X177453072Y-91292675D01*
X177454024Y-91301162D01*
X177002324Y-92986514D01*
X176996872Y-92993618D01*
X176991023Y-92995185D01*
X176008977Y-92995185D01*
X176000704Y-92991758D01*
X175997676Y-92986514D01*
X175545975Y-91301162D01*
X175547143Y-91292284D01*
X175553817Y-91286956D01*
X176496545Y-90995254D01*
X176503455Y-90995254D01*
X177367003Y-91262456D01*
G37*
%TD.AperFunction*%
%TD*%
%TA.AperFunction,Conductor*%
%TO.N,Net-(C3-A)*%
G36*
X128725681Y-74397023D02*
G01*
X128729206Y-74399443D01*
X129424664Y-75094901D01*
X129428091Y-75103174D01*
X129426592Y-75108903D01*
X128528873Y-76707316D01*
X128521834Y-76712852D01*
X128517155Y-76713188D01*
X127286404Y-76552290D01*
X127278645Y-76547820D01*
X127276320Y-76539172D01*
X127276390Y-76538709D01*
X127572792Y-74843374D01*
X127577592Y-74835817D01*
X127580111Y-74834474D01*
X128716730Y-74396798D01*
X128725681Y-74397023D01*
G37*
%TD.AperFunction*%
%TD*%
%TA.AperFunction,Conductor*%
%TO.N,Net-(Q1-B)*%
G36*
X117275136Y-79903427D02*
G01*
X117277832Y-79907628D01*
X117572374Y-80701073D01*
X117572040Y-80710022D01*
X117569641Y-80713455D01*
X116783236Y-81492837D01*
X116774948Y-81496227D01*
X116766764Y-81492837D01*
X115980358Y-80713455D01*
X115976894Y-80705197D01*
X115977625Y-80701073D01*
X116272168Y-79907628D01*
X116278260Y-79901065D01*
X116283137Y-79900000D01*
X117266863Y-79900000D01*
X117275136Y-79903427D01*
G37*
%TD.AperFunction*%
%TD*%
%TA.AperFunction,Conductor*%
%TO.N,/L*%
G36*
X105162092Y-89597290D02*
G01*
X105168808Y-89603213D01*
X105170000Y-89608358D01*
X105170000Y-90591641D01*
X105166573Y-90599914D01*
X105162092Y-90602709D01*
X104150974Y-90949152D01*
X104142037Y-90948592D01*
X104140932Y-90947975D01*
X102814652Y-90109890D01*
X102809489Y-90102573D01*
X102811011Y-90093749D01*
X102814648Y-90090111D01*
X103991165Y-89346662D01*
X103994366Y-89345262D01*
X104032542Y-89335033D01*
X104193307Y-89268441D01*
X104201570Y-89268183D01*
X105162092Y-89597290D01*
G37*
%TD.AperFunction*%
%TD*%
%TA.AperFunction,Conductor*%
%TO.N,Net-(C2-A)*%
G36*
X154238184Y-96817012D02*
G01*
X154965986Y-97529516D01*
X154969499Y-97537751D01*
X154969500Y-97537875D01*
X154969500Y-97628010D01*
X154988959Y-97775828D01*
X154988842Y-97779596D01*
X154731846Y-99096689D01*
X154726899Y-99104152D01*
X154720363Y-99106148D01*
X153739637Y-99106148D01*
X153731364Y-99102721D01*
X153728154Y-99096689D01*
X153490715Y-97879833D01*
X153490499Y-97877609D01*
X153490499Y-97537873D01*
X153493925Y-97529603D01*
X154221817Y-96817010D01*
X154230123Y-96813674D01*
X154238184Y-96817012D01*
G37*
%TD.AperFunction*%
%TD*%
%TA.AperFunction,Conductor*%
%TO.N,VCC*%
G36*
X152236832Y-86852458D02*
G01*
X152929706Y-87545332D01*
X152933133Y-87553605D01*
X152931838Y-87558955D01*
X152489492Y-88419318D01*
X152482662Y-88425109D01*
X152480940Y-88425520D01*
X151153642Y-88638405D01*
X151144930Y-88636332D01*
X151140237Y-88628706D01*
X151140107Y-88626204D01*
X151182231Y-87876110D01*
X151185714Y-87868420D01*
X152220363Y-86852382D01*
X152228665Y-86849031D01*
X152236832Y-86852458D01*
G37*
%TD.AperFunction*%
%TD*%
%TA.AperFunction,Conductor*%
%TO.N,Net-(C2-A)*%
G36*
X155339984Y-101502950D02*
G01*
X155344424Y-101508295D01*
X155667745Y-102291224D01*
X155667736Y-102300179D01*
X155663527Y-102305353D01*
X154342672Y-103206975D01*
X154333907Y-103208809D01*
X154327803Y-103205585D01*
X153632984Y-102510766D01*
X153629557Y-102502493D01*
X153630372Y-102498202D01*
X153902003Y-101810160D01*
X153908227Y-101803726D01*
X153910443Y-101803017D01*
X155331180Y-101501316D01*
X155339984Y-101502950D01*
G37*
%TD.AperFunction*%
%TD*%
%TA.AperFunction,Conductor*%
%TO.N,VEE*%
G36*
X160284596Y-104705058D02*
G01*
X161786689Y-104998154D01*
X161794152Y-105003101D01*
X161796148Y-105009637D01*
X161796148Y-105990362D01*
X161792721Y-105998635D01*
X161786689Y-106001845D01*
X160284604Y-106294940D01*
X160275827Y-106293161D01*
X160274005Y-106291645D01*
X159507011Y-105508183D01*
X159503674Y-105499876D01*
X159507011Y-105491816D01*
X160274004Y-104708355D01*
X160282239Y-104704843D01*
X160284596Y-104705058D01*
G37*
%TD.AperFunction*%
%TD*%
%TA.AperFunction,Conductor*%
%TO.N,VEE*%
G36*
X156960085Y-75411364D02*
G01*
X156961201Y-75412656D01*
X158304630Y-77219531D01*
X158306816Y-77228215D01*
X158303514Y-77234785D01*
X157606476Y-77931823D01*
X157599440Y-77935184D01*
X156974070Y-78001666D01*
X156965481Y-77999133D01*
X156961619Y-77993369D01*
X156367396Y-75996175D01*
X156368321Y-75987270D01*
X156370334Y-75984570D01*
X156943540Y-75411363D01*
X156951812Y-75407937D01*
X156960085Y-75411364D01*
G37*
%TD.AperFunction*%
%TD*%
%TA.AperFunction,Conductor*%
%TO.N,VEE*%
G36*
X160000136Y-103903427D02*
G01*
X160002832Y-103907628D01*
X160297374Y-104701073D01*
X160297040Y-104710022D01*
X160294641Y-104713455D01*
X159508236Y-105492837D01*
X159499948Y-105496227D01*
X159491764Y-105492837D01*
X158705358Y-104713455D01*
X158701894Y-104705197D01*
X158702625Y-104701073D01*
X158997168Y-103907628D01*
X159003260Y-103901065D01*
X159008137Y-103900000D01*
X159991863Y-103900000D01*
X160000136Y-103903427D01*
G37*
%TD.AperFunction*%
%TD*%
%TA.AperFunction,Conductor*%
%TO.N,VCC*%
G36*
X150900023Y-88392959D02*
G01*
X150903456Y-88395358D01*
X151682837Y-89181764D01*
X151686227Y-89190052D01*
X151682837Y-89198236D01*
X150903456Y-89984641D01*
X150895198Y-89988105D01*
X150891074Y-89987374D01*
X150097628Y-89692831D01*
X150091065Y-89686739D01*
X150090000Y-89681862D01*
X150090000Y-88698137D01*
X150093427Y-88689864D01*
X150097626Y-88687168D01*
X150891074Y-88392625D01*
X150900023Y-88392959D01*
G37*
%TD.AperFunction*%
%TD*%
%TA.AperFunction,Conductor*%
%TO.N,Net-(C2-A)*%
G36*
X124307048Y-103202643D02*
G01*
X125092408Y-103497153D01*
X125098951Y-103503267D01*
X125100000Y-103508108D01*
X125100000Y-104491892D01*
X125096573Y-104500165D01*
X125092408Y-104502847D01*
X124307048Y-104797356D01*
X124298098Y-104797052D01*
X124294672Y-104794679D01*
X124002475Y-104502847D01*
X123507287Y-104008277D01*
X123503856Y-104000007D01*
X123507278Y-103991732D01*
X123507288Y-103991722D01*
X124294674Y-103205319D01*
X124302947Y-103201898D01*
X124307048Y-103202643D01*
G37*
%TD.AperFunction*%
%TD*%
%TA.AperFunction,Conductor*%
%TO.N,VEE*%
G36*
X183901514Y-84257240D02*
G01*
X183947986Y-84269693D01*
X184181989Y-84300500D01*
X184211546Y-84300500D01*
X184219570Y-84303685D01*
X184991963Y-85031485D01*
X184995634Y-85039652D01*
X184992454Y-85048024D01*
X184991963Y-85048515D01*
X184121974Y-85868276D01*
X184113602Y-85871456D01*
X184111390Y-85871178D01*
X182643329Y-85542049D01*
X182636006Y-85536895D01*
X182634189Y-85530632D01*
X182634189Y-84549367D01*
X182637616Y-84541094D01*
X182643326Y-84537951D01*
X183895933Y-84257125D01*
X183901514Y-84257240D01*
G37*
%TD.AperFunction*%
%TD*%
%TA.AperFunction,Conductor*%
%TO.N,Net-(C3-A)*%
G36*
X162725803Y-76549136D02*
G01*
X162728873Y-76552683D01*
X163626592Y-78151096D01*
X163627656Y-78159987D01*
X163624664Y-78165098D01*
X162932453Y-78857308D01*
X162924180Y-78860735D01*
X162915907Y-78857308D01*
X162874088Y-78815489D01*
X162874082Y-78815483D01*
X162874076Y-78815479D01*
X162874072Y-78815475D01*
X162683012Y-78676660D01*
X162663128Y-78666528D01*
X162472564Y-78569432D01*
X162472561Y-78569431D01*
X162472559Y-78569430D01*
X162472555Y-78569428D01*
X162247948Y-78496449D01*
X162247932Y-78496445D01*
X162014665Y-78459500D01*
X162014664Y-78459500D01*
X161870514Y-78459500D01*
X161866310Y-78458718D01*
X161780112Y-78425525D01*
X161773622Y-78419355D01*
X161772791Y-78416622D01*
X161476396Y-76721323D01*
X161478347Y-76712585D01*
X161485906Y-76707785D01*
X161486371Y-76707713D01*
X162717156Y-76546811D01*
X162725803Y-76549136D01*
G37*
%TD.AperFunction*%
%TD*%
%TA.AperFunction,Conductor*%
%TO.N,VCC*%
G36*
X122300118Y-79903427D02*
G01*
X122302822Y-79907650D01*
X122597385Y-80706031D01*
X122597033Y-80714979D01*
X122594618Y-80718417D01*
X121808258Y-81492866D01*
X121799959Y-81496230D01*
X121791789Y-81492817D01*
X121005337Y-80709003D01*
X121001896Y-80700736D01*
X121002635Y-80696624D01*
X121297160Y-79907608D01*
X121303263Y-79901056D01*
X121308121Y-79900000D01*
X122291845Y-79900000D01*
X122300118Y-79903427D01*
G37*
%TD.AperFunction*%
%TD*%
%TA.AperFunction,Conductor*%
%TO.N,VCC*%
G36*
X175227456Y-71517100D02*
G01*
X176905392Y-72494859D01*
X176910814Y-72501985D01*
X176910314Y-72509436D01*
X176502562Y-73496217D01*
X176496236Y-73502554D01*
X176496224Y-73502559D01*
X176496217Y-73502562D01*
X175509436Y-73910314D01*
X175500481Y-73910307D01*
X175494859Y-73905392D01*
X175259043Y-73500707D01*
X174517100Y-72227457D01*
X174515897Y-72218585D01*
X174518935Y-72213297D01*
X175213296Y-71518936D01*
X175221568Y-71515510D01*
X175227456Y-71517100D01*
G37*
%TD.AperFunction*%
%TD*%
%TA.AperFunction,Conductor*%
%TO.N,Net-(U2A-+)*%
G36*
X133297541Y-88045004D02*
G01*
X134986514Y-88497676D01*
X134993618Y-88503128D01*
X134995185Y-88508977D01*
X134995185Y-89491022D01*
X134991758Y-89499295D01*
X134986514Y-89502323D01*
X133297543Y-89954994D01*
X133288665Y-89953826D01*
X133285497Y-89951149D01*
X132505165Y-89007456D01*
X132502534Y-88998896D01*
X132505165Y-88992544D01*
X133285497Y-88048850D01*
X133293410Y-88044658D01*
X133297541Y-88045004D01*
G37*
%TD.AperFunction*%
%TD*%
%TA.AperFunction,Conductor*%
%TO.N,VCC*%
G36*
X177353489Y-72522287D02*
G01*
X178492800Y-72997000D01*
X178499119Y-73003345D01*
X178500000Y-73007800D01*
X178500000Y-73992199D01*
X178496573Y-74000472D01*
X178492800Y-74002999D01*
X177353492Y-74477711D01*
X177344537Y-74477730D01*
X177340135Y-74474556D01*
X176505598Y-73507645D01*
X176502786Y-73499143D01*
X176505598Y-73492355D01*
X177340136Y-72525442D01*
X177348135Y-72521419D01*
X177353489Y-72522287D01*
G37*
%TD.AperFunction*%
%TD*%
%TA.AperFunction,Conductor*%
%TO.N,VCC*%
G36*
X123050803Y-76389136D02*
G01*
X123053873Y-76392683D01*
X123951592Y-77991096D01*
X123952656Y-77999987D01*
X123949664Y-78005098D01*
X123254206Y-78700556D01*
X123245933Y-78703983D01*
X123241729Y-78703201D01*
X122105112Y-78265525D01*
X122098623Y-78259355D01*
X122097791Y-78256622D01*
X121801396Y-76561323D01*
X121803347Y-76552585D01*
X121810906Y-76547785D01*
X121811371Y-76547713D01*
X123042156Y-76386811D01*
X123050803Y-76389136D01*
G37*
%TD.AperFunction*%
%TD*%
%TA.AperFunction,Conductor*%
%TO.N,Net-(C3-B)*%
G36*
X179999485Y-100089705D02*
G01*
X180005127Y-100094656D01*
X180964292Y-101753904D01*
X180965466Y-101762781D01*
X180962436Y-101768032D01*
X180267142Y-102463326D01*
X180258869Y-102466753D01*
X180254513Y-102465912D01*
X179087891Y-101997960D01*
X179081489Y-101991700D01*
X179080564Y-101987739D01*
X179067796Y-101753904D01*
X178999745Y-100507574D01*
X179002716Y-100499127D01*
X179006957Y-100496126D01*
X179990532Y-100089698D01*
X179999485Y-100089705D01*
G37*
%TD.AperFunction*%
%TD*%
%TA.AperFunction,Conductor*%
%TO.N,VCC*%
G36*
X123250681Y-74397023D02*
G01*
X123254206Y-74399443D01*
X123949664Y-75094901D01*
X123953091Y-75103174D01*
X123951592Y-75108903D01*
X123053873Y-76707316D01*
X123046834Y-76712852D01*
X123042155Y-76713188D01*
X121811404Y-76552290D01*
X121803645Y-76547820D01*
X121801320Y-76539172D01*
X121801390Y-76538709D01*
X122097792Y-74843374D01*
X122102592Y-74835817D01*
X122105111Y-74834474D01*
X123241730Y-74396798D01*
X123250681Y-74397023D01*
G37*
%TD.AperFunction*%
%TD*%
%TA.AperFunction,Conductor*%
%TO.N,Net-(U2A-+)*%
G36*
X141429545Y-89223015D02*
G01*
X141436925Y-89228085D01*
X141437997Y-89230163D01*
X141709625Y-89918197D01*
X141709475Y-89927150D01*
X141707015Y-89930766D01*
X141012196Y-90625585D01*
X141003923Y-90629012D01*
X140997327Y-90626975D01*
X139676472Y-89725353D01*
X139671571Y-89717859D01*
X139672254Y-89711224D01*
X139995575Y-88928295D01*
X140001900Y-88921956D01*
X140008819Y-88921316D01*
X141429545Y-89223015D01*
G37*
%TD.AperFunction*%
%TD*%
%TA.AperFunction,Conductor*%
%TO.N,Net-(C1-Pad2)*%
G36*
X121246095Y-87035707D02*
G01*
X122905343Y-87994872D01*
X122910791Y-88001979D01*
X122910301Y-88009469D01*
X122503875Y-88993039D01*
X122497549Y-88999377D01*
X122492424Y-89000254D01*
X121012260Y-88919435D01*
X121004186Y-88915562D01*
X121002039Y-88912108D01*
X120534087Y-87745486D01*
X120534188Y-87736531D01*
X120536670Y-87732860D01*
X121231968Y-87037562D01*
X121240240Y-87034136D01*
X121246095Y-87035707D01*
G37*
%TD.AperFunction*%
%TD*%
%TA.AperFunction,Conductor*%
%TO.N,/R*%
G36*
X106463020Y-86762926D02*
G01*
X107914913Y-87556672D01*
X107920528Y-87563646D01*
X107921000Y-87566937D01*
X107921000Y-87789679D01*
X107917573Y-87797952D01*
X107910760Y-87801288D01*
X105867237Y-88058344D01*
X105858601Y-88055976D01*
X105854168Y-88048195D01*
X105854077Y-88046735D01*
X105854077Y-87067249D01*
X105857504Y-87058976D01*
X105860566Y-87056774D01*
X106452202Y-86762715D01*
X106461135Y-86762102D01*
X106463020Y-86762926D01*
G37*
%TD.AperFunction*%
%TD*%
%TA.AperFunction,Conductor*%
%TO.N,Net-(Q1-B)*%
G36*
X118204545Y-81803015D02*
G01*
X118211925Y-81808085D01*
X118212997Y-81810163D01*
X118484625Y-82498197D01*
X118484475Y-82507150D01*
X118482015Y-82510766D01*
X117787196Y-83205585D01*
X117778923Y-83209012D01*
X117772327Y-83206975D01*
X116451472Y-82305353D01*
X116446571Y-82297859D01*
X116447254Y-82291224D01*
X116770575Y-81508295D01*
X116776900Y-81501956D01*
X116783819Y-81501316D01*
X118204545Y-81803015D01*
G37*
%TD.AperFunction*%
%TD*%
%TA.AperFunction,Conductor*%
%TO.N,GND*%
G36*
X125793589Y-70157140D02*
G01*
X125804442Y-70160326D01*
X125819442Y-70169964D01*
X125836550Y-70174987D01*
X125848223Y-70188458D01*
X125863223Y-70198096D01*
X125870631Y-70214316D01*
X125882307Y-70227789D01*
X125884844Y-70245433D01*
X125892252Y-70261650D01*
X125889715Y-70279298D01*
X125892254Y-70296947D01*
X125882312Y-70330811D01*
X125879127Y-70337786D01*
X125854011Y-70373961D01*
X122718656Y-73509313D01*
X122675534Y-73537349D01*
X122012165Y-73792792D01*
X121951425Y-73800015D01*
X121947517Y-73799500D01*
X121947513Y-73799500D01*
X121947506Y-73799500D01*
X121652494Y-73799500D01*
X121652486Y-73799500D01*
X121652478Y-73799500D01*
X121374085Y-73836152D01*
X121374085Y-73836153D01*
X121372447Y-73836368D01*
X121360007Y-73838006D01*
X121241730Y-73869699D01*
X121075051Y-73914359D01*
X121075028Y-73914368D01*
X120803179Y-74026972D01*
X120802549Y-74027228D01*
X120802491Y-74027256D01*
X120547005Y-74174761D01*
X120367414Y-74312567D01*
X120338491Y-74334761D01*
X120312958Y-74354353D01*
X120312951Y-74354359D01*
X120312943Y-74354366D01*
X120104366Y-74562943D01*
X120104359Y-74562951D01*
X120104353Y-74562958D01*
X119924761Y-74797005D01*
X119777256Y-75052491D01*
X119777228Y-75052549D01*
X119776972Y-75053179D01*
X119664368Y-75325028D01*
X119664359Y-75325051D01*
X119617349Y-75500500D01*
X119588538Y-75608030D01*
X119588118Y-75609596D01*
X119588054Y-75609833D01*
X119588010Y-75609994D01*
X119588009Y-75609999D01*
X119588006Y-75610013D01*
X119588003Y-75610035D01*
X119549500Y-75902478D01*
X119549500Y-77197520D01*
X119581571Y-77441112D01*
X119588006Y-77489986D01*
X119588008Y-77489996D01*
X119664359Y-77774947D01*
X119664367Y-77774970D01*
X119773982Y-78039602D01*
X119773983Y-78039605D01*
X119777254Y-78047500D01*
X119777258Y-78047510D01*
X119883196Y-78231000D01*
X119883398Y-78231354D01*
X119883474Y-78231674D01*
X119893354Y-78253655D01*
X120196034Y-79163184D01*
X120254892Y-79340044D01*
X120291446Y-79449886D01*
X120293156Y-79455022D01*
X120299500Y-79494177D01*
X120299500Y-79682665D01*
X120298480Y-79688313D01*
X120299182Y-79691545D01*
X120291670Y-79726030D01*
X120237215Y-79871909D01*
X120195329Y-79927831D01*
X120183048Y-79935929D01*
X120136054Y-79963063D01*
X120136051Y-79963065D01*
X120119033Y-79972890D01*
X120072543Y-79999730D01*
X119885309Y-80143399D01*
X119885294Y-80143413D01*
X119885286Y-80143420D01*
X119718420Y-80310286D01*
X119718413Y-80310294D01*
X119718399Y-80310309D01*
X119574736Y-80497536D01*
X119574730Y-80497545D01*
X119456719Y-80701942D01*
X119456715Y-80701950D01*
X119396383Y-80847606D01*
X119379356Y-80876304D01*
X119378375Y-80877957D01*
X119371279Y-80886763D01*
X119313888Y-80926613D01*
X119244063Y-80929108D01*
X119183973Y-80893457D01*
X119183971Y-80893454D01*
X119178746Y-80887842D01*
X119154938Y-80850797D01*
X119093289Y-80701963D01*
X119093283Y-80701950D01*
X119093280Y-80701943D01*
X119059955Y-80644223D01*
X119044182Y-80616903D01*
X119044180Y-80616901D01*
X118975276Y-80497556D01*
X118975273Y-80497550D01*
X118831592Y-80310301D01*
X118831587Y-80310295D01*
X118831586Y-80310294D01*
X118831574Y-80310281D01*
X118664712Y-80143420D01*
X118664704Y-80143412D01*
X118664697Y-80143406D01*
X118664694Y-80143403D01*
X118664689Y-80143399D01*
X118477657Y-79999886D01*
X118477658Y-79999886D01*
X118477458Y-79999733D01*
X118477454Y-79999730D01*
X118477450Y-79999727D01*
X118477445Y-79999724D01*
X118477442Y-79999722D01*
X118397885Y-79953789D01*
X118373153Y-79927831D01*
X118349711Y-79903246D01*
X118349694Y-79903208D01*
X118349690Y-79903204D01*
X118349688Y-79903194D01*
X118343678Y-79889579D01*
X118283251Y-79726797D01*
X118275500Y-79683644D01*
X118275500Y-79482436D01*
X118280730Y-79446805D01*
X118292253Y-79408397D01*
X118536828Y-78593145D01*
X118552411Y-78521014D01*
X118564886Y-78477418D01*
X118567022Y-78453384D01*
X118570208Y-78438641D01*
X118571188Y-78408708D01*
X118571606Y-78401820D01*
X118575500Y-78358037D01*
X118575499Y-78277092D01*
X118576869Y-78235300D01*
X118576304Y-78227076D01*
X118575499Y-78221654D01*
X118575499Y-74741964D01*
X118564886Y-74622582D01*
X118514479Y-74446418D01*
X118512769Y-74440441D01*
X118508910Y-74426954D01*
X118508909Y-74426953D01*
X118508909Y-74426951D01*
X118508906Y-74426946D01*
X118508811Y-74426612D01*
X118507472Y-74424200D01*
X118414698Y-74246593D01*
X118414695Y-74246589D01*
X118414694Y-74246587D01*
X118356129Y-74174763D01*
X118356126Y-74174760D01*
X118286109Y-74088890D01*
X118286108Y-74088889D01*
X118192807Y-74012813D01*
X118180704Y-73995167D01*
X118128404Y-73960300D01*
X117961933Y-73873343D01*
X117961931Y-73873342D01*
X117948049Y-73866091D01*
X117948048Y-73866090D01*
X117948045Y-73866089D01*
X117830829Y-73832550D01*
X117829492Y-73832167D01*
X117829481Y-73832164D01*
X117754981Y-73810847D01*
X117752825Y-73810179D01*
X117750347Y-73809777D01*
X117746936Y-73809626D01*
X117736611Y-73808708D01*
X117686102Y-73804217D01*
X117686101Y-73804216D01*
X117633039Y-73799500D01*
X117633037Y-73799500D01*
X117633032Y-73799500D01*
X115016971Y-73799500D01*
X115016965Y-73799500D01*
X115004897Y-73799500D01*
X114998042Y-73801182D01*
X114897582Y-73810113D01*
X114701956Y-73866088D01*
X114701954Y-73866088D01*
X114701954Y-73866089D01*
X114614882Y-73911572D01*
X114522557Y-73959798D01*
X114521646Y-73960263D01*
X114519242Y-73961996D01*
X114516716Y-73964278D01*
X114363887Y-74088892D01*
X114235306Y-74246586D01*
X114141088Y-74426955D01*
X114085848Y-74620016D01*
X114085236Y-74621992D01*
X114085113Y-74622581D01*
X114074500Y-74741967D01*
X114074500Y-78358034D01*
X114074835Y-78362089D01*
X114074921Y-78362760D01*
X114085113Y-78477416D01*
X114098729Y-78525001D01*
X114128012Y-78627344D01*
X114141090Y-78673048D01*
X114141284Y-78673629D01*
X114142201Y-78675209D01*
X114142669Y-78676070D01*
X114235302Y-78853407D01*
X114235304Y-78853409D01*
X114246594Y-78867255D01*
X114246595Y-78867257D01*
X114363887Y-79011106D01*
X114363888Y-79011107D01*
X114363890Y-79011109D01*
X114366711Y-79013409D01*
X114430824Y-79065686D01*
X114443231Y-79075802D01*
X114521593Y-79139698D01*
X114701951Y-79233909D01*
X114897582Y-79289886D01*
X115016963Y-79300500D01*
X115074429Y-79300499D01*
X115089477Y-79304917D01*
X115105150Y-79304365D01*
X115122311Y-79314557D01*
X115141468Y-79320182D01*
X115152534Y-79332508D01*
X115165223Y-79340044D01*
X115185339Y-79369045D01*
X115187901Y-79374168D01*
X115197772Y-79393910D01*
X115202607Y-79403580D01*
X115231066Y-79460498D01*
X115231067Y-79460500D01*
X115237860Y-79474086D01*
X115242035Y-79482436D01*
X115261409Y-79521185D01*
X115274500Y-79576639D01*
X115274500Y-79683644D01*
X115266748Y-79726798D01*
X115206319Y-79889580D01*
X115164534Y-79945578D01*
X115152073Y-79953812D01*
X115072560Y-79999720D01*
X115072557Y-79999722D01*
X115072541Y-79999733D01*
X115072536Y-79999736D01*
X115072530Y-79999741D01*
X114885309Y-80143399D01*
X114885294Y-80143413D01*
X114885286Y-80143420D01*
X114718420Y-80310286D01*
X114718413Y-80310294D01*
X114718399Y-80310309D01*
X114574736Y-80497536D01*
X114574730Y-80497545D01*
X114456719Y-80701942D01*
X114456715Y-80701950D01*
X114366395Y-80920001D01*
X114305305Y-81147992D01*
X114274503Y-81381963D01*
X114274500Y-81381987D01*
X114274500Y-81618011D01*
X114274503Y-81618035D01*
X114305305Y-81852006D01*
X114366395Y-82079997D01*
X114441986Y-82262488D01*
X114456714Y-82298045D01*
X114456719Y-82298056D01*
X114527677Y-82420957D01*
X114574727Y-82502450D01*
X114574729Y-82502453D01*
X114574730Y-82502454D01*
X114580446Y-82509904D01*
X114580449Y-82509908D01*
X114718399Y-82689689D01*
X114718403Y-82689694D01*
X114718406Y-82689697D01*
X114718412Y-82689704D01*
X114885295Y-82856587D01*
X114885302Y-82856593D01*
X114885305Y-82856595D01*
X114885309Y-82856599D01*
X114941871Y-82900000D01*
X115072552Y-83000275D01*
X115072554Y-83000276D01*
X115196641Y-83071917D01*
X115196643Y-83071918D01*
X115230737Y-83091603D01*
X115273503Y-83116294D01*
X115275241Y-83117374D01*
X115276663Y-83118163D01*
X115276937Y-83118276D01*
X115276943Y-83118280D01*
X115276948Y-83118282D01*
X115276951Y-83118284D01*
X115495007Y-83208606D01*
X115722986Y-83269693D01*
X115956989Y-83300500D01*
X116087556Y-83300500D01*
X116154595Y-83320185D01*
X116157449Y-83322074D01*
X117148509Y-83998576D01*
X117148516Y-83998581D01*
X117166288Y-84013315D01*
X118128184Y-84975211D01*
X118138196Y-84988585D01*
X118149333Y-85003461D01*
X118154754Y-85013388D01*
X118169608Y-85081661D01*
X118145194Y-85147126D01*
X118089262Y-85188999D01*
X118089258Y-85189001D01*
X118082070Y-85191682D01*
X118038736Y-85199500D01*
X117261981Y-85199500D01*
X117255861Y-85200253D01*
X117254955Y-85200425D01*
X117027992Y-85230305D01*
X116800001Y-85291395D01*
X116581950Y-85381715D01*
X116581942Y-85381719D01*
X116377545Y-85499730D01*
X116377536Y-85499736D01*
X116190309Y-85643399D01*
X116190294Y-85643413D01*
X116190286Y-85643420D01*
X116023420Y-85810286D01*
X116023413Y-85810294D01*
X116023399Y-85810309D01*
X115879736Y-85997536D01*
X115879730Y-85997545D01*
X115761719Y-86201942D01*
X115761715Y-86201950D01*
X115671395Y-86420001D01*
X115610305Y-86647992D01*
X115579503Y-86881963D01*
X115579500Y-86881987D01*
X115579500Y-87118011D01*
X115579503Y-87118036D01*
X115607812Y-87333075D01*
X115607813Y-87333075D01*
X115610306Y-87352011D01*
X115622471Y-87397412D01*
X115647148Y-87489505D01*
X115669178Y-87571724D01*
X115671395Y-87579995D01*
X115671397Y-87580002D01*
X115761715Y-87798048D01*
X115761724Y-87798065D01*
X115789528Y-87846223D01*
X115812608Y-87886197D01*
X115879727Y-88002450D01*
X115879729Y-88002453D01*
X115879730Y-88002454D01*
X115885565Y-88010058D01*
X115885566Y-88010060D01*
X116023399Y-88189689D01*
X116023403Y-88189694D01*
X116023406Y-88189697D01*
X116023412Y-88189704D01*
X116023420Y-88189712D01*
X116190281Y-88356574D01*
X116190297Y-88356589D01*
X116190305Y-88356595D01*
X116377548Y-88500272D01*
X116377550Y-88500273D01*
X116508918Y-88576118D01*
X116578516Y-88616301D01*
X116580256Y-88617382D01*
X116581669Y-88618167D01*
X116581949Y-88618283D01*
X116581951Y-88618284D01*
X116600529Y-88625979D01*
X116606902Y-88628619D01*
X116637244Y-88646623D01*
X116646053Y-88653722D01*
X116656223Y-88668368D01*
X116670109Y-88679560D01*
X116675736Y-88696472D01*
X116685902Y-88711113D01*
X116686538Y-88728934D01*
X116692169Y-88745855D01*
X116687759Y-88763125D01*
X116688396Y-88780938D01*
X116679297Y-88796273D01*
X116674886Y-88813553D01*
X116652751Y-88841016D01*
X116652745Y-88841027D01*
X116652738Y-88841033D01*
X116647122Y-88846261D01*
X116610085Y-88870062D01*
X116581950Y-88881715D01*
X116581942Y-88881719D01*
X116377545Y-88999730D01*
X116377536Y-88999736D01*
X116190309Y-89143399D01*
X116190294Y-89143413D01*
X116190286Y-89143420D01*
X116023420Y-89310286D01*
X116023413Y-89310294D01*
X116023399Y-89310309D01*
X115879736Y-89497536D01*
X115879730Y-89497545D01*
X115761719Y-89701942D01*
X115761715Y-89701950D01*
X115671395Y-89920001D01*
X115610305Y-90147992D01*
X115579503Y-90381963D01*
X115579501Y-90381979D01*
X115579500Y-90381995D01*
X115579500Y-90618004D01*
X115579501Y-90618020D01*
X115604549Y-90808285D01*
X115607680Y-90832063D01*
X115610306Y-90852009D01*
X115610307Y-90852014D01*
X115627563Y-90916413D01*
X115671395Y-91079997D01*
X115761715Y-91298048D01*
X115761724Y-91298065D01*
X115815142Y-91390587D01*
X115815170Y-91390634D01*
X115815448Y-91391116D01*
X115879727Y-91502450D01*
X115879729Y-91502453D01*
X115879730Y-91502454D01*
X115885550Y-91510039D01*
X115885552Y-91510042D01*
X116023399Y-91689689D01*
X116023403Y-91689694D01*
X116023406Y-91689697D01*
X116023412Y-91689704D01*
X116190295Y-91856587D01*
X116190302Y-91856593D01*
X116190314Y-91856602D01*
X116190315Y-91856603D01*
X116234576Y-91890565D01*
X116234577Y-91890566D01*
X116377548Y-92000272D01*
X116377550Y-92000273D01*
X116508918Y-92076118D01*
X116578516Y-92116301D01*
X116580255Y-92117382D01*
X116581660Y-92118162D01*
X116581938Y-92118277D01*
X116581943Y-92118280D01*
X116581948Y-92118282D01*
X116581951Y-92118284D01*
X116800007Y-92208606D01*
X117027986Y-92269693D01*
X117261989Y-92300500D01*
X117261996Y-92300500D01*
X118898004Y-92300500D01*
X118898010Y-92300500D01*
X118898011Y-92300500D01*
X119000175Y-92287049D01*
X119057171Y-92281828D01*
X119093119Y-92274813D01*
X119129071Y-92270080D01*
X119132007Y-92269694D01*
X119132007Y-92269693D01*
X119132014Y-92269693D01*
X119161778Y-92261717D01*
X119170102Y-92259791D01*
X120487189Y-92002794D01*
X120510937Y-92000500D01*
X121118096Y-92000500D01*
X121118097Y-92000500D01*
X121351368Y-91963553D01*
X121575992Y-91890568D01*
X121786434Y-91783343D01*
X121977510Y-91644517D01*
X122572608Y-91049418D01*
X122600853Y-91028275D01*
X122623945Y-91015667D01*
X122683370Y-91000500D01*
X123131113Y-91000500D01*
X123131120Y-91000500D01*
X123391116Y-90966270D01*
X123644419Y-90898398D01*
X123861983Y-90808280D01*
X123886690Y-90798046D01*
X123886691Y-90798045D01*
X123886697Y-90798043D01*
X123886702Y-90798039D01*
X123887443Y-90797733D01*
X123890163Y-90796041D01*
X124113803Y-90666924D01*
X124321851Y-90507282D01*
X124321855Y-90507277D01*
X124321860Y-90507274D01*
X124355791Y-90473343D01*
X124502433Y-90326702D01*
X124503209Y-90326006D01*
X124506758Y-90322385D01*
X124507257Y-90321880D01*
X124507267Y-90321866D01*
X124507274Y-90321860D01*
X124507277Y-90321855D01*
X124507282Y-90321851D01*
X124507398Y-90321699D01*
X124507624Y-90321411D01*
X124507628Y-90321407D01*
X124511074Y-90316993D01*
X124511574Y-90316256D01*
X124666924Y-90113803D01*
X124798043Y-89886697D01*
X124867284Y-89719532D01*
X124885285Y-89689193D01*
X124894002Y-89678376D01*
X124951391Y-89638531D01*
X125021213Y-89636037D01*
X125025391Y-89637103D01*
X125026306Y-89637337D01*
X125083306Y-89669800D01*
X128058016Y-92644511D01*
X128058024Y-92644518D01*
X128058025Y-92644519D01*
X128058030Y-92644523D01*
X128224689Y-92765606D01*
X128249101Y-92783343D01*
X128383193Y-92851666D01*
X128453090Y-92887281D01*
X128454686Y-92888216D01*
X128458384Y-92890007D01*
X128460399Y-92891008D01*
X128464167Y-92892071D01*
X128514640Y-92908470D01*
X128579944Y-92929688D01*
X128579945Y-92929689D01*
X128579946Y-92929689D01*
X128684165Y-92963553D01*
X128917437Y-93000500D01*
X128917442Y-93000500D01*
X129153626Y-93000500D01*
X136981973Y-93000500D01*
X137016905Y-93005521D01*
X137042149Y-93012934D01*
X137094895Y-93044230D01*
X142005182Y-97954517D01*
X142114210Y-98033731D01*
X142196259Y-98093344D01*
X142236039Y-98113612D01*
X142275821Y-98133882D01*
X142315024Y-98153857D01*
X142325194Y-98159039D01*
X142400246Y-98197280D01*
X142401846Y-98198216D01*
X142405543Y-98200007D01*
X142407553Y-98201006D01*
X142411307Y-98202065D01*
X142435726Y-98209999D01*
X142631323Y-98273553D01*
X142864595Y-98310500D01*
X142864600Y-98310500D01*
X143100784Y-98310500D01*
X149799074Y-98310500D01*
X149834009Y-98315523D01*
X149849007Y-98319927D01*
X149907779Y-98357695D01*
X149913334Y-98364105D01*
X149939866Y-98415010D01*
X149947510Y-98445340D01*
X149947512Y-98445349D01*
X149954899Y-98474672D01*
X149954905Y-98474688D01*
X149980787Y-98531669D01*
X150047991Y-98679622D01*
X150047994Y-98679627D01*
X150047999Y-98679636D01*
X150176159Y-98864625D01*
X150176182Y-98864655D01*
X150176185Y-98864659D01*
X150335005Y-99023479D01*
X150335008Y-99023481D01*
X150335346Y-99023819D01*
X150335350Y-99023822D01*
X150335354Y-99023825D01*
X150464502Y-99113299D01*
X150520374Y-99152007D01*
X150725317Y-99245096D01*
X150725321Y-99245097D01*
X150725323Y-99245097D01*
X150725397Y-99245123D01*
X150725532Y-99245150D01*
X150857777Y-99278473D01*
X150941716Y-99299625D01*
X150943356Y-99300065D01*
X150943568Y-99300091D01*
X150943579Y-99300094D01*
X150943581Y-99300094D01*
X150943588Y-99300096D01*
X150943636Y-99300099D01*
X150945847Y-99300374D01*
X150948406Y-99300475D01*
X151075783Y-99310500D01*
X152304216Y-99310499D01*
X152436412Y-99300096D01*
X152557921Y-99269477D01*
X152593010Y-99265814D01*
X152606886Y-99266352D01*
X152673111Y-99288620D01*
X152716781Y-99343147D01*
X152720202Y-99351479D01*
X152729500Y-99398588D01*
X152729500Y-100508097D01*
X152760305Y-100702590D01*
X152764920Y-100731727D01*
X152764921Y-100731735D01*
X152766447Y-100741372D01*
X152839302Y-100965596D01*
X152839429Y-100965985D01*
X152839432Y-100965993D01*
X152840415Y-100968452D01*
X152842583Y-100972176D01*
X152861922Y-101010133D01*
X152873305Y-101043536D01*
X152878394Y-101070632D01*
X152876301Y-101125610D01*
X152870310Y-101147971D01*
X152870304Y-101147996D01*
X152844658Y-101342805D01*
X152839501Y-101381979D01*
X152839500Y-101381995D01*
X152839500Y-101618004D01*
X152839501Y-101618020D01*
X152849646Y-101695086D01*
X152847781Y-101710225D01*
X152850201Y-101722465D01*
X152842044Y-101756804D01*
X152773792Y-101929686D01*
X152746136Y-101971833D01*
X152267398Y-102450573D01*
X152239149Y-102471721D01*
X152216062Y-102484329D01*
X152156630Y-102499500D01*
X125390927Y-102499500D01*
X125390922Y-102499499D01*
X125390920Y-102499500D01*
X125355986Y-102494475D01*
X125340987Y-102490070D01*
X125282222Y-102452306D01*
X125276665Y-102445894D01*
X125250131Y-102394983D01*
X125235096Y-102335317D01*
X125218171Y-102298056D01*
X125188551Y-102232845D01*
X125142007Y-102130374D01*
X125142006Y-102130373D01*
X125142003Y-102130367D01*
X125107139Y-102080045D01*
X125107103Y-102079993D01*
X125013825Y-101945354D01*
X125013822Y-101945350D01*
X125013819Y-101945346D01*
X125013479Y-101945006D01*
X125013477Y-101945003D01*
X124855272Y-101786798D01*
X124855268Y-101786795D01*
X124854654Y-101786181D01*
X124854650Y-101786178D01*
X124854645Y-101786174D01*
X124670560Y-101658640D01*
X124669691Y-101658025D01*
X124669625Y-101657992D01*
X124581624Y-101618021D01*
X124523003Y-101591394D01*
X124464685Y-101564904D01*
X124464668Y-101564899D01*
X124246429Y-101509906D01*
X124246418Y-101509904D01*
X124246414Y-101509903D01*
X124202348Y-101506436D01*
X124202347Y-101506436D01*
X124114222Y-101499500D01*
X124114217Y-101499500D01*
X124114215Y-101499500D01*
X122885791Y-101499500D01*
X122885787Y-101499500D01*
X122753584Y-101509903D01*
X122753580Y-101509904D01*
X122753569Y-101509906D01*
X122535330Y-101564899D01*
X122535309Y-101564906D01*
X122330384Y-101657986D01*
X122330374Y-101657992D01*
X122330368Y-101657995D01*
X122330362Y-101657999D01*
X122145359Y-101786169D01*
X122145349Y-101786177D01*
X122145346Y-101786180D01*
X122145328Y-101786196D01*
X121986196Y-101945328D01*
X121986180Y-101945346D01*
X121986177Y-101945349D01*
X121986169Y-101945359D01*
X121857999Y-102130362D01*
X121857995Y-102130368D01*
X121857992Y-102130374D01*
X121857986Y-102130384D01*
X121771804Y-102320123D01*
X121768711Y-102324613D01*
X121768066Y-102327663D01*
X121765704Y-102331850D01*
X121751022Y-102356736D01*
X121700003Y-102404474D01*
X121631275Y-102417050D01*
X121605171Y-102406313D01*
X121595998Y-102405709D01*
X121586358Y-102398576D01*
X121566659Y-102390474D01*
X121561121Y-102386034D01*
X121546696Y-102369228D01*
X121539832Y-102364149D01*
X121537848Y-102358920D01*
X121531299Y-102351290D01*
X121500273Y-102297550D01*
X121441001Y-102220306D01*
X121371989Y-102130367D01*
X121356607Y-102110320D01*
X121356603Y-102110315D01*
X121356593Y-102110302D01*
X121356587Y-102110295D01*
X121189704Y-101943412D01*
X121189697Y-101943406D01*
X121189694Y-101943403D01*
X121189689Y-101943399D01*
X121009905Y-101805447D01*
X121009903Y-101805445D01*
X121002454Y-101799730D01*
X121002453Y-101799729D01*
X121002450Y-101799727D01*
X120920723Y-101752542D01*
X120920128Y-101752198D01*
X120920080Y-101752170D01*
X120798065Y-101681724D01*
X120798048Y-101681715D01*
X120579997Y-101591395D01*
X120481131Y-101564904D01*
X120359865Y-101532410D01*
X120352117Y-101529780D01*
X120343951Y-101529245D01*
X120119889Y-101499747D01*
X120118208Y-101499500D01*
X120118017Y-101499500D01*
X120118011Y-101499500D01*
X119881989Y-101499500D01*
X119881983Y-101499500D01*
X119881978Y-101499500D01*
X119879899Y-101499705D01*
X119877886Y-101500039D01*
X119804909Y-101509646D01*
X119743191Y-101502044D01*
X119570311Y-101433793D01*
X119528164Y-101406137D01*
X118359512Y-100237484D01*
X139408197Y-100237484D01*
X139408198Y-100237484D01*
X139408198Y-100237485D01*
X139500968Y-100284755D01*
X139695582Y-100347990D01*
X139897683Y-100380000D01*
X140102316Y-100380000D01*
X140102317Y-100380000D01*
X140304417Y-100347990D01*
X140499031Y-100284755D01*
X140591801Y-100237485D01*
X140591800Y-100237484D01*
X140591801Y-100237484D01*
X140068644Y-99714328D01*
X140000001Y-99645685D01*
X140000000Y-99645685D01*
X139931357Y-99714328D01*
X139931355Y-99714328D01*
X139408197Y-100237484D01*
X118359512Y-100237484D01*
X118127515Y-100005487D01*
X118127510Y-100005483D01*
X118119594Y-99999732D01*
X118119591Y-99999729D01*
X118119591Y-99999730D01*
X117936434Y-99866657D01*
X117922032Y-99859319D01*
X117726000Y-99759434D01*
X117668229Y-99740663D01*
X117501368Y-99686446D01*
X117501362Y-99686445D01*
X117268102Y-99649500D01*
X117268097Y-99649500D01*
X117268092Y-99649500D01*
X114913174Y-99649500D01*
X114886047Y-99646496D01*
X113918663Y-99429614D01*
X113857554Y-99395741D01*
X113824459Y-99334206D01*
X113829886Y-99264548D01*
X113835300Y-99252335D01*
X113894629Y-99135897D01*
X113894630Y-99135894D01*
X113894638Y-99135868D01*
X113894652Y-99135828D01*
X113935535Y-99010000D01*
X113069474Y-99010000D01*
X113002435Y-98990315D01*
X112991488Y-98977682D01*
X138700000Y-98977682D01*
X138700000Y-98982339D01*
X138700000Y-99182322D01*
X138730171Y-99372811D01*
X138732009Y-99384417D01*
X138789765Y-99562168D01*
X138795244Y-99579029D01*
X138795245Y-99579032D01*
X138795254Y-99579050D01*
X138842511Y-99671801D01*
X138842511Y-99671800D01*
X138842512Y-99671801D01*
X139434314Y-99080000D01*
X139434314Y-99079999D01*
X139381654Y-99027339D01*
X139600000Y-99027339D01*
X139600000Y-99132661D01*
X139613670Y-99183678D01*
X139627259Y-99234395D01*
X139627260Y-99234396D01*
X139679917Y-99325602D01*
X139679919Y-99325605D01*
X139679920Y-99325606D01*
X139754394Y-99400080D01*
X139845606Y-99452741D01*
X139947339Y-99480000D01*
X140052661Y-99480000D01*
X140154394Y-99452741D01*
X140245606Y-99400080D01*
X140320080Y-99325606D01*
X140372741Y-99234394D01*
X140400000Y-99132661D01*
X140400000Y-99079999D01*
X140565685Y-99079999D01*
X140565685Y-99080000D01*
X140634328Y-99148643D01*
X140634328Y-99148644D01*
X141157484Y-99671800D01*
X141157485Y-99671800D01*
X141204755Y-99579031D01*
X141267990Y-99384417D01*
X141300000Y-99182317D01*
X141300000Y-98977682D01*
X141267990Y-98775582D01*
X141204755Y-98580968D01*
X141157485Y-98488198D01*
X141157484Y-98488197D01*
X140634328Y-99011354D01*
X140634328Y-99011355D01*
X140565685Y-99079999D01*
X140400000Y-99079999D01*
X140400000Y-99027339D01*
X140372741Y-98925606D01*
X140339686Y-98868353D01*
X140320082Y-98834397D01*
X140320078Y-98834392D01*
X140245607Y-98759921D01*
X140245602Y-98759917D01*
X140154396Y-98707260D01*
X140154395Y-98707259D01*
X140123649Y-98699021D01*
X140052661Y-98680000D01*
X139947339Y-98680000D01*
X139896321Y-98693670D01*
X139896318Y-98693670D01*
X139845610Y-98707257D01*
X139845603Y-98707260D01*
X139754397Y-98759917D01*
X139754392Y-98759921D01*
X139679921Y-98834392D01*
X139679917Y-98834397D01*
X139627260Y-98925603D01*
X139627259Y-98925606D01*
X139613670Y-98976319D01*
X139613670Y-98976321D01*
X139600000Y-99027339D01*
X139381654Y-99027339D01*
X138842512Y-98488197D01*
X138842511Y-98488196D01*
X138794795Y-98581849D01*
X138793736Y-98585607D01*
X138732010Y-98775576D01*
X138730540Y-98784860D01*
X138700000Y-98977682D01*
X112991488Y-98977682D01*
X112956680Y-98937511D01*
X112946736Y-98868353D01*
X112952446Y-98847538D01*
X112952348Y-98847512D01*
X112955612Y-98835330D01*
X112995000Y-98688333D01*
X112995000Y-98531667D01*
X112954452Y-98380339D01*
X112954451Y-98380337D01*
X112952348Y-98372488D01*
X112953905Y-98372070D01*
X112947444Y-98311985D01*
X112978718Y-98249505D01*
X113038806Y-98213852D01*
X113069474Y-98210000D01*
X113935535Y-98210000D01*
X113935535Y-98209999D01*
X113935534Y-98209995D01*
X113894629Y-98084102D01*
X113892284Y-98079262D01*
X113891339Y-98077647D01*
X113862891Y-98021813D01*
X113862890Y-98021811D01*
X113862890Y-98021810D01*
X113812293Y-97922511D01*
X139408197Y-97922511D01*
X139408197Y-97922512D01*
X140000000Y-98514314D01*
X140000001Y-98514314D01*
X140591801Y-97922512D01*
X140591800Y-97922511D01*
X140591801Y-97922511D01*
X140499050Y-97875254D01*
X140499032Y-97875245D01*
X140499029Y-97875244D01*
X140499030Y-97875244D01*
X140499027Y-97875243D01*
X140304417Y-97812009D01*
X140285962Y-97809086D01*
X140102322Y-97780000D01*
X140102317Y-97780000D01*
X139897683Y-97780000D01*
X139854986Y-97786762D01*
X139714039Y-97809086D01*
X139714035Y-97809087D01*
X139695581Y-97812010D01*
X139695578Y-97812010D01*
X139504890Y-97873969D01*
X139504028Y-97874237D01*
X139503819Y-97874240D01*
X139501849Y-97874795D01*
X139408197Y-97922511D01*
X113812293Y-97922511D01*
X113806741Y-97911615D01*
X113796728Y-97891963D01*
X113678598Y-97729373D01*
X113674465Y-97721993D01*
X113517499Y-97565027D01*
X113517497Y-97565025D01*
X113343036Y-97438271D01*
X113150901Y-97340372D01*
X112945809Y-97273733D01*
X112945807Y-97273732D01*
X112945805Y-97273732D01*
X112800000Y-97250638D01*
X112800000Y-97940525D01*
X112780315Y-98007564D01*
X112727511Y-98053319D01*
X112658353Y-98063263D01*
X112637538Y-98057554D01*
X112637512Y-98057652D01*
X112629662Y-98055548D01*
X112629661Y-98055548D01*
X112478333Y-98015000D01*
X112478332Y-98015000D01*
X112321667Y-98015000D01*
X112170339Y-98055548D01*
X112170337Y-98055548D01*
X112162488Y-98057652D01*
X112162071Y-98056097D01*
X112101969Y-98062552D01*
X112039493Y-98031270D01*
X112003848Y-97971177D01*
X112000000Y-97940525D01*
X112000000Y-97250638D01*
X111854193Y-97273732D01*
X111649100Y-97340371D01*
X111456970Y-97438267D01*
X111456957Y-97438275D01*
X111294375Y-97556398D01*
X111286996Y-97560530D01*
X111125530Y-97721996D01*
X111121398Y-97729375D01*
X111012007Y-97879939D01*
X111003271Y-97891963D01*
X111003269Y-97891965D01*
X111003267Y-97891970D01*
X110905367Y-98084108D01*
X110905359Y-98084132D01*
X110864463Y-98209998D01*
X110864463Y-98209999D01*
X110864465Y-98210000D01*
X111730526Y-98210000D01*
X111797565Y-98229685D01*
X111843320Y-98282489D01*
X111853264Y-98351647D01*
X111847553Y-98372461D01*
X111847652Y-98372488D01*
X111845548Y-98380337D01*
X111845548Y-98380339D01*
X111805000Y-98531667D01*
X111805000Y-98688333D01*
X111844384Y-98835318D01*
X111847652Y-98847512D01*
X111846094Y-98847929D01*
X111852556Y-98908015D01*
X111821282Y-98970495D01*
X111761194Y-99006148D01*
X111730526Y-99010000D01*
X110864464Y-99010000D01*
X110905360Y-99135870D01*
X110905367Y-99135889D01*
X110905367Y-99135890D01*
X110905368Y-99135893D01*
X110905369Y-99135894D01*
X110905370Y-99135897D01*
X110946793Y-99217193D01*
X110983001Y-99288255D01*
X110991052Y-99311879D01*
X110994385Y-99321659D01*
X110997271Y-99337024D01*
X110990300Y-99406546D01*
X110990292Y-99406566D01*
X110988963Y-99409839D01*
X110955068Y-99457081D01*
X110951479Y-99460177D01*
X110932485Y-99473671D01*
X110728573Y-99591400D01*
X110728561Y-99591408D01*
X110728559Y-99591409D01*
X110534051Y-99740663D01*
X110534041Y-99740672D01*
X110360672Y-99914041D01*
X110360663Y-99914051D01*
X110211408Y-100108561D01*
X110211398Y-100108576D01*
X110088802Y-100320918D01*
X110088798Y-100320926D01*
X109994970Y-100547445D01*
X109994967Y-100547455D01*
X109954495Y-100698503D01*
X109931506Y-100784299D01*
X109931504Y-100784310D01*
X109899672Y-101026090D01*
X109899500Y-101027393D01*
X109899500Y-101272606D01*
X109913902Y-101381995D01*
X109931505Y-101515699D01*
X109958922Y-101618020D01*
X109994967Y-101752544D01*
X109994968Y-101752547D01*
X109994970Y-101752553D01*
X110086863Y-101974400D01*
X110088797Y-101979069D01*
X110088801Y-101979078D01*
X110110126Y-102016014D01*
X110211399Y-102191424D01*
X110211402Y-102191428D01*
X110211406Y-102191434D01*
X110339924Y-102358920D01*
X110360667Y-102385952D01*
X110360670Y-102385956D01*
X110536917Y-102562203D01*
X110536544Y-102562575D01*
X110550077Y-102577371D01*
X110560278Y-102591341D01*
X110583915Y-102657091D01*
X110583917Y-102657108D01*
X110584279Y-102663198D01*
X110575948Y-102715800D01*
X110575890Y-102715948D01*
X110567827Y-102732703D01*
X110493799Y-102860925D01*
X110493761Y-102861003D01*
X110493515Y-102861609D01*
X110399968Y-103087452D01*
X110399967Y-103087455D01*
X110367505Y-103208606D01*
X110367505Y-103208607D01*
X110367504Y-103208606D01*
X110347886Y-103281828D01*
X110342883Y-103300500D01*
X110336505Y-103324302D01*
X110304500Y-103567393D01*
X110304500Y-103812606D01*
X110326919Y-103982887D01*
X110336505Y-104055699D01*
X110336507Y-104055705D01*
X110353223Y-104118092D01*
X110399966Y-104292542D01*
X110484883Y-104497547D01*
X110484883Y-104497549D01*
X110493795Y-104519065D01*
X110493803Y-104519082D01*
X110616394Y-104731416D01*
X110616399Y-104731424D01*
X110616402Y-104731428D01*
X110616406Y-104731434D01*
X110707822Y-104850568D01*
X110765667Y-104925952D01*
X110765670Y-104925956D01*
X110939030Y-105099317D01*
X110939037Y-105099324D01*
X110939042Y-105099328D01*
X110939047Y-105099332D01*
X110939048Y-105099333D01*
X110997930Y-105144515D01*
X111133565Y-105248593D01*
X111133568Y-105248595D01*
X111133576Y-105248601D01*
X111345924Y-105371200D01*
X111345929Y-105371202D01*
X111345935Y-105371205D01*
X111496945Y-105433755D01*
X111553039Y-105456989D01*
X111572455Y-105465032D01*
X111572456Y-105465032D01*
X111572458Y-105465033D01*
X111572460Y-105465033D01*
X111573207Y-105465343D01*
X111576358Y-105466078D01*
X111809301Y-105528495D01*
X112052401Y-105560500D01*
X112052408Y-105560500D01*
X112747592Y-105560500D01*
X112747599Y-105560500D01*
X112990699Y-105528495D01*
X113227542Y-105465033D01*
X113454076Y-105371200D01*
X113666424Y-105248601D01*
X113860952Y-105099333D01*
X113860956Y-105099328D01*
X113860961Y-105099325D01*
X113942253Y-105018033D01*
X114029484Y-104930803D01*
X114030260Y-104930107D01*
X114033809Y-104926486D01*
X114034305Y-104925984D01*
X114034315Y-104925970D01*
X114034325Y-104925961D01*
X114034328Y-104925956D01*
X114034333Y-104925952D01*
X114034479Y-104925761D01*
X114034669Y-104925519D01*
X114034685Y-104925498D01*
X114038133Y-104921082D01*
X114038625Y-104920357D01*
X114183601Y-104731424D01*
X114306200Y-104519076D01*
X114400033Y-104292542D01*
X114463495Y-104055699D01*
X114495500Y-103812599D01*
X114495500Y-103567401D01*
X114463495Y-103324301D01*
X114400033Y-103087458D01*
X114333269Y-102926276D01*
X114325801Y-102856809D01*
X114357076Y-102794329D01*
X114417165Y-102758677D01*
X114420660Y-102757838D01*
X114886048Y-102653502D01*
X114913174Y-102650500D01*
X116459281Y-102650500D01*
X116494213Y-102655521D01*
X116519457Y-102662934D01*
X116572203Y-102694230D01*
X117486682Y-103608709D01*
X117501416Y-103626481D01*
X117628461Y-103812599D01*
X118149557Y-104575992D01*
X118177915Y-104617535D01*
X118199452Y-104684003D01*
X118199500Y-104687444D01*
X118199500Y-104818004D01*
X118199501Y-104818020D01*
X118225832Y-105018033D01*
X118225833Y-105018036D01*
X118230306Y-105052012D01*
X118253191Y-105137418D01*
X118291395Y-105279997D01*
X118381715Y-105498048D01*
X118381719Y-105498056D01*
X118433943Y-105588510D01*
X118437230Y-105594202D01*
X118499727Y-105702450D01*
X118499729Y-105702453D01*
X118499730Y-105702454D01*
X118505543Y-105710030D01*
X118505544Y-105710031D01*
X118643399Y-105889689D01*
X118643403Y-105889694D01*
X118643406Y-105889697D01*
X118643412Y-105889704D01*
X118643420Y-105889712D01*
X118810281Y-106056574D01*
X118810297Y-106056589D01*
X118810305Y-106056595D01*
X118997548Y-106200272D01*
X118997550Y-106200273D01*
X119128918Y-106276118D01*
X119198516Y-106316301D01*
X119200255Y-106317382D01*
X119201660Y-106318162D01*
X119201938Y-106318277D01*
X119201943Y-106318280D01*
X119201948Y-106318282D01*
X119201951Y-106318284D01*
X119420007Y-106408606D01*
X119647986Y-106469693D01*
X119881989Y-106500500D01*
X119881996Y-106500500D01*
X120118004Y-106500500D01*
X120118011Y-106500500D01*
X120352014Y-106469693D01*
X120579993Y-106408606D01*
X120798049Y-106318284D01*
X121002450Y-106200273D01*
X121189699Y-106056592D01*
X121356592Y-105889699D01*
X121500273Y-105702450D01*
X121529311Y-105652152D01*
X121551121Y-105624420D01*
X121559310Y-105616612D01*
X121621412Y-105584600D01*
X121690965Y-105591244D01*
X121745880Y-105634429D01*
X121753520Y-105645157D01*
X121765414Y-105665807D01*
X121857987Y-105869614D01*
X121857995Y-105869630D01*
X121857999Y-105869636D01*
X121986159Y-106054625D01*
X121986182Y-106054655D01*
X121986185Y-106054659D01*
X122145005Y-106213479D01*
X122145008Y-106213481D01*
X122145346Y-106213819D01*
X122145350Y-106213822D01*
X122145354Y-106213825D01*
X122266935Y-106298056D01*
X122330374Y-106342007D01*
X122535317Y-106435096D01*
X122535321Y-106435097D01*
X122535323Y-106435097D01*
X122535397Y-106435123D01*
X122535532Y-106435150D01*
X122667777Y-106468473D01*
X122751716Y-106489625D01*
X122753356Y-106490065D01*
X122753568Y-106490091D01*
X122753579Y-106490094D01*
X122753581Y-106490094D01*
X122753588Y-106490096D01*
X122753636Y-106490099D01*
X122755847Y-106490374D01*
X122758406Y-106490475D01*
X122885783Y-106500500D01*
X124114216Y-106500499D01*
X124246412Y-106490096D01*
X124464683Y-106435096D01*
X124669626Y-106342007D01*
X124854654Y-106213819D01*
X125013819Y-106054654D01*
X125142007Y-105869626D01*
X125235096Y-105664683D01*
X125248500Y-105611483D01*
X125261902Y-105578844D01*
X125269841Y-105565370D01*
X125320828Y-105517608D01*
X125324732Y-105515639D01*
X125328422Y-105513779D01*
X125384250Y-105500500D01*
X152958096Y-105500500D01*
X152958097Y-105500500D01*
X153191368Y-105463553D01*
X153244122Y-105446412D01*
X153415992Y-105390568D01*
X153626434Y-105283343D01*
X153817510Y-105144517D01*
X154948717Y-104013308D01*
X154966478Y-103998583D01*
X155957534Y-103322084D01*
X156024002Y-103300548D01*
X156027443Y-103300500D01*
X156158004Y-103300500D01*
X156158011Y-103300500D01*
X156392014Y-103269693D01*
X156619993Y-103208606D01*
X156838049Y-103118284D01*
X157042450Y-103000273D01*
X157229699Y-102856592D01*
X157396592Y-102689699D01*
X157540273Y-102502450D01*
X157658284Y-102298049D01*
X157748606Y-102079993D01*
X157751110Y-102070647D01*
X157760201Y-102055730D01*
X157765007Y-102038194D01*
X157768189Y-102032973D01*
X157781372Y-102020991D01*
X157787470Y-102010987D01*
X157798018Y-102005861D01*
X157819891Y-101985982D01*
X157849009Y-101981087D01*
X157850315Y-101980453D01*
X157851716Y-101980226D01*
X157856330Y-101979504D01*
X157857509Y-101979658D01*
X157888794Y-101974400D01*
X157920289Y-101987889D01*
X157925606Y-101988587D01*
X157929398Y-101991791D01*
X157953020Y-102001909D01*
X157968581Y-102024900D01*
X157978975Y-102033683D01*
X157982672Y-102045719D01*
X157992173Y-102059757D01*
X157993609Y-102064248D01*
X157999022Y-102098949D01*
X157999490Y-102100473D01*
X157999342Y-102101000D01*
X157999500Y-102102013D01*
X157999500Y-103683645D01*
X157991749Y-103726799D01*
X157931321Y-103889580D01*
X157889536Y-103945578D01*
X157877073Y-103953813D01*
X157797556Y-103999722D01*
X157797544Y-103999731D01*
X157797530Y-103999741D01*
X157610309Y-104143399D01*
X157610294Y-104143413D01*
X157610293Y-104143414D01*
X157443420Y-104310286D01*
X157443413Y-104310294D01*
X157443399Y-104310309D01*
X157299736Y-104497536D01*
X157299730Y-104497545D01*
X157181719Y-104701942D01*
X157181715Y-104701950D01*
X157091395Y-104920001D01*
X157030305Y-105147992D01*
X156999503Y-105381963D01*
X156999500Y-105381987D01*
X156999500Y-105618011D01*
X156999503Y-105618035D01*
X157030305Y-105852006D01*
X157091395Y-106079997D01*
X157181715Y-106298048D01*
X157181719Y-106298056D01*
X157245202Y-106408012D01*
X157245246Y-106408086D01*
X157245546Y-106408606D01*
X157299727Y-106502450D01*
X157299729Y-106502453D01*
X157299730Y-106502454D01*
X157305496Y-106509968D01*
X157305497Y-106509970D01*
X157443399Y-106689689D01*
X157443403Y-106689694D01*
X157443406Y-106689697D01*
X157443412Y-106689704D01*
X157443420Y-106689712D01*
X157610281Y-106856574D01*
X157610297Y-106856589D01*
X157610305Y-106856595D01*
X157797548Y-107000272D01*
X157797550Y-107000273D01*
X157928918Y-107076118D01*
X157998516Y-107116301D01*
X158000255Y-107117382D01*
X158001660Y-107118162D01*
X158001938Y-107118277D01*
X158001943Y-107118280D01*
X158001948Y-107118282D01*
X158001951Y-107118284D01*
X158220007Y-107208606D01*
X158447986Y-107269693D01*
X158681989Y-107300500D01*
X158681996Y-107300500D01*
X160318004Y-107300500D01*
X160318010Y-107300500D01*
X160318011Y-107300500D01*
X160420175Y-107287049D01*
X160477171Y-107281828D01*
X160513119Y-107274813D01*
X160549071Y-107270080D01*
X160552007Y-107269694D01*
X160552007Y-107269693D01*
X160552014Y-107269693D01*
X160581778Y-107261717D01*
X160590102Y-107259791D01*
X161907189Y-107002794D01*
X161930937Y-107000500D01*
X175118096Y-107000500D01*
X175118097Y-107000500D01*
X175351368Y-106963553D01*
X175575992Y-106890568D01*
X175786434Y-106783343D01*
X175977510Y-106644517D01*
X177644517Y-104977510D01*
X177783343Y-104786434D01*
X177890568Y-104575992D01*
X177934696Y-104440180D01*
X177963553Y-104351368D01*
X177996490Y-104143412D01*
X178000500Y-104118097D01*
X178000500Y-102954726D01*
X178005522Y-102919793D01*
X178009433Y-102906474D01*
X178047206Y-102847697D01*
X178110758Y-102818672D01*
X178115955Y-102817925D01*
X178181047Y-102826103D01*
X178355581Y-102898398D01*
X178608884Y-102966270D01*
X178844734Y-102997321D01*
X178868864Y-103000498D01*
X178868880Y-103000500D01*
X178868887Y-103000500D01*
X178871019Y-103000500D01*
X178876868Y-103001209D01*
X178881598Y-103003243D01*
X178908109Y-103009220D01*
X179684508Y-103320647D01*
X179726026Y-103348053D01*
X180982490Y-104604517D01*
X181173566Y-104743343D01*
X181384008Y-104850568D01*
X181608631Y-104923553D01*
X181608634Y-104923553D01*
X181608635Y-104923554D01*
X181696108Y-104937408D01*
X181696109Y-104937408D01*
X181841903Y-104960500D01*
X181841908Y-104960500D01*
X186223361Y-104960500D01*
X186235950Y-104963471D01*
X186245323Y-104962460D01*
X186278815Y-104973591D01*
X186445263Y-105056815D01*
X186496422Y-105104402D01*
X186509025Y-105133612D01*
X186510113Y-105137413D01*
X186510113Y-105137415D01*
X186551868Y-105283343D01*
X186566090Y-105333048D01*
X186566284Y-105333629D01*
X186567201Y-105335209D01*
X186567669Y-105336070D01*
X186660302Y-105513407D01*
X186660304Y-105513409D01*
X186671594Y-105527255D01*
X186671595Y-105527257D01*
X186788887Y-105671106D01*
X186788888Y-105671107D01*
X186788890Y-105671109D01*
X186882803Y-105747684D01*
X186946593Y-105799698D01*
X187126951Y-105893909D01*
X187322582Y-105949886D01*
X187441963Y-105960500D01*
X190558036Y-105960499D01*
X190677418Y-105949886D01*
X190873049Y-105893909D01*
X191053407Y-105799698D01*
X191211109Y-105671109D01*
X191339698Y-105513407D01*
X191433909Y-105333049D01*
X191489886Y-105137418D01*
X191500500Y-105018037D01*
X191500499Y-101901964D01*
X191489886Y-101782582D01*
X191433909Y-101586951D01*
X191339698Y-101406593D01*
X191287684Y-101342803D01*
X191211109Y-101248890D01*
X191211107Y-101248888D01*
X191211106Y-101248887D01*
X191117807Y-101172813D01*
X191105704Y-101155167D01*
X191053404Y-101120300D01*
X190886933Y-101033343D01*
X190886931Y-101033342D01*
X190873049Y-101026091D01*
X190873048Y-101026090D01*
X190873045Y-101026089D01*
X190755829Y-100992550D01*
X190754492Y-100992167D01*
X190754481Y-100992164D01*
X190679981Y-100970847D01*
X190677825Y-100970179D01*
X190675347Y-100969777D01*
X190671936Y-100969626D01*
X190631076Y-100965993D01*
X190611102Y-100964217D01*
X190611101Y-100964216D01*
X190558039Y-100959500D01*
X190558037Y-100959500D01*
X190558032Y-100959500D01*
X187441971Y-100959500D01*
X187441965Y-100959500D01*
X187429897Y-100959500D01*
X187423042Y-100961182D01*
X187322582Y-100970113D01*
X187126952Y-101026089D01*
X187045907Y-101068424D01*
X187045905Y-101068426D01*
X186947557Y-101119798D01*
X186946646Y-101120263D01*
X186944242Y-101121996D01*
X186941716Y-101124278D01*
X186788887Y-101248892D01*
X186660306Y-101406586D01*
X186566088Y-101586955D01*
X186510848Y-101780016D01*
X186510633Y-101780758D01*
X186508760Y-101787153D01*
X186508407Y-101787702D01*
X186507834Y-101789424D01*
X186507396Y-101789278D01*
X186492442Y-101812581D01*
X186478200Y-101839213D01*
X186472860Y-101843096D01*
X186471026Y-101845956D01*
X186465377Y-101848540D01*
X186445215Y-101863207D01*
X186278817Y-101946408D01*
X186223361Y-101959500D01*
X182650719Y-101959500D01*
X182615783Y-101954477D01*
X182590541Y-101947065D01*
X182537796Y-101915769D01*
X181794400Y-101172373D01*
X181774727Y-101146750D01*
X181696774Y-101011900D01*
X181002380Y-99810677D01*
X180986797Y-99764808D01*
X180966270Y-99608884D01*
X180898398Y-99355581D01*
X180885982Y-99325607D01*
X180879725Y-99310500D01*
X180862734Y-99269480D01*
X180798046Y-99113309D01*
X180798041Y-99113299D01*
X180797479Y-99112325D01*
X180666924Y-98886195D01*
X180529902Y-98707628D01*
X180529619Y-98707259D01*
X180507282Y-98678149D01*
X180507281Y-98678148D01*
X180507274Y-98678140D01*
X180506073Y-98676939D01*
X180506070Y-98676935D01*
X180321855Y-98492721D01*
X180321851Y-98492718D01*
X180113803Y-98333074D01*
X179886717Y-98201967D01*
X179886693Y-98201954D01*
X179648474Y-98103281D01*
X179648467Y-98103278D01*
X179644425Y-98101603D01*
X179452931Y-98050293D01*
X179391116Y-98033730D01*
X179333339Y-98026123D01*
X179210165Y-98009906D01*
X179131128Y-97999500D01*
X179131127Y-97999500D01*
X179131120Y-97999500D01*
X178868880Y-97999500D01*
X178868872Y-97999500D01*
X178868864Y-97999500D01*
X178637773Y-98029925D01*
X178637772Y-98029926D01*
X178608892Y-98033729D01*
X178608884Y-98033730D01*
X178420892Y-98084102D01*
X178355584Y-98101600D01*
X178355561Y-98101608D01*
X178188422Y-98170841D01*
X178188419Y-98170841D01*
X178188419Y-98170842D01*
X178154224Y-98179569D01*
X178140423Y-98181052D01*
X178071665Y-98168646D01*
X178020529Y-98121034D01*
X178017847Y-98116514D01*
X178000500Y-98053258D01*
X178000500Y-93162575D01*
X178004727Y-93130474D01*
X178058541Y-92929688D01*
X178364090Y-91789640D01*
X178376469Y-91759754D01*
X179070481Y-90557519D01*
X179090184Y-90531840D01*
X182926892Y-86695133D01*
X182988213Y-86661650D01*
X183041697Y-86661819D01*
X183891424Y-86852323D01*
X183929591Y-86858984D01*
X183940351Y-86861359D01*
X184004301Y-86878495D01*
X184247401Y-86910500D01*
X184247408Y-86910500D01*
X185752592Y-86910500D01*
X185752599Y-86910500D01*
X185995699Y-86878495D01*
X186232542Y-86815033D01*
X186459076Y-86721200D01*
X186671424Y-86598601D01*
X186865952Y-86449333D01*
X186865956Y-86449328D01*
X186865961Y-86449325D01*
X186934971Y-86380315D01*
X187034484Y-86280803D01*
X187035260Y-86280107D01*
X187038809Y-86276486D01*
X187039305Y-86275984D01*
X187039315Y-86275970D01*
X187039325Y-86275961D01*
X187039328Y-86275956D01*
X187039333Y-86275952D01*
X187039479Y-86275761D01*
X187039669Y-86275519D01*
X187039685Y-86275498D01*
X187043133Y-86271082D01*
X187043625Y-86270357D01*
X187173267Y-86101407D01*
X187188595Y-86081432D01*
X187188595Y-86081431D01*
X187188601Y-86081424D01*
X187311200Y-85869076D01*
X187405033Y-85642542D01*
X187468495Y-85405699D01*
X187500500Y-85162599D01*
X187500500Y-84917401D01*
X187468495Y-84674301D01*
X187405033Y-84437458D01*
X187311200Y-84210924D01*
X187188601Y-83998576D01*
X187167080Y-83970530D01*
X187073264Y-83848267D01*
X187039333Y-83804048D01*
X187039332Y-83804047D01*
X187039325Y-83804039D01*
X187039317Y-83804031D01*
X187039310Y-83804023D01*
X186865959Y-83630673D01*
X186865957Y-83630671D01*
X186865952Y-83630667D01*
X186731596Y-83527571D01*
X186706945Y-83502327D01*
X186697723Y-83489697D01*
X186674089Y-83423953D01*
X186673929Y-83421268D01*
X186684858Y-83362519D01*
X186687444Y-83356838D01*
X186699974Y-83335344D01*
X186811859Y-83181349D01*
X186904755Y-82999029D01*
X186936933Y-82900000D01*
X185669474Y-82900000D01*
X185602435Y-82880315D01*
X185556680Y-82827511D01*
X185546736Y-82758353D01*
X185552446Y-82737538D01*
X185552348Y-82737512D01*
X185563637Y-82695381D01*
X185595000Y-82578333D01*
X185595000Y-82421667D01*
X185554452Y-82270339D01*
X185554451Y-82270337D01*
X185552348Y-82262488D01*
X185553905Y-82262070D01*
X185547444Y-82201985D01*
X185578718Y-82139505D01*
X185638806Y-82103852D01*
X185669474Y-82100000D01*
X186936933Y-82100000D01*
X186940219Y-82092064D01*
X186927733Y-82071689D01*
X186904755Y-82000970D01*
X186904753Y-82000967D01*
X186904753Y-82000965D01*
X186872704Y-81938066D01*
X186828769Y-81851838D01*
X186817387Y-81818436D01*
X186814501Y-81803069D01*
X186815951Y-81788611D01*
X186821471Y-81733554D01*
X186822710Y-81730502D01*
X186856985Y-81682924D01*
X186865416Y-81675710D01*
X186865415Y-81675709D01*
X186865440Y-81675689D01*
X186875432Y-81667984D01*
X187053781Y-81544422D01*
X187054573Y-81543884D01*
X187054648Y-81543822D01*
X187054654Y-81543819D01*
X187213819Y-81384654D01*
X187342007Y-81199626D01*
X187435096Y-80994683D01*
X187490096Y-80776412D01*
X187500500Y-80644217D01*
X187500499Y-79275784D01*
X187490096Y-79143588D01*
X187481044Y-79107666D01*
X187435097Y-78925321D01*
X187435096Y-78925318D01*
X187430491Y-78915180D01*
X187430487Y-78915172D01*
X187342008Y-78720376D01*
X187342003Y-78720367D01*
X187284535Y-78637418D01*
X187284535Y-78637417D01*
X187284061Y-78636734D01*
X187213825Y-78535354D01*
X187213822Y-78535350D01*
X187213819Y-78535346D01*
X187213484Y-78535011D01*
X187213482Y-78535008D01*
X187055272Y-78376798D01*
X187055268Y-78376795D01*
X187054654Y-78376181D01*
X187054650Y-78376178D01*
X187054645Y-78376174D01*
X186870560Y-78248640D01*
X186869691Y-78248025D01*
X186869634Y-78247997D01*
X186869630Y-78247995D01*
X186869626Y-78247993D01*
X186841681Y-78235300D01*
X186823431Y-78227010D01*
X186664689Y-78154906D01*
X186664683Y-78154904D01*
X186664681Y-78154903D01*
X186664678Y-78154902D01*
X186664673Y-78154900D01*
X186664668Y-78154899D01*
X186446429Y-78099906D01*
X186446418Y-78099904D01*
X186446415Y-78099904D01*
X186314227Y-78089500D01*
X186314222Y-78089500D01*
X186314217Y-78089500D01*
X185702590Y-78089500D01*
X185635551Y-78069815D01*
X185635063Y-78069501D01*
X184495378Y-77329516D01*
X184475224Y-77313196D01*
X183012465Y-75850437D01*
X181903992Y-74741964D01*
X180690737Y-73528710D01*
X188049500Y-73528710D01*
X188049500Y-73771288D01*
X188078499Y-73991571D01*
X188081161Y-74011785D01*
X188143947Y-74246104D01*
X188218857Y-74426951D01*
X188218859Y-74426955D01*
X188236776Y-74470213D01*
X188236777Y-74470215D01*
X188358060Y-74680283D01*
X188358062Y-74680286D01*
X188358281Y-74680615D01*
X188359284Y-74681879D01*
X188505726Y-74872728D01*
X188505730Y-74872733D01*
X188505733Y-74872736D01*
X188505739Y-74872743D01*
X188677256Y-75044260D01*
X188677263Y-75044266D01*
X188687982Y-75052491D01*
X188690801Y-75054654D01*
X188869709Y-75191935D01*
X189079784Y-75313222D01*
X189079785Y-75313222D01*
X189079788Y-75313224D01*
X189303900Y-75406054D01*
X189538211Y-75468838D01*
X189718586Y-75492584D01*
X189778710Y-75500500D01*
X189778711Y-75500500D01*
X189778712Y-75500500D01*
X190021283Y-75500500D01*
X190021289Y-75500500D01*
X190069388Y-75494167D01*
X190261789Y-75468838D01*
X190496100Y-75406054D01*
X190720212Y-75313224D01*
X190930289Y-75191936D01*
X191122738Y-75044265D01*
X191294265Y-74872738D01*
X191441936Y-74680289D01*
X191563224Y-74470212D01*
X191656054Y-74246100D01*
X191718838Y-74011789D01*
X191750500Y-73771288D01*
X191750500Y-73528712D01*
X191750393Y-73527903D01*
X191742584Y-73468586D01*
X191718838Y-73288211D01*
X191656054Y-73053900D01*
X191563224Y-72829788D01*
X191441936Y-72619711D01*
X191294265Y-72427262D01*
X191294260Y-72427256D01*
X191294259Y-72427255D01*
X191294247Y-72427242D01*
X191122751Y-72255747D01*
X191122743Y-72255739D01*
X191122736Y-72255733D01*
X191122733Y-72255730D01*
X191122728Y-72255726D01*
X190937309Y-72113450D01*
X190931878Y-72109283D01*
X190930615Y-72108281D01*
X190930286Y-72108062D01*
X190930283Y-72108060D01*
X190720222Y-71986781D01*
X190720208Y-71986774D01*
X190703407Y-71979815D01*
X190496104Y-71893947D01*
X190261781Y-71831160D01*
X190021290Y-71799500D01*
X190021289Y-71799500D01*
X190021288Y-71799500D01*
X189778712Y-71799500D01*
X189778711Y-71799500D01*
X189778710Y-71799500D01*
X189538217Y-71831160D01*
X189303894Y-71893947D01*
X189079790Y-71986774D01*
X189079782Y-71986778D01*
X188869706Y-72108067D01*
X188869697Y-72108073D01*
X188677270Y-72255726D01*
X188677255Y-72255740D01*
X188677247Y-72255747D01*
X188505747Y-72427247D01*
X188505740Y-72427255D01*
X188505726Y-72427270D01*
X188358073Y-72619697D01*
X188358067Y-72619706D01*
X188236778Y-72829782D01*
X188236774Y-72829790D01*
X188143947Y-73053894D01*
X188081160Y-73288217D01*
X188049500Y-73528710D01*
X180690737Y-73528710D01*
X179517510Y-72355483D01*
X179326434Y-72216657D01*
X179116000Y-72109434D01*
X179043164Y-72085768D01*
X178891368Y-72036446D01*
X178891364Y-72036445D01*
X178891363Y-72036445D01*
X178761456Y-72015869D01*
X178733163Y-72007858D01*
X177740237Y-71594140D01*
X177740232Y-71594138D01*
X177740220Y-71594133D01*
X177710905Y-71582455D01*
X177710902Y-71582454D01*
X177710899Y-71582453D01*
X177710889Y-71582450D01*
X177702241Y-71580130D01*
X177683091Y-71573265D01*
X177666780Y-71565856D01*
X177665446Y-71565220D01*
X177664682Y-71564903D01*
X177664668Y-71564899D01*
X177446429Y-71509906D01*
X177446418Y-71509904D01*
X177446415Y-71509904D01*
X177314227Y-71499500D01*
X177314222Y-71499500D01*
X177314217Y-71499500D01*
X177227874Y-71499500D01*
X177165443Y-71482637D01*
X175835451Y-70707630D01*
X175810201Y-70688174D01*
X175498434Y-70376407D01*
X175477285Y-70348157D01*
X175471863Y-70338227D01*
X175457010Y-70269957D01*
X175481424Y-70204492D01*
X175537354Y-70162620D01*
X175541233Y-70161173D01*
X175544569Y-70159930D01*
X175587883Y-70152119D01*
X193224026Y-70152119D01*
X193258962Y-70157142D01*
X193273960Y-70161546D01*
X193288950Y-70171176D01*
X193306031Y-70176186D01*
X193332711Y-70199291D01*
X193333898Y-70200660D01*
X193361374Y-70255521D01*
X193363019Y-70263079D01*
X193365856Y-70289450D01*
X193365856Y-114009289D01*
X193360831Y-114044233D01*
X193356426Y-114059231D01*
X193346795Y-114074220D01*
X193341788Y-114091294D01*
X193318683Y-114117974D01*
X193317314Y-114119161D01*
X193262453Y-114146637D01*
X193254895Y-114148282D01*
X193228524Y-114151119D01*
X99508686Y-114151119D01*
X99473745Y-114146094D01*
X99458746Y-114141689D01*
X99443758Y-114132059D01*
X99426680Y-114127051D01*
X99400000Y-114103946D01*
X99398813Y-114102577D01*
X99371333Y-114047702D01*
X99369688Y-114040140D01*
X99366856Y-114013787D01*
X99366856Y-109878710D01*
X111149500Y-109878710D01*
X111149500Y-110121288D01*
X111179030Y-110345604D01*
X111179031Y-110345604D01*
X111179031Y-110345606D01*
X111181162Y-110361789D01*
X111192027Y-110402339D01*
X111204085Y-110447339D01*
X111243947Y-110596104D01*
X111336670Y-110819957D01*
X111336776Y-110820213D01*
X111458060Y-111030283D01*
X111458062Y-111030286D01*
X111458281Y-111030615D01*
X111459284Y-111031879D01*
X111605726Y-111222728D01*
X111605730Y-111222733D01*
X111605733Y-111222736D01*
X111605739Y-111222743D01*
X111605747Y-111222751D01*
X111777242Y-111394247D01*
X111777256Y-111394260D01*
X111777262Y-111394265D01*
X111969711Y-111541936D01*
X112179788Y-111663224D01*
X112403900Y-111756054D01*
X112638211Y-111818838D01*
X112818586Y-111842584D01*
X112878710Y-111850500D01*
X112878711Y-111850500D01*
X112878712Y-111850500D01*
X113121283Y-111850500D01*
X113121289Y-111850500D01*
X113169388Y-111844167D01*
X113361789Y-111818838D01*
X113596100Y-111756054D01*
X113820212Y-111663224D01*
X113830154Y-111657484D01*
X158908197Y-111657484D01*
X158908198Y-111657484D01*
X158908198Y-111657485D01*
X159000968Y-111704755D01*
X159195582Y-111767990D01*
X159397683Y-111800000D01*
X159602316Y-111800000D01*
X159602317Y-111800000D01*
X159804417Y-111767990D01*
X159999031Y-111704755D01*
X160091801Y-111657485D01*
X160091800Y-111657484D01*
X160091801Y-111657484D01*
X159568644Y-111134328D01*
X159500001Y-111065685D01*
X159500000Y-111065685D01*
X159431357Y-111134328D01*
X159431355Y-111134328D01*
X158908197Y-111657484D01*
X113830154Y-111657484D01*
X114030289Y-111541936D01*
X114222738Y-111394265D01*
X114394265Y-111222738D01*
X114541936Y-111030289D01*
X114663224Y-110820212D01*
X114756054Y-110596100D01*
X114809220Y-110397682D01*
X158200000Y-110397682D01*
X158200000Y-110402339D01*
X158200000Y-110602322D01*
X158232008Y-110804411D01*
X158232009Y-110804417D01*
X158295243Y-110999027D01*
X158295244Y-110999029D01*
X158295245Y-110999032D01*
X158295254Y-110999050D01*
X158342511Y-111091801D01*
X158342511Y-111091800D01*
X158342512Y-111091801D01*
X158934314Y-110500000D01*
X158934314Y-110499999D01*
X158881654Y-110447339D01*
X159100000Y-110447339D01*
X159100000Y-110552661D01*
X159113670Y-110603678D01*
X159127259Y-110654395D01*
X159127260Y-110654396D01*
X159179917Y-110745602D01*
X159179919Y-110745605D01*
X159179920Y-110745606D01*
X159254394Y-110820080D01*
X159254395Y-110820081D01*
X159254397Y-110820082D01*
X159254624Y-110820213D01*
X159345606Y-110872741D01*
X159447339Y-110900000D01*
X159552661Y-110900000D01*
X159654394Y-110872741D01*
X159745606Y-110820080D01*
X159820080Y-110745606D01*
X159872741Y-110654394D01*
X159900000Y-110552661D01*
X159900000Y-110499999D01*
X160065685Y-110499999D01*
X160065685Y-110500000D01*
X160134328Y-110568643D01*
X160134328Y-110568644D01*
X160657484Y-111091800D01*
X160657485Y-111091800D01*
X160704755Y-110999031D01*
X160767990Y-110804417D01*
X160800000Y-110602317D01*
X160800000Y-110397682D01*
X160767990Y-110195582D01*
X160704754Y-110000965D01*
X160704752Y-110000962D01*
X160704752Y-110000960D01*
X160669078Y-109930947D01*
X160657485Y-109908196D01*
X160134328Y-110431354D01*
X160134328Y-110431355D01*
X160065685Y-110499999D01*
X159900000Y-110499999D01*
X159900000Y-110447339D01*
X159872741Y-110345606D01*
X159820080Y-110254394D01*
X159745606Y-110179920D01*
X159745605Y-110179919D01*
X159745602Y-110179917D01*
X159654396Y-110127260D01*
X159654395Y-110127259D01*
X159623649Y-110119021D01*
X159552661Y-110100000D01*
X159447339Y-110100000D01*
X159396321Y-110113670D01*
X159396318Y-110113670D01*
X159345610Y-110127257D01*
X159345603Y-110127260D01*
X159254397Y-110179917D01*
X159254392Y-110179921D01*
X159179921Y-110254392D01*
X159179917Y-110254397D01*
X159127260Y-110345603D01*
X159127260Y-110345604D01*
X159113670Y-110396319D01*
X159113670Y-110396321D01*
X159100000Y-110447339D01*
X158881654Y-110447339D01*
X158342512Y-109908197D01*
X158342511Y-109908196D01*
X158294795Y-110001849D01*
X158293736Y-110005607D01*
X158232010Y-110195576D01*
X158230540Y-110204860D01*
X158200000Y-110397682D01*
X114809220Y-110397682D01*
X114818838Y-110361789D01*
X114850500Y-110121288D01*
X114850500Y-109878712D01*
X114818838Y-109638211D01*
X114759728Y-109417611D01*
X114759728Y-109417609D01*
X114756054Y-109403900D01*
X114730626Y-109342511D01*
X158908197Y-109342511D01*
X158908197Y-109342512D01*
X159500000Y-109934314D01*
X159500001Y-109934314D01*
X159555605Y-109878710D01*
X177649500Y-109878710D01*
X177649500Y-110121288D01*
X177679030Y-110345604D01*
X177679031Y-110345604D01*
X177679031Y-110345606D01*
X177681162Y-110361789D01*
X177692027Y-110402339D01*
X177704085Y-110447339D01*
X177743947Y-110596104D01*
X177836670Y-110819957D01*
X177836776Y-110820213D01*
X177958060Y-111030283D01*
X177958062Y-111030286D01*
X177958281Y-111030615D01*
X177959284Y-111031879D01*
X178105726Y-111222728D01*
X178105730Y-111222733D01*
X178105733Y-111222736D01*
X178105739Y-111222743D01*
X178105747Y-111222751D01*
X178277242Y-111394247D01*
X178277256Y-111394260D01*
X178277262Y-111394265D01*
X178469711Y-111541936D01*
X178679788Y-111663224D01*
X178903900Y-111756054D01*
X179138211Y-111818838D01*
X179318586Y-111842584D01*
X179378710Y-111850500D01*
X179378711Y-111850500D01*
X179378712Y-111850500D01*
X179621283Y-111850500D01*
X179621289Y-111850500D01*
X179669388Y-111844167D01*
X179861789Y-111818838D01*
X180096100Y-111756054D01*
X180320212Y-111663224D01*
X180530289Y-111541936D01*
X180722738Y-111394265D01*
X180894265Y-111222738D01*
X181041936Y-111030289D01*
X181163224Y-110820212D01*
X181256054Y-110596100D01*
X181318838Y-110361789D01*
X181350500Y-110121288D01*
X181350500Y-109878712D01*
X181318838Y-109638211D01*
X181256054Y-109403900D01*
X181163224Y-109179788D01*
X181041936Y-108969711D01*
X180894265Y-108777262D01*
X180894260Y-108777256D01*
X180894259Y-108777255D01*
X180894247Y-108777242D01*
X180722751Y-108605747D01*
X180722743Y-108605739D01*
X180722736Y-108605733D01*
X180722733Y-108605730D01*
X180722728Y-108605726D01*
X180589151Y-108503230D01*
X180589139Y-108503221D01*
X180531879Y-108459284D01*
X180530615Y-108458281D01*
X180530286Y-108458062D01*
X180530283Y-108458060D01*
X180445143Y-108408904D01*
X187000000Y-108408904D01*
X187000000Y-108671094D01*
X187030137Y-108900001D01*
X187034220Y-108931009D01*
X187034222Y-108931020D01*
X187100878Y-109179785D01*
X187102075Y-109184254D01*
X187102078Y-109184264D01*
X187202404Y-109426471D01*
X187202408Y-109426480D01*
X187328843Y-109645470D01*
X188121413Y-108852899D01*
X188182734Y-108819416D01*
X188252425Y-108824400D01*
X188308359Y-108866271D01*
X188323653Y-108893130D01*
X188324225Y-108894510D01*
X188326496Y-108899994D01*
X188326500Y-108900001D01*
X188409669Y-109024471D01*
X188409672Y-109024475D01*
X188515524Y-109130327D01*
X188515528Y-109130330D01*
X188639998Y-109213499D01*
X188640000Y-109213500D01*
X188640005Y-109213503D01*
X188646864Y-109216344D01*
X188701268Y-109260182D01*
X188723335Y-109326476D01*
X188706058Y-109394176D01*
X188687095Y-109418587D01*
X187894527Y-110211154D01*
X187894527Y-110211155D01*
X187894527Y-110211156D01*
X188113517Y-110337590D01*
X188113528Y-110337595D01*
X188132868Y-110345606D01*
X188339882Y-110431354D01*
X188355744Y-110437924D01*
X188608979Y-110505777D01*
X188608990Y-110505779D01*
X188868905Y-110539999D01*
X188868920Y-110540000D01*
X189131068Y-110540000D01*
X189131080Y-110540000D01*
X189131094Y-110539999D01*
X189391009Y-110505779D01*
X189391020Y-110505777D01*
X189644255Y-110437924D01*
X189886471Y-110337595D01*
X189886482Y-110337590D01*
X190105471Y-110211156D01*
X190105471Y-110211155D01*
X189312902Y-109418587D01*
X189279418Y-109357265D01*
X189284402Y-109287574D01*
X189326274Y-109231640D01*
X189353134Y-109216345D01*
X189354002Y-109215985D01*
X189359995Y-109213503D01*
X189484472Y-109130330D01*
X189590330Y-109024472D01*
X189673503Y-108899995D01*
X189676342Y-108893140D01*
X189720177Y-108838734D01*
X189786469Y-108816663D01*
X189854170Y-108833936D01*
X189878587Y-108852903D01*
X190671155Y-109645471D01*
X190671156Y-109645471D01*
X190797590Y-109426482D01*
X190797595Y-109426471D01*
X190897924Y-109184255D01*
X190965777Y-108931020D01*
X190965779Y-108931009D01*
X190999999Y-108671094D01*
X191000000Y-108671080D01*
X191000000Y-108408919D01*
X190999999Y-108408905D01*
X190965779Y-108148990D01*
X190965777Y-108148979D01*
X190897924Y-107895744D01*
X190797595Y-107653528D01*
X190797590Y-107653517D01*
X190671155Y-107434527D01*
X190671154Y-107434526D01*
X189878587Y-108227095D01*
X189817264Y-108260580D01*
X189747573Y-108255596D01*
X189691639Y-108213724D01*
X189676345Y-108186867D01*
X189673503Y-108180005D01*
X189673500Y-108180000D01*
X189673499Y-108179998D01*
X189590330Y-108055528D01*
X189590327Y-108055524D01*
X189484475Y-107949672D01*
X189484471Y-107949669D01*
X189360001Y-107866500D01*
X189359984Y-107866491D01*
X189353123Y-107863649D01*
X189298722Y-107819805D01*
X189276661Y-107753510D01*
X189293944Y-107685812D01*
X189312897Y-107661415D01*
X190105470Y-106868843D01*
X190105470Y-106868842D01*
X189886480Y-106742408D01*
X189886471Y-106742404D01*
X189644264Y-106642078D01*
X189644257Y-106642076D01*
X189644255Y-106642075D01*
X189391020Y-106574222D01*
X189391014Y-106574221D01*
X189391011Y-106574220D01*
X189390988Y-106574217D01*
X189131095Y-106540000D01*
X189131094Y-106540000D01*
X188868905Y-106540000D01*
X188868904Y-106540000D01*
X188609010Y-106574217D01*
X188608987Y-106574220D01*
X188608981Y-106574221D01*
X188608979Y-106574222D01*
X188355744Y-106642075D01*
X188355734Y-106642078D01*
X188114211Y-106742121D01*
X188113581Y-106742377D01*
X188113523Y-106742405D01*
X187894527Y-106868842D01*
X187894527Y-106868843D01*
X188687096Y-107661411D01*
X188720581Y-107722734D01*
X188715597Y-107792425D01*
X188673725Y-107848359D01*
X188646876Y-107863650D01*
X188640009Y-107866494D01*
X188639998Y-107866500D01*
X188515528Y-107949669D01*
X188515524Y-107949672D01*
X188409672Y-108055524D01*
X188409669Y-108055528D01*
X188326500Y-108179998D01*
X188326494Y-108180009D01*
X188323650Y-108186876D01*
X188279805Y-108241276D01*
X188213509Y-108263336D01*
X188145811Y-108246052D01*
X188121411Y-108227096D01*
X187328843Y-107434527D01*
X187328842Y-107434527D01*
X187202405Y-107653523D01*
X187202377Y-107653581D01*
X187202121Y-107654211D01*
X187102078Y-107895734D01*
X187102075Y-107895744D01*
X187034222Y-108148979D01*
X187034221Y-108148983D01*
X187034217Y-108149010D01*
X187000000Y-108408904D01*
X180445143Y-108408904D01*
X180320219Y-108336779D01*
X180320202Y-108336771D01*
X180275647Y-108318316D01*
X180275646Y-108318316D01*
X180096104Y-108243947D01*
X179983311Y-108213724D01*
X179861785Y-108181161D01*
X179861784Y-108181160D01*
X179861781Y-108181160D01*
X179621290Y-108149500D01*
X179621289Y-108149500D01*
X179621288Y-108149500D01*
X179378712Y-108149500D01*
X179378711Y-108149500D01*
X179378710Y-108149500D01*
X179138217Y-108181160D01*
X178903894Y-108243947D01*
X178679790Y-108336774D01*
X178679782Y-108336778D01*
X178469706Y-108458067D01*
X178469697Y-108458073D01*
X178277270Y-108605726D01*
X178277255Y-108605740D01*
X178277247Y-108605747D01*
X178105747Y-108777247D01*
X178105740Y-108777255D01*
X178105726Y-108777270D01*
X177958073Y-108969697D01*
X177958067Y-108969706D01*
X177836778Y-109179782D01*
X177836774Y-109179790D01*
X177743947Y-109403894D01*
X177681160Y-109638217D01*
X177649500Y-109878710D01*
X159555605Y-109878710D01*
X160091801Y-109342512D01*
X160091800Y-109342511D01*
X160091801Y-109342511D01*
X159999050Y-109295254D01*
X159999032Y-109295245D01*
X159999029Y-109295244D01*
X159999030Y-109295244D01*
X159999027Y-109295243D01*
X159804417Y-109232009D01*
X159804411Y-109232008D01*
X159602322Y-109200000D01*
X159602317Y-109200000D01*
X159397683Y-109200000D01*
X159354986Y-109206762D01*
X159214039Y-109229086D01*
X159214035Y-109229087D01*
X159195581Y-109232010D01*
X159195578Y-109232010D01*
X159004890Y-109293969D01*
X159004028Y-109294237D01*
X159003819Y-109294240D01*
X159001849Y-109294795D01*
X158908197Y-109342511D01*
X114730626Y-109342511D01*
X114684855Y-109232010D01*
X114683644Y-109229086D01*
X114663229Y-109179799D01*
X114663225Y-109179790D01*
X114663224Y-109179788D01*
X114541936Y-108969711D01*
X114394265Y-108777262D01*
X114394260Y-108777256D01*
X114394259Y-108777255D01*
X114394247Y-108777242D01*
X114222751Y-108605747D01*
X114222743Y-108605739D01*
X114222736Y-108605733D01*
X114222733Y-108605730D01*
X114222728Y-108605726D01*
X114031879Y-108459284D01*
X114030615Y-108458281D01*
X114030286Y-108458062D01*
X114030283Y-108458060D01*
X113820219Y-108336779D01*
X113820202Y-108336771D01*
X113775647Y-108318316D01*
X113775646Y-108318316D01*
X113596104Y-108243947D01*
X113483311Y-108213724D01*
X113361785Y-108181161D01*
X113361784Y-108181160D01*
X113361781Y-108181160D01*
X113121290Y-108149500D01*
X113121289Y-108149500D01*
X113121288Y-108149500D01*
X112878712Y-108149500D01*
X112878711Y-108149500D01*
X112878710Y-108149500D01*
X112638217Y-108181160D01*
X112403894Y-108243947D01*
X112179790Y-108336774D01*
X112179782Y-108336778D01*
X111969706Y-108458067D01*
X111969697Y-108458073D01*
X111777270Y-108605726D01*
X111777255Y-108605740D01*
X111777247Y-108605747D01*
X111605747Y-108777247D01*
X111605740Y-108777255D01*
X111605726Y-108777270D01*
X111458073Y-108969697D01*
X111458067Y-108969706D01*
X111336778Y-109179782D01*
X111336774Y-109179790D01*
X111243947Y-109403894D01*
X111181160Y-109638217D01*
X111149500Y-109878710D01*
X99366856Y-109878710D01*
X99366856Y-87437393D01*
X100299500Y-87437393D01*
X100299500Y-87682606D01*
X100319355Y-87833412D01*
X100331505Y-87925699D01*
X100363236Y-88044120D01*
X100394967Y-88162544D01*
X100394968Y-88162547D01*
X100394970Y-88162553D01*
X100406220Y-88189712D01*
X100488797Y-88389069D01*
X100488801Y-88389079D01*
X100575242Y-88538799D01*
X100575397Y-88539072D01*
X100575561Y-88539769D01*
X100588137Y-88571183D01*
X100591924Y-88586795D01*
X100591091Y-88605539D01*
X100591453Y-88607072D01*
X100590961Y-88608465D01*
X100588857Y-88655828D01*
X100584063Y-88669973D01*
X100568554Y-88700787D01*
X100457991Y-88860375D01*
X100457986Y-88860384D01*
X100364906Y-89065309D01*
X100364899Y-89065330D01*
X100309906Y-89283569D01*
X100309905Y-89283579D01*
X100309904Y-89283583D01*
X100299500Y-89415771D01*
X100299500Y-90784211D01*
X100309904Y-90916413D01*
X100309904Y-90916418D01*
X100309906Y-90916429D01*
X100364899Y-91134668D01*
X100364906Y-91134689D01*
X100457986Y-91339614D01*
X100457992Y-91339624D01*
X100457995Y-91339630D01*
X100457999Y-91339636D01*
X100586159Y-91524625D01*
X100586182Y-91524655D01*
X100586185Y-91524659D01*
X100745004Y-91683478D01*
X100745007Y-91683480D01*
X100745346Y-91683819D01*
X100745350Y-91683822D01*
X100745354Y-91683825D01*
X100884603Y-91780297D01*
X100930374Y-91812007D01*
X101135317Y-91905096D01*
X101135321Y-91905097D01*
X101135323Y-91905097D01*
X101135397Y-91905123D01*
X101135532Y-91905150D01*
X101267777Y-91938473D01*
X101351716Y-91959625D01*
X101353356Y-91960065D01*
X101353568Y-91960091D01*
X101353579Y-91960094D01*
X101353581Y-91960094D01*
X101353588Y-91960096D01*
X101353636Y-91960099D01*
X101355847Y-91960374D01*
X101358406Y-91960475D01*
X101485783Y-91970500D01*
X104114216Y-91970499D01*
X104246412Y-91960096D01*
X104464683Y-91905096D01*
X104464694Y-91905090D01*
X104465353Y-91904860D01*
X104475232Y-91900934D01*
X104476884Y-91900367D01*
X104476892Y-91900366D01*
X105332531Y-91607194D01*
X105336116Y-91606597D01*
X105337789Y-91605523D01*
X105372724Y-91600500D01*
X105511602Y-91600500D01*
X105555141Y-91608395D01*
X105843841Y-91716657D01*
X105893130Y-91735140D01*
X105937272Y-91763564D01*
X106030295Y-91856587D01*
X106030302Y-91856593D01*
X106030314Y-91856602D01*
X106030315Y-91856603D01*
X106074576Y-91890565D01*
X106074577Y-91890566D01*
X106217548Y-92000272D01*
X106217550Y-92000273D01*
X106348918Y-92076118D01*
X106418516Y-92116301D01*
X106420255Y-92117382D01*
X106421660Y-92118162D01*
X106421938Y-92118277D01*
X106421943Y-92118280D01*
X106421948Y-92118282D01*
X106421951Y-92118284D01*
X106640007Y-92208606D01*
X106867986Y-92269693D01*
X107101989Y-92300500D01*
X107101996Y-92300500D01*
X108738004Y-92300500D01*
X108738011Y-92300500D01*
X108972014Y-92269693D01*
X109199993Y-92208606D01*
X109418049Y-92118284D01*
X109622450Y-92000273D01*
X109809699Y-91856592D01*
X109976592Y-91689699D01*
X110120273Y-91502450D01*
X110238284Y-91298049D01*
X110328606Y-91079993D01*
X110389693Y-90852014D01*
X110420500Y-90618011D01*
X110420500Y-90381989D01*
X110389693Y-90147986D01*
X110328606Y-89920007D01*
X110238284Y-89701951D01*
X110238282Y-89701948D01*
X110238280Y-89701943D01*
X110238276Y-89701937D01*
X110238163Y-89701663D01*
X110237376Y-89700245D01*
X110236294Y-89698503D01*
X110219722Y-89669800D01*
X110145944Y-89542014D01*
X110120273Y-89497550D01*
X110057526Y-89415777D01*
X110006814Y-89349687D01*
X109976607Y-89310320D01*
X109976598Y-89310309D01*
X109976593Y-89310302D01*
X109976587Y-89310295D01*
X109809704Y-89143412D01*
X109809697Y-89143406D01*
X109809694Y-89143403D01*
X109809689Y-89143399D01*
X109630131Y-89005620D01*
X109630126Y-89005617D01*
X109622454Y-88999730D01*
X109622453Y-88999729D01*
X109622450Y-88999727D01*
X109479487Y-88917187D01*
X109418056Y-88881719D01*
X109418054Y-88881718D01*
X109418049Y-88881715D01*
X109418043Y-88881712D01*
X109418040Y-88881711D01*
X109406474Y-88876920D01*
X109393103Y-88871382D01*
X109362753Y-88853374D01*
X109353947Y-88846278D01*
X109314097Y-88788887D01*
X109311602Y-88719062D01*
X109347251Y-88658975D01*
X109352876Y-88653737D01*
X109389908Y-88629940D01*
X109413997Y-88619962D01*
X109415853Y-88619269D01*
X109416306Y-88619066D01*
X109416332Y-88619054D01*
X109417961Y-88618320D01*
X109418040Y-88618288D01*
X109418043Y-88618286D01*
X109418049Y-88618284D01*
X109418071Y-88618271D01*
X109418427Y-88618111D01*
X109419752Y-88617375D01*
X109421459Y-88616315D01*
X109622450Y-88500273D01*
X109809699Y-88356592D01*
X109976592Y-88189699D01*
X110120273Y-88002450D01*
X110238284Y-87798049D01*
X110328606Y-87579993D01*
X110389693Y-87352014D01*
X110420500Y-87118011D01*
X110420500Y-86881989D01*
X110389693Y-86647986D01*
X110328606Y-86420007D01*
X110238284Y-86201951D01*
X110238282Y-86201948D01*
X110238280Y-86201943D01*
X110238276Y-86201937D01*
X110238163Y-86201663D01*
X110237374Y-86200241D01*
X110236294Y-86198503D01*
X110168704Y-86081435D01*
X110168703Y-86081434D01*
X110122501Y-86001409D01*
X110120272Y-85997548D01*
X109976595Y-85810305D01*
X109976589Y-85810297D01*
X109976574Y-85810281D01*
X109809712Y-85643420D01*
X109809704Y-85643412D01*
X109809697Y-85643406D01*
X109809694Y-85643403D01*
X109809689Y-85643399D01*
X109630013Y-85505530D01*
X109630011Y-85505529D01*
X109622454Y-85499730D01*
X109622453Y-85499729D01*
X109622450Y-85499727D01*
X109518941Y-85439966D01*
X109518441Y-85439677D01*
X109518371Y-85439636D01*
X109418065Y-85381724D01*
X109418048Y-85381715D01*
X109199997Y-85291395D01*
X108995242Y-85236531D01*
X108995237Y-85236529D01*
X108979860Y-85232408D01*
X108972118Y-85229780D01*
X108963951Y-85229245D01*
X108739889Y-85199747D01*
X108738208Y-85199500D01*
X108738017Y-85199500D01*
X108738011Y-85199500D01*
X107101989Y-85199500D01*
X107101983Y-85199500D01*
X107101981Y-85199500D01*
X107095861Y-85200253D01*
X107094955Y-85200425D01*
X106867992Y-85230305D01*
X106640001Y-85291395D01*
X106421950Y-85381715D01*
X106421942Y-85381719D01*
X106217545Y-85499730D01*
X106217536Y-85499736D01*
X106030309Y-85643399D01*
X106030294Y-85643413D01*
X106030286Y-85643420D01*
X105863420Y-85810286D01*
X105863413Y-85810294D01*
X105863412Y-85810295D01*
X105863406Y-85810302D01*
X105856088Y-85819839D01*
X105729295Y-85985079D01*
X105719701Y-85992977D01*
X105715159Y-86000584D01*
X105686112Y-86020631D01*
X105633989Y-86046539D01*
X105578796Y-86059500D01*
X105313175Y-86059500D01*
X105286048Y-86056496D01*
X104318664Y-85839614D01*
X104257555Y-85805741D01*
X104224460Y-85744206D01*
X104229887Y-85674548D01*
X104235306Y-85662323D01*
X104294629Y-85545897D01*
X104294630Y-85545894D01*
X104294638Y-85545868D01*
X104294652Y-85545828D01*
X104335535Y-85420000D01*
X103469474Y-85420000D01*
X103402435Y-85400315D01*
X103356680Y-85347511D01*
X103346736Y-85278353D01*
X103352446Y-85257538D01*
X103352348Y-85257512D01*
X103357970Y-85236531D01*
X103395000Y-85098333D01*
X103395000Y-84941667D01*
X103354452Y-84790339D01*
X103354451Y-84790337D01*
X103352348Y-84782488D01*
X103353905Y-84782070D01*
X103347444Y-84721985D01*
X103378718Y-84659505D01*
X103438806Y-84623852D01*
X103469474Y-84620000D01*
X104335535Y-84620000D01*
X104335534Y-84619998D01*
X104333315Y-84613167D01*
X104294652Y-84494170D01*
X104294631Y-84494108D01*
X104294630Y-84494107D01*
X104294630Y-84494105D01*
X104294629Y-84494102D01*
X104196728Y-84301963D01*
X104078598Y-84139373D01*
X104074465Y-84131993D01*
X103917499Y-83975027D01*
X103917497Y-83975025D01*
X103743036Y-83848271D01*
X103550901Y-83750372D01*
X103345809Y-83683733D01*
X103345807Y-83683732D01*
X103345805Y-83683732D01*
X103200000Y-83660638D01*
X103200000Y-84350525D01*
X103180315Y-84417564D01*
X103127511Y-84463319D01*
X103058353Y-84473263D01*
X103037538Y-84467554D01*
X103037512Y-84467652D01*
X103029662Y-84465548D01*
X103029661Y-84465548D01*
X102878333Y-84425000D01*
X102878332Y-84425000D01*
X102721667Y-84425000D01*
X102570339Y-84465548D01*
X102570337Y-84465548D01*
X102562488Y-84467652D01*
X102562071Y-84466097D01*
X102501969Y-84472552D01*
X102439493Y-84441270D01*
X102403848Y-84381177D01*
X102400000Y-84350525D01*
X102400000Y-83660638D01*
X102254193Y-83683732D01*
X102049100Y-83750371D01*
X101856970Y-83848267D01*
X101856957Y-83848275D01*
X101694375Y-83966398D01*
X101686996Y-83970530D01*
X101525530Y-84131996D01*
X101521398Y-84139375D01*
X101403275Y-84301957D01*
X101403271Y-84301963D01*
X101403269Y-84301965D01*
X101403267Y-84301970D01*
X101305367Y-84494108D01*
X101305359Y-84494132D01*
X101264463Y-84619998D01*
X101264463Y-84619999D01*
X101264465Y-84620000D01*
X102130526Y-84620000D01*
X102197565Y-84639685D01*
X102243320Y-84692489D01*
X102253264Y-84761647D01*
X102247553Y-84782461D01*
X102247652Y-84782488D01*
X102245548Y-84790337D01*
X102245548Y-84790339D01*
X102205000Y-84941667D01*
X102205000Y-85098333D01*
X102242029Y-85236529D01*
X102247652Y-85257512D01*
X102246094Y-85257929D01*
X102252556Y-85318015D01*
X102221282Y-85380495D01*
X102161194Y-85416148D01*
X102130526Y-85420000D01*
X101264464Y-85420000D01*
X101305360Y-85545870D01*
X101305367Y-85545889D01*
X101305367Y-85545890D01*
X101305368Y-85545893D01*
X101305369Y-85545894D01*
X101305370Y-85545897D01*
X101364693Y-85662323D01*
X101383001Y-85698255D01*
X101393057Y-85727762D01*
X101394385Y-85731659D01*
X101397271Y-85747024D01*
X101390300Y-85816546D01*
X101390292Y-85816566D01*
X101388963Y-85819839D01*
X101355068Y-85867081D01*
X101351479Y-85870177D01*
X101332485Y-85883671D01*
X101128573Y-86001400D01*
X101128561Y-86001408D01*
X101128559Y-86001409D01*
X100934051Y-86150663D01*
X100934041Y-86150672D01*
X100760672Y-86324041D01*
X100760663Y-86324051D01*
X100611408Y-86518561D01*
X100611398Y-86518576D01*
X100488802Y-86730918D01*
X100488798Y-86730926D01*
X100394970Y-86957445D01*
X100394967Y-86957455D01*
X100356406Y-87101369D01*
X100343294Y-87150305D01*
X100331506Y-87194298D01*
X100331504Y-87194309D01*
X100299900Y-87434358D01*
X100299500Y-87437393D01*
X99366856Y-87437393D01*
X99366856Y-73528710D01*
X100999500Y-73528710D01*
X100999500Y-73771288D01*
X101028499Y-73991571D01*
X101031161Y-74011785D01*
X101093947Y-74246104D01*
X101168857Y-74426951D01*
X101168859Y-74426955D01*
X101186776Y-74470213D01*
X101186777Y-74470215D01*
X101308060Y-74680283D01*
X101308062Y-74680286D01*
X101308281Y-74680615D01*
X101309284Y-74681879D01*
X101455726Y-74872728D01*
X101455730Y-74872733D01*
X101455733Y-74872736D01*
X101455739Y-74872743D01*
X101627256Y-75044260D01*
X101627263Y-75044266D01*
X101637982Y-75052491D01*
X101640801Y-75054654D01*
X101819709Y-75191935D01*
X102029784Y-75313222D01*
X102029785Y-75313222D01*
X102029788Y-75313224D01*
X102253900Y-75406054D01*
X102488211Y-75468838D01*
X102668586Y-75492584D01*
X102728710Y-75500500D01*
X102728711Y-75500500D01*
X102728712Y-75500500D01*
X102971283Y-75500500D01*
X102971289Y-75500500D01*
X103019388Y-75494167D01*
X103211789Y-75468838D01*
X103446100Y-75406054D01*
X103670212Y-75313224D01*
X103880289Y-75191936D01*
X104072738Y-75044265D01*
X104244265Y-74872738D01*
X104391936Y-74680289D01*
X104513224Y-74470212D01*
X104606054Y-74246100D01*
X104668838Y-74011789D01*
X104700500Y-73771288D01*
X104700500Y-73528712D01*
X104700393Y-73527903D01*
X104692584Y-73468586D01*
X104668838Y-73288211D01*
X104606054Y-73053900D01*
X104513224Y-72829788D01*
X104391936Y-72619711D01*
X104244265Y-72427262D01*
X104244260Y-72427256D01*
X104244259Y-72427255D01*
X104244247Y-72427242D01*
X104072751Y-72255747D01*
X104072743Y-72255739D01*
X104072736Y-72255733D01*
X104072733Y-72255730D01*
X104072728Y-72255726D01*
X103887309Y-72113450D01*
X103881878Y-72109283D01*
X103880615Y-72108281D01*
X103880286Y-72108062D01*
X103880283Y-72108060D01*
X103670222Y-71986781D01*
X103670208Y-71986774D01*
X103653407Y-71979815D01*
X103446104Y-71893947D01*
X103211781Y-71831160D01*
X102971290Y-71799500D01*
X102971289Y-71799500D01*
X102971288Y-71799500D01*
X102728712Y-71799500D01*
X102728711Y-71799500D01*
X102728710Y-71799500D01*
X102488217Y-71831160D01*
X102253894Y-71893947D01*
X102029790Y-71986774D01*
X102029782Y-71986778D01*
X101819706Y-72108067D01*
X101819697Y-72108073D01*
X101627270Y-72255726D01*
X101627255Y-72255740D01*
X101627247Y-72255747D01*
X101455747Y-72427247D01*
X101455740Y-72427255D01*
X101455726Y-72427270D01*
X101308073Y-72619697D01*
X101308067Y-72619706D01*
X101186778Y-72829782D01*
X101186774Y-72829790D01*
X101093947Y-73053894D01*
X101031160Y-73288217D01*
X100999500Y-73528710D01*
X99366856Y-73528710D01*
X99366856Y-70293948D01*
X99371879Y-70259012D01*
X99376283Y-70244014D01*
X99414028Y-70185263D01*
X99414056Y-70185238D01*
X99414055Y-70185238D01*
X99415397Y-70184075D01*
X99470276Y-70156596D01*
X99477835Y-70154952D01*
X99504188Y-70152119D01*
X125758662Y-70152119D01*
X125793589Y-70157140D01*
G37*
%TD.AperFunction*%
%TA.AperFunction,Conductor*%
G36*
X173776276Y-72980185D02*
G01*
X173816374Y-73022069D01*
X173971461Y-73288214D01*
X174430538Y-74076037D01*
X174482637Y-74165443D01*
X174499500Y-74227874D01*
X174499500Y-74314208D01*
X174499501Y-74314223D01*
X174508372Y-74426952D01*
X174509904Y-74446412D01*
X174509904Y-74446418D01*
X174509906Y-74446429D01*
X174564899Y-74664668D01*
X174564906Y-74664689D01*
X174657986Y-74869614D01*
X174657992Y-74869624D01*
X174657995Y-74869630D01*
X174657999Y-74869636D01*
X174786159Y-75054625D01*
X174786181Y-75054654D01*
X174786182Y-75054656D01*
X174945012Y-75213486D01*
X174945015Y-75213488D01*
X174945346Y-75213819D01*
X174945350Y-75213822D01*
X174945354Y-75213825D01*
X175005438Y-75255451D01*
X175020884Y-75266152D01*
X175130367Y-75342003D01*
X175130371Y-75342005D01*
X175130374Y-75342007D01*
X175335317Y-75435096D01*
X175335321Y-75435097D01*
X175335323Y-75435097D01*
X175335397Y-75435123D01*
X175335532Y-75435150D01*
X175467777Y-75468473D01*
X175551716Y-75489625D01*
X175553356Y-75490065D01*
X175553568Y-75490091D01*
X175553579Y-75490094D01*
X175553581Y-75490094D01*
X175553588Y-75490096D01*
X175553636Y-75490099D01*
X175555847Y-75490374D01*
X175558406Y-75490475D01*
X175685783Y-75500500D01*
X177314216Y-75500499D01*
X177446412Y-75490096D01*
X177475958Y-75482651D01*
X177664676Y-75435098D01*
X177664677Y-75435097D01*
X177664683Y-75435096D01*
X177699305Y-75419369D01*
X177714701Y-75413576D01*
X177740223Y-75405865D01*
X178075534Y-75266151D01*
X178144984Y-75258537D01*
X178207528Y-75289681D01*
X178210904Y-75292932D01*
X182279224Y-79361251D01*
X182306952Y-79403580D01*
X182490909Y-79871703D01*
X182499500Y-79917055D01*
X182499500Y-80644211D01*
X182509903Y-80776414D01*
X182509904Y-80776418D01*
X182509906Y-80776429D01*
X182564899Y-80994668D01*
X182564906Y-80994689D01*
X182657986Y-81199614D01*
X182657992Y-81199624D01*
X182657995Y-81199630D01*
X182657999Y-81199636D01*
X182786159Y-81384625D01*
X182786182Y-81384655D01*
X182786185Y-81384659D01*
X182945002Y-81543476D01*
X182945005Y-81543478D01*
X182945346Y-81543819D01*
X182945350Y-81543822D01*
X182945354Y-81543825D01*
X183119927Y-81664770D01*
X183119943Y-81664790D01*
X183138362Y-81680423D01*
X183153295Y-81695849D01*
X183185780Y-81757708D01*
X183185782Y-81757719D01*
X183186428Y-81760941D01*
X183184039Y-81819515D01*
X183182613Y-81824485D01*
X183173907Y-81846581D01*
X183095247Y-82000960D01*
X183063067Y-82099997D01*
X183063067Y-82099999D01*
X183063067Y-82100000D01*
X184330526Y-82100000D01*
X184397565Y-82119685D01*
X184443320Y-82172489D01*
X184453264Y-82241647D01*
X184447553Y-82262461D01*
X184447652Y-82262488D01*
X184445548Y-82270337D01*
X184445548Y-82270339D01*
X184405000Y-82421667D01*
X184405000Y-82578333D01*
X184435914Y-82693708D01*
X184447652Y-82737512D01*
X184446094Y-82737929D01*
X184452556Y-82798015D01*
X184421282Y-82860495D01*
X184361194Y-82896148D01*
X184330526Y-82900000D01*
X183063067Y-82900000D01*
X183095245Y-82999033D01*
X183188140Y-83181349D01*
X183204712Y-83204158D01*
X183228192Y-83269964D01*
X183212367Y-83338018D01*
X183162261Y-83386713D01*
X183131521Y-83398040D01*
X182513951Y-83536496D01*
X182486824Y-83539500D01*
X182341898Y-83539500D01*
X182108636Y-83576445D01*
X182108634Y-83576445D01*
X182108631Y-83576446D01*
X181884003Y-83649433D01*
X181816688Y-83683732D01*
X181673566Y-83756656D01*
X181606368Y-83805480D01*
X181606367Y-83805480D01*
X181494360Y-83886858D01*
X181486981Y-83890990D01*
X178094316Y-87283655D01*
X178066064Y-87304805D01*
X178060702Y-87307733D01*
X178043266Y-87311526D01*
X178027604Y-87320074D01*
X178009835Y-87318799D01*
X177992429Y-87322586D01*
X177975711Y-87316350D01*
X177957913Y-87315074D01*
X177943653Y-87304394D01*
X177926964Y-87298170D01*
X177916270Y-87283886D01*
X177901989Y-87273190D01*
X177895767Y-87256498D01*
X177885092Y-87242238D01*
X177883818Y-87224439D01*
X177877587Y-87207720D01*
X177880108Y-87172580D01*
X177880106Y-87172551D01*
X177880809Y-87169320D01*
X177896430Y-87130610D01*
X177934355Y-87069126D01*
X177934358Y-87069119D01*
X177989505Y-86902697D01*
X177989506Y-86902690D01*
X177999999Y-86799986D01*
X178000000Y-86799973D01*
X178000000Y-86400000D01*
X177061184Y-86400000D01*
X176994145Y-86380315D01*
X176948390Y-86327511D01*
X176938446Y-86258353D01*
X176953797Y-86213999D01*
X176965925Y-86192993D01*
X177000000Y-86065826D01*
X177000000Y-85934174D01*
X176965925Y-85807007D01*
X176953796Y-85786000D01*
X176937324Y-85718101D01*
X176960176Y-85652074D01*
X177015097Y-85608883D01*
X177061184Y-85600000D01*
X177999999Y-85600000D01*
X177999999Y-85200028D01*
X177999998Y-85200013D01*
X177989505Y-85097302D01*
X177934358Y-84930880D01*
X177934356Y-84930875D01*
X177842315Y-84781654D01*
X177718345Y-84657684D01*
X177569124Y-84565643D01*
X177569119Y-84565641D01*
X177569110Y-84565638D01*
X177402699Y-84510494D01*
X177402694Y-84510493D01*
X177299991Y-84500000D01*
X177299986Y-84500000D01*
X176900000Y-84500000D01*
X176900000Y-85438815D01*
X176880315Y-85505854D01*
X176827511Y-85551609D01*
X176758353Y-85561553D01*
X176714002Y-85546203D01*
X176692998Y-85534077D01*
X176692997Y-85534076D01*
X176662107Y-85525799D01*
X176565826Y-85500000D01*
X176565824Y-85500000D01*
X176434176Y-85500000D01*
X176434174Y-85500000D01*
X176356346Y-85520854D01*
X176307002Y-85534076D01*
X176307001Y-85534077D01*
X176285998Y-85546203D01*
X176218097Y-85562674D01*
X176152071Y-85539821D01*
X176108881Y-85484899D01*
X176100000Y-85438815D01*
X176100000Y-84500000D01*
X175700028Y-84500000D01*
X175700012Y-84500001D01*
X175700002Y-84500001D01*
X175700002Y-84500002D01*
X175597304Y-84510493D01*
X175597302Y-84510494D01*
X175430887Y-84565638D01*
X175430879Y-84565641D01*
X175430877Y-84565642D01*
X175430875Y-84565643D01*
X175342760Y-84619993D01*
X175281652Y-84657685D01*
X175157685Y-84781652D01*
X175152327Y-84790339D01*
X175073951Y-84917407D01*
X175065641Y-84930879D01*
X175065638Y-84930888D01*
X175010494Y-85097299D01*
X175010493Y-85097304D01*
X175000000Y-85200007D01*
X175000000Y-85600000D01*
X175938816Y-85600000D01*
X176005855Y-85619685D01*
X176051610Y-85672489D01*
X176061554Y-85741647D01*
X176046203Y-85786000D01*
X176034075Y-85807007D01*
X176000000Y-85934174D01*
X176000000Y-86065826D01*
X176034075Y-86192993D01*
X176046203Y-86213999D01*
X176062676Y-86281899D01*
X176039824Y-86347926D01*
X175984903Y-86391117D01*
X175938816Y-86400000D01*
X175000001Y-86400000D01*
X175000001Y-86799995D01*
X175010493Y-86902694D01*
X175010493Y-86902695D01*
X175010494Y-86902697D01*
X175037349Y-86983740D01*
X175064327Y-87065156D01*
X175065641Y-87069119D01*
X175065643Y-87069124D01*
X175157684Y-87218345D01*
X175281654Y-87342315D01*
X175430875Y-87434356D01*
X175430880Y-87434358D01*
X175597299Y-87489504D01*
X175597300Y-87489504D01*
X175597302Y-87489505D01*
X175597309Y-87489506D01*
X175700019Y-87499999D01*
X176099999Y-87499999D01*
X176100000Y-87499998D01*
X176100000Y-86561184D01*
X176119685Y-86494145D01*
X176172489Y-86448390D01*
X176241647Y-86438446D01*
X176286000Y-86453796D01*
X176307007Y-86465925D01*
X176434174Y-86500000D01*
X176565824Y-86500000D01*
X176565826Y-86500000D01*
X176692993Y-86465925D01*
X176713999Y-86453796D01*
X176781899Y-86437324D01*
X176847926Y-86460176D01*
X176891117Y-86515097D01*
X176900000Y-86561184D01*
X176900000Y-87499999D01*
X177299960Y-87499999D01*
X177299972Y-87499999D01*
X177299986Y-87499998D01*
X177402697Y-87489505D01*
X177569119Y-87434358D01*
X177569126Y-87434355D01*
X177628311Y-87397848D01*
X177629905Y-87397412D01*
X177660678Y-87383784D01*
X177666576Y-87382171D01*
X177684394Y-87382501D01*
X177695698Y-87379408D01*
X177719807Y-87383157D01*
X177736433Y-87383466D01*
X177794501Y-87422324D01*
X177822342Y-87486407D01*
X177811124Y-87555356D01*
X177809711Y-87558305D01*
X177785566Y-87592405D01*
X176968161Y-88409809D01*
X176942473Y-88429519D01*
X175535667Y-89241623D01*
X175535658Y-89241629D01*
X175497107Y-89268516D01*
X175488175Y-89274195D01*
X175386189Y-89333078D01*
X175178152Y-89492714D01*
X175178142Y-89492723D01*
X174992723Y-89678142D01*
X174992714Y-89678152D01*
X174833074Y-89886195D01*
X174701967Y-90113281D01*
X174701954Y-90113305D01*
X174601602Y-90355578D01*
X174550423Y-90546586D01*
X174533731Y-90608881D01*
X174533729Y-90608892D01*
X174501720Y-90852014D01*
X174499500Y-90868872D01*
X174499500Y-91131127D01*
X174521477Y-91298049D01*
X174533730Y-91391116D01*
X174566976Y-91515192D01*
X174567696Y-91518654D01*
X174567652Y-91519195D01*
X174568699Y-91524078D01*
X174568793Y-91524659D01*
X174574753Y-91561465D01*
X174963769Y-93012933D01*
X174995273Y-93130476D01*
X174999500Y-93162577D01*
X174999500Y-97862109D01*
X174999499Y-97862115D01*
X174999500Y-97862118D01*
X174994474Y-97897053D01*
X174990197Y-97911615D01*
X174952419Y-97970390D01*
X174892807Y-97998778D01*
X174881334Y-98000806D01*
X174850024Y-98002317D01*
X174814229Y-97999500D01*
X174814217Y-97999500D01*
X173185791Y-97999500D01*
X173185787Y-97999500D01*
X173053584Y-98009903D01*
X173053580Y-98009904D01*
X173053569Y-98009906D01*
X172835330Y-98064899D01*
X172835309Y-98064906D01*
X172630384Y-98157986D01*
X172630374Y-98157992D01*
X172630368Y-98157995D01*
X172630362Y-98157999D01*
X172445359Y-98286169D01*
X172445349Y-98286177D01*
X172445346Y-98286180D01*
X172445328Y-98286196D01*
X172286196Y-98445328D01*
X172286186Y-98445340D01*
X172286177Y-98445349D01*
X172286169Y-98445359D01*
X172157999Y-98630362D01*
X172157995Y-98630368D01*
X172157992Y-98630374D01*
X172157986Y-98630384D01*
X172064906Y-98835309D01*
X172064899Y-98835330D01*
X172009906Y-99053569D01*
X172009904Y-99053580D01*
X172009904Y-99053583D01*
X171999500Y-99185771D01*
X171999500Y-99799430D01*
X171995081Y-99814477D01*
X171995634Y-99830150D01*
X171985439Y-99847314D01*
X171979815Y-99866469D01*
X171967491Y-99877534D01*
X171959955Y-99890223D01*
X171930955Y-99910339D01*
X171778816Y-99986409D01*
X171723361Y-99999500D01*
X167930942Y-99999500D01*
X167907194Y-99997205D01*
X167114557Y-99842541D01*
X167052529Y-99810382D01*
X167022055Y-99763987D01*
X167008250Y-99726796D01*
X167000500Y-99683645D01*
X167000500Y-85753005D01*
X167005522Y-85718072D01*
X167006676Y-85714142D01*
X167012934Y-85692827D01*
X167044228Y-85640085D01*
X167620342Y-85063971D01*
X167681663Y-85030488D01*
X167751355Y-85035472D01*
X167807288Y-85077344D01*
X167827795Y-85119558D01*
X167834074Y-85142993D01*
X167834076Y-85142996D01*
X167867003Y-85200026D01*
X167899901Y-85257007D01*
X167992993Y-85350099D01*
X168054029Y-85385338D01*
X168107003Y-85415923D01*
X168107004Y-85415923D01*
X168107007Y-85415925D01*
X168130441Y-85422204D01*
X168190099Y-85458568D01*
X168220628Y-85521415D01*
X168212333Y-85590791D01*
X168186026Y-85629659D01*
X167559498Y-86256183D01*
X167559499Y-86256183D01*
X167559499Y-86256184D01*
X167724197Y-86340102D01*
X167855782Y-86382857D01*
X167885252Y-86403007D01*
X167948749Y-86413064D01*
X167948752Y-86413065D01*
X167948751Y-86413065D01*
X168181948Y-86450000D01*
X168418051Y-86450000D01*
X168418052Y-86450000D01*
X168651247Y-86413065D01*
X168875797Y-86340104D01*
X169040499Y-86256184D01*
X169040498Y-86256183D01*
X169040499Y-86256183D01*
X168413973Y-85629659D01*
X168380488Y-85568336D01*
X168385472Y-85498645D01*
X168427343Y-85442711D01*
X168469557Y-85422204D01*
X168492993Y-85415925D01*
X168607007Y-85350099D01*
X168700099Y-85257007D01*
X168765925Y-85142993D01*
X168772204Y-85119558D01*
X168808567Y-85059901D01*
X168871414Y-85029371D01*
X168940790Y-85037665D01*
X168979659Y-85063973D01*
X169606183Y-85690499D01*
X169606183Y-85690498D01*
X169606184Y-85690499D01*
X169690104Y-85525797D01*
X169763065Y-85301247D01*
X169782671Y-85177466D01*
X169782671Y-85177465D01*
X169791842Y-85119561D01*
X169800000Y-85068057D01*
X169800000Y-84831947D01*
X169788130Y-84757002D01*
X169763065Y-84598752D01*
X169690102Y-84374197D01*
X169606184Y-84209499D01*
X169606183Y-84209498D01*
X168979659Y-84836025D01*
X168918336Y-84869510D01*
X168848645Y-84864526D01*
X168792711Y-84822655D01*
X168772204Y-84780442D01*
X168765925Y-84757007D01*
X168765923Y-84757003D01*
X168765923Y-84757002D01*
X168729866Y-84694551D01*
X168700099Y-84642993D01*
X168607007Y-84549901D01*
X168573133Y-84530343D01*
X168492996Y-84484076D01*
X168492994Y-84484075D01*
X168469558Y-84477795D01*
X168409899Y-84441428D01*
X168379371Y-84378580D01*
X168387668Y-84309205D01*
X168413972Y-84270341D01*
X169040498Y-83643814D01*
X169024921Y-83635877D01*
X168875806Y-83559898D01*
X168776326Y-83527575D01*
X168744215Y-83517141D01*
X168714746Y-83496991D01*
X168418057Y-83450000D01*
X168418052Y-83450000D01*
X168181948Y-83450000D01*
X168181943Y-83450000D01*
X167948755Y-83486933D01*
X167724191Y-83559899D01*
X167691718Y-83576445D01*
X167586023Y-83630298D01*
X167562786Y-83635877D01*
X167559498Y-83643813D01*
X168186026Y-84270340D01*
X168219511Y-84331663D01*
X168214527Y-84401354D01*
X168172656Y-84457288D01*
X168130442Y-84477795D01*
X168107005Y-84484075D01*
X168107003Y-84484076D01*
X167992996Y-84549899D01*
X167992990Y-84549903D01*
X167899903Y-84642990D01*
X167899899Y-84642996D01*
X167834076Y-84757003D01*
X167834075Y-84757005D01*
X167827795Y-84780442D01*
X167791428Y-84840101D01*
X167728580Y-84870629D01*
X167659205Y-84862332D01*
X167620340Y-84836026D01*
X167049426Y-84265112D01*
X167049421Y-84265107D01*
X167028274Y-84236856D01*
X167015667Y-84213767D01*
X167000500Y-84154342D01*
X167000500Y-80616901D01*
X166981595Y-80497545D01*
X166963553Y-80383631D01*
X166890566Y-80159003D01*
X166783342Y-79948566D01*
X166734773Y-79881716D01*
X166673301Y-79797106D01*
X166644521Y-79757493D01*
X165268969Y-78381941D01*
X175000000Y-78381941D01*
X175000000Y-78618057D01*
X175036933Y-78851243D01*
X175036934Y-78851247D01*
X175109897Y-79075802D01*
X175193814Y-79240498D01*
X175820341Y-78613972D01*
X175881663Y-78580488D01*
X175951355Y-78585472D01*
X176007288Y-78627344D01*
X176027795Y-78669558D01*
X176034074Y-78692993D01*
X176034076Y-78692996D01*
X176055296Y-78729749D01*
X176099901Y-78807007D01*
X176192993Y-78900099D01*
X176236674Y-78925318D01*
X176307003Y-78965923D01*
X176307004Y-78965923D01*
X176307007Y-78965925D01*
X176330441Y-78972204D01*
X176390099Y-79008568D01*
X176420628Y-79071415D01*
X176412333Y-79140791D01*
X176386026Y-79179659D01*
X175759498Y-79806183D01*
X175759499Y-79806183D01*
X175759499Y-79806184D01*
X175924197Y-79890102D01*
X176055782Y-79932857D01*
X176085252Y-79953007D01*
X176148749Y-79963064D01*
X176148752Y-79963065D01*
X176148751Y-79963065D01*
X176381948Y-80000000D01*
X176618051Y-80000000D01*
X176618052Y-80000000D01*
X176851247Y-79963065D01*
X177075797Y-79890104D01*
X177240499Y-79806184D01*
X177240498Y-79806183D01*
X177240499Y-79806183D01*
X176613973Y-79179659D01*
X176580488Y-79118336D01*
X176585472Y-79048645D01*
X176627343Y-78992711D01*
X176669557Y-78972204D01*
X176692993Y-78965925D01*
X176807007Y-78900099D01*
X176900099Y-78807007D01*
X176965925Y-78692993D01*
X176972204Y-78669558D01*
X177008568Y-78609901D01*
X177071415Y-78579372D01*
X177140791Y-78587667D01*
X177179659Y-78613974D01*
X177806183Y-79240498D01*
X177806184Y-79240499D01*
X177890104Y-79075797D01*
X177963065Y-78851247D01*
X178000000Y-78618052D01*
X178000000Y-78381947D01*
X177963065Y-78148752D01*
X177890102Y-77924197D01*
X177806184Y-77759499D01*
X177806183Y-77759498D01*
X177179659Y-78386025D01*
X177118336Y-78419510D01*
X177048645Y-78414526D01*
X176992711Y-78372655D01*
X176972204Y-78330442D01*
X176965925Y-78307007D01*
X176965923Y-78307003D01*
X176965923Y-78307002D01*
X176919739Y-78227011D01*
X176900099Y-78192993D01*
X176807007Y-78099901D01*
X176724605Y-78052326D01*
X176692996Y-78034076D01*
X176692994Y-78034075D01*
X176669558Y-78027795D01*
X176609899Y-77991428D01*
X176579371Y-77928580D01*
X176587668Y-77859205D01*
X176613972Y-77820341D01*
X177240498Y-77193814D01*
X177224921Y-77185877D01*
X177075806Y-77109898D01*
X177006399Y-77087346D01*
X176944215Y-77067141D01*
X176914746Y-77046991D01*
X176618057Y-77000000D01*
X176618052Y-77000000D01*
X176381948Y-77000000D01*
X176381943Y-77000000D01*
X176148755Y-77036933D01*
X175924191Y-77109899D01*
X175856213Y-77144535D01*
X175786023Y-77180298D01*
X175762786Y-77185877D01*
X175759498Y-77193813D01*
X176386026Y-77820340D01*
X176419511Y-77881663D01*
X176414527Y-77951354D01*
X176372656Y-78007288D01*
X176330442Y-78027795D01*
X176307005Y-78034075D01*
X176307003Y-78034076D01*
X176192996Y-78099899D01*
X176192990Y-78099903D01*
X176099903Y-78192990D01*
X176099899Y-78192996D01*
X176034076Y-78307003D01*
X176034075Y-78307005D01*
X176027795Y-78330442D01*
X175991428Y-78390101D01*
X175928580Y-78420629D01*
X175859205Y-78412332D01*
X175820340Y-78386026D01*
X175193813Y-77759498D01*
X175185876Y-77762786D01*
X175180298Y-77786025D01*
X175109899Y-77924191D01*
X175109898Y-77924193D01*
X175109898Y-77924194D01*
X175106400Y-77934961D01*
X175036933Y-78148755D01*
X175000000Y-78381941D01*
X165268969Y-78381941D01*
X164460960Y-77573932D01*
X164440530Y-77546979D01*
X163741383Y-76302127D01*
X163725500Y-76241409D01*
X163725500Y-76062512D01*
X163725500Y-76062500D01*
X163725499Y-76062486D01*
X163704434Y-75902486D01*
X163704188Y-75900621D01*
X163697582Y-75850437D01*
X163686993Y-75770007D01*
X163610639Y-75485048D01*
X163497743Y-75212493D01*
X163497738Y-75212484D01*
X163497736Y-75212480D01*
X163485874Y-75191935D01*
X163485873Y-75191934D01*
X163350241Y-74957010D01*
X163350238Y-74957006D01*
X163170647Y-74722959D01*
X163170641Y-74722952D01*
X162962047Y-74514358D01*
X162962040Y-74514352D01*
X162727993Y-74334761D01*
X162692394Y-74314208D01*
X162472507Y-74187256D01*
X162472457Y-74187232D01*
X162471819Y-74186972D01*
X162204003Y-74076037D01*
X162204002Y-74076037D01*
X162199962Y-74074363D01*
X161966428Y-74011789D01*
X161914993Y-73998007D01*
X161914987Y-73998006D01*
X161914986Y-73998006D01*
X161893424Y-73995167D01*
X161866113Y-73991571D01*
X161866112Y-73991570D01*
X161622520Y-73959500D01*
X161622513Y-73959500D01*
X161622506Y-73959500D01*
X161327494Y-73959500D01*
X161327486Y-73959500D01*
X161327485Y-73959500D01*
X161323563Y-73960016D01*
X161262831Y-73952792D01*
X160599462Y-73697349D01*
X160556340Y-73669313D01*
X160071815Y-73184788D01*
X160050666Y-73156538D01*
X160045244Y-73146608D01*
X160030391Y-73078338D01*
X160054805Y-73012873D01*
X160110735Y-72971001D01*
X160114614Y-72969554D01*
X160117950Y-72968311D01*
X160161264Y-72960500D01*
X173709237Y-72960500D01*
X173776276Y-72980185D01*
G37*
%TD.AperFunction*%
%TD*%
%TA.AperFunction,NonConductor*%
G36*
X128460208Y-72965521D02*
G01*
X128471061Y-72968707D01*
X128529842Y-73006477D01*
X128558871Y-73070031D01*
X128548932Y-73139190D01*
X128548931Y-73139192D01*
X128545746Y-73146167D01*
X128520630Y-73182343D01*
X128193657Y-73509314D01*
X128150535Y-73537349D01*
X127487165Y-73792792D01*
X127426425Y-73800015D01*
X127422517Y-73799500D01*
X127422513Y-73799500D01*
X127422506Y-73799500D01*
X127127494Y-73799500D01*
X127127488Y-73799500D01*
X127127483Y-73799500D01*
X127125406Y-73799705D01*
X127123392Y-73800039D01*
X126983389Y-73818470D01*
X126948105Y-73818051D01*
X126936930Y-73816309D01*
X126920795Y-73808708D01*
X126914353Y-73807704D01*
X126909478Y-73803377D01*
X126873722Y-73786534D01*
X126836647Y-73727313D01*
X126837473Y-73657449D01*
X126838552Y-73653932D01*
X126869421Y-73602604D01*
X127462603Y-73009423D01*
X127490853Y-72988275D01*
X127513945Y-72975667D01*
X127573370Y-72960500D01*
X128425281Y-72960500D01*
X128460208Y-72965521D01*
G37*
%TD.AperFunction*%
%TA.AperFunction,NonConductor*%
G36*
X124994488Y-75632446D02*
G01*
X125036359Y-75688380D01*
X125036363Y-75688390D01*
X125037645Y-75691828D01*
X125044399Y-75751337D01*
X125024502Y-75902475D01*
X125024501Y-75902481D01*
X125024500Y-75902505D01*
X125024500Y-77197493D01*
X125024501Y-77197524D01*
X125043470Y-77341609D01*
X125043051Y-77376892D01*
X125041309Y-77388067D01*
X125011534Y-77451275D01*
X124952313Y-77488350D01*
X124882448Y-77487523D01*
X124882427Y-77487517D01*
X124878919Y-77486441D01*
X124827600Y-77455573D01*
X124785961Y-77413934D01*
X124765527Y-77386974D01*
X124729270Y-77322418D01*
X124329557Y-76610718D01*
X124313892Y-76542628D01*
X124329556Y-76489282D01*
X124765530Y-75713018D01*
X124785962Y-75686062D01*
X124822574Y-75649451D01*
X124850821Y-75628304D01*
X124860753Y-75622881D01*
X124878173Y-75619091D01*
X124883898Y-75615966D01*
X124890402Y-75616431D01*
X124929023Y-75608030D01*
X124994488Y-75632446D01*
G37*
%TD.AperFunction*%
%TA.AperFunction,NonConductor*%
G36*
X148167606Y-74965523D02*
G01*
X148182604Y-74969927D01*
X148197594Y-74979557D01*
X148214675Y-74984567D01*
X148241355Y-75007672D01*
X148242542Y-75009041D01*
X148270018Y-75063902D01*
X148271663Y-75071460D01*
X148274500Y-75097831D01*
X148274500Y-75707328D01*
X148254815Y-75774367D01*
X148205955Y-75818237D01*
X148053816Y-75894307D01*
X147998361Y-75907398D01*
X144754681Y-75907398D01*
X144722580Y-75903171D01*
X143153576Y-75482653D01*
X143153571Y-75482652D01*
X143153567Y-75482651D01*
X143124737Y-75477511D01*
X143107251Y-75474394D01*
X143096922Y-75472094D01*
X143014511Y-75450012D01*
X142983219Y-75441628D01*
X142925442Y-75434021D01*
X142814208Y-75419376D01*
X142723231Y-75407398D01*
X142723230Y-75407398D01*
X142723223Y-75407398D01*
X142460983Y-75407398D01*
X142460975Y-75407398D01*
X142460967Y-75407398D01*
X142229876Y-75437823D01*
X142229875Y-75437824D01*
X142200995Y-75441627D01*
X142200987Y-75441628D01*
X142038978Y-75485038D01*
X141947681Y-75509500D01*
X141705408Y-75609852D01*
X141705384Y-75609865D01*
X141478298Y-75740972D01*
X141270255Y-75900612D01*
X141270245Y-75900621D01*
X141084826Y-76086040D01*
X141084817Y-76086050D01*
X140925177Y-76294093D01*
X140794070Y-76521179D01*
X140794057Y-76521203D01*
X140693705Y-76763476D01*
X140625834Y-77016779D01*
X140625832Y-77016790D01*
X140602037Y-77197524D01*
X140591603Y-77276770D01*
X140591603Y-77539025D01*
X140618226Y-77741237D01*
X140625833Y-77799014D01*
X140692416Y-78047507D01*
X140692417Y-78047512D01*
X140693699Y-78052295D01*
X140693707Y-78052324D01*
X140794057Y-78294591D01*
X140794070Y-78294615D01*
X140925177Y-78521701D01*
X141084821Y-78729749D01*
X141084824Y-78729753D01*
X141270240Y-78915170D01*
X141270243Y-78915172D01*
X141270251Y-78915179D01*
X141270252Y-78915180D01*
X141318657Y-78952322D01*
X141344566Y-78972203D01*
X141478293Y-79074818D01*
X141478296Y-79074819D01*
X141478299Y-79074822D01*
X141590663Y-79139695D01*
X141705384Y-79205929D01*
X141705394Y-79205934D01*
X141705402Y-79205939D01*
X141705412Y-79205944D01*
X141933691Y-79300500D01*
X141947684Y-79306296D01*
X142200987Y-79374168D01*
X142460983Y-79408398D01*
X142460990Y-79408398D01*
X142723216Y-79408398D01*
X142723223Y-79408398D01*
X142983219Y-79374168D01*
X143103943Y-79341819D01*
X143116176Y-79339197D01*
X143153568Y-79333144D01*
X144523715Y-78965923D01*
X144722577Y-78912625D01*
X144754678Y-78908398D01*
X147998361Y-78908398D01*
X148053815Y-78921489D01*
X148568794Y-79178978D01*
X148591695Y-79193780D01*
X148640909Y-79233909D01*
X148721593Y-79299698D01*
X148901951Y-79393909D01*
X149097582Y-79449886D01*
X149216963Y-79460500D01*
X151833036Y-79460499D01*
X151952418Y-79449886D01*
X152148049Y-79393909D01*
X152328407Y-79299698D01*
X152486109Y-79171109D01*
X152614698Y-79013407D01*
X152708909Y-78833049D01*
X152764886Y-78637418D01*
X152775500Y-78518037D01*
X152775499Y-75102327D01*
X152780521Y-75067397D01*
X152784262Y-75054656D01*
X152784924Y-75052398D01*
X152822695Y-74993622D01*
X152824075Y-74992426D01*
X152878919Y-74964977D01*
X152886478Y-74963333D01*
X152912831Y-74960500D01*
X153890141Y-74960500D01*
X153920775Y-74964904D01*
X153925073Y-74965521D01*
X153938392Y-74969432D01*
X153997170Y-75007206D01*
X154026196Y-75070761D01*
X154026198Y-75070778D01*
X154026429Y-75072386D01*
X154020873Y-75130564D01*
X154019235Y-75135298D01*
X154009438Y-75156752D01*
X153977262Y-75212480D01*
X153977260Y-75212485D01*
X153977255Y-75212495D01*
X153864367Y-75485028D01*
X153864360Y-75485048D01*
X153830877Y-75610014D01*
X153795787Y-75740972D01*
X153788008Y-75770004D01*
X153788007Y-75770007D01*
X153788006Y-75770013D01*
X153788003Y-75770035D01*
X153749500Y-76062478D01*
X153749500Y-77357520D01*
X153766942Y-77489996D01*
X153781571Y-77601113D01*
X153788007Y-77649993D01*
X153861479Y-77924197D01*
X153864192Y-77934321D01*
X153864358Y-77934940D01*
X153864361Y-77934952D01*
X153864367Y-77934970D01*
X153932686Y-78099904D01*
X153969016Y-78187613D01*
X153976972Y-78206819D01*
X153977232Y-78207457D01*
X153977256Y-78207507D01*
X154080324Y-78386026D01*
X154124761Y-78462993D01*
X154304352Y-78697040D01*
X154304358Y-78697047D01*
X154512952Y-78905641D01*
X154512959Y-78905647D01*
X154747006Y-79085238D01*
X154808934Y-79120992D01*
X154999029Y-79230744D01*
X155004244Y-79233754D01*
X155004263Y-79233765D01*
X155004849Y-79234103D01*
X155009988Y-79235847D01*
X155213589Y-79320182D01*
X155261914Y-79340199D01*
X155275048Y-79345639D01*
X155560007Y-79421993D01*
X155838410Y-79458645D01*
X155838412Y-79458646D01*
X155846222Y-79459674D01*
X155852478Y-79460498D01*
X155852494Y-79460500D01*
X155852501Y-79460500D01*
X156147499Y-79460500D01*
X156147506Y-79460500D01*
X156439993Y-79421993D01*
X156724952Y-79345639D01*
X156997507Y-79232743D01*
X157209760Y-79110197D01*
X157242520Y-79097082D01*
X157257712Y-79093397D01*
X157327498Y-79096720D01*
X157332394Y-79098414D01*
X157335878Y-79099620D01*
X157383007Y-79129121D01*
X159358403Y-81104517D01*
X159549479Y-81243343D01*
X159700291Y-81320185D01*
X159708944Y-81324594D01*
X159744711Y-81342818D01*
X159747481Y-81344230D01*
X159753469Y-81347281D01*
X159755070Y-81348218D01*
X159758757Y-81350004D01*
X159760782Y-81351009D01*
X159764545Y-81352071D01*
X159814472Y-81368292D01*
X159844934Y-81378190D01*
X159844935Y-81378191D01*
X159864842Y-81384659D01*
X159984544Y-81423553D01*
X160217816Y-81460500D01*
X160217821Y-81460500D01*
X161205853Y-81460500D01*
X161240785Y-81465521D01*
X161266029Y-81472934D01*
X161318775Y-81504230D01*
X161950573Y-82136028D01*
X161971723Y-82164280D01*
X161984331Y-82187369D01*
X161999500Y-82246798D01*
X161999500Y-83099949D01*
X161999499Y-83099953D01*
X161999500Y-83099956D01*
X161994475Y-83134890D01*
X161990564Y-83148207D01*
X161952787Y-83206983D01*
X161889229Y-83236005D01*
X161889221Y-83236006D01*
X161887613Y-83236237D01*
X161829435Y-83230681D01*
X161827101Y-83229873D01*
X161824695Y-83229040D01*
X161803246Y-83219246D01*
X161686700Y-83151958D01*
X161686699Y-83151957D01*
X161686693Y-83151954D01*
X161448474Y-83053281D01*
X161448467Y-83053278D01*
X161444425Y-83051603D01*
X161309818Y-83015536D01*
X161191116Y-82983730D01*
X161133299Y-82976118D01*
X160931128Y-82949500D01*
X160931127Y-82949500D01*
X160931120Y-82949500D01*
X160668880Y-82949500D01*
X160668872Y-82949500D01*
X160668864Y-82949500D01*
X160437773Y-82979925D01*
X160437772Y-82979926D01*
X160408884Y-82983730D01*
X160155578Y-83051602D01*
X159913305Y-83151954D01*
X159913281Y-83151967D01*
X159686194Y-83283075D01*
X159546141Y-83390545D01*
X159546139Y-83390547D01*
X159536374Y-83398040D01*
X159516843Y-83413025D01*
X159486081Y-83430300D01*
X159458008Y-83441155D01*
X159413288Y-83449500D01*
X154711903Y-83449500D01*
X154662718Y-83457290D01*
X154534892Y-83477536D01*
X154534880Y-83477537D01*
X154534881Y-83477538D01*
X154488267Y-83484919D01*
X154488268Y-83484920D01*
X154478629Y-83486446D01*
X154328879Y-83535104D01*
X154254003Y-83559433D01*
X154058210Y-83659195D01*
X154043559Y-83666661D01*
X153852513Y-83805463D01*
X153852484Y-83805485D01*
X151556562Y-86101407D01*
X151546369Y-86110533D01*
X151515850Y-86134960D01*
X150481205Y-87150994D01*
X150481202Y-87150998D01*
X150474814Y-87158411D01*
X150468564Y-87165143D01*
X150333410Y-87300297D01*
X150333399Y-87300309D01*
X150189737Y-87487534D01*
X150189736Y-87487536D01*
X150189720Y-87487560D01*
X150189719Y-87487561D01*
X150143815Y-87567070D01*
X150125654Y-87584386D01*
X150110586Y-87604451D01*
X150096672Y-87612020D01*
X150093248Y-87615286D01*
X150079583Y-87621318D01*
X149916799Y-87681748D01*
X149873644Y-87689500D01*
X146052292Y-87689500D01*
X146017356Y-87684477D01*
X145992114Y-87677065D01*
X145939369Y-87645769D01*
X136949084Y-78655485D01*
X136949082Y-78655483D01*
X136758005Y-78516657D01*
X136725312Y-78499999D01*
X136547568Y-78409433D01*
X136322940Y-78336446D01*
X136322934Y-78336445D01*
X136089674Y-78299500D01*
X136089669Y-78299500D01*
X136089664Y-78299500D01*
X129384859Y-78299500D01*
X129384856Y-78299499D01*
X129384855Y-78299500D01*
X129349920Y-78294476D01*
X129336602Y-78290565D01*
X129277825Y-78252789D01*
X129248803Y-78189232D01*
X129248801Y-78189221D01*
X129248570Y-78187613D01*
X129254125Y-78129437D01*
X129255770Y-78124686D01*
X129265573Y-78103226D01*
X129267491Y-78099905D01*
X129297743Y-78047507D01*
X129410639Y-77774952D01*
X129486993Y-77489993D01*
X129525500Y-77197506D01*
X129525500Y-77018588D01*
X129541382Y-76957870D01*
X130240532Y-75713014D01*
X130260956Y-75686069D01*
X130937608Y-75009418D01*
X130965853Y-74988275D01*
X130988945Y-74975667D01*
X131048370Y-74960500D01*
X148132670Y-74960500D01*
X148167606Y-74965523D01*
G37*
%TD.AperFunction*%
%TA.AperFunction,NonConductor*%
G36*
X124430321Y-81171963D02*
G01*
X124456956Y-81181880D01*
X124473662Y-81190393D01*
X124474496Y-81190821D01*
X124474843Y-81191001D01*
X124478618Y-81192066D01*
X124629151Y-81240977D01*
X124698631Y-81263553D01*
X124931903Y-81300500D01*
X124931908Y-81300500D01*
X135280853Y-81300500D01*
X135314499Y-81305337D01*
X135315785Y-81305521D01*
X135341029Y-81312934D01*
X135393775Y-81344230D01*
X138260475Y-84210930D01*
X139612219Y-85562674D01*
X140951359Y-86901813D01*
X140972508Y-86930063D01*
X140977929Y-86939990D01*
X140981720Y-86957417D01*
X140990267Y-86973072D01*
X140988994Y-86990848D01*
X140992783Y-87008263D01*
X140986550Y-87024974D01*
X140985277Y-87042764D01*
X140974596Y-87057029D01*
X140968369Y-87073728D01*
X140954091Y-87084416D01*
X140943402Y-87098694D01*
X140912450Y-87115591D01*
X140912437Y-87115601D01*
X140912423Y-87115606D01*
X140908985Y-87116888D01*
X140849474Y-87123641D01*
X140841223Y-87122555D01*
X140822109Y-87120039D01*
X140820091Y-87119705D01*
X140818021Y-87119500D01*
X140818016Y-87119500D01*
X140818011Y-87119500D01*
X139181989Y-87119500D01*
X139181983Y-87119500D01*
X139181981Y-87119500D01*
X139175861Y-87120253D01*
X139174955Y-87120425D01*
X138947992Y-87150305D01*
X138864988Y-87172546D01*
X138720006Y-87211394D01*
X138720004Y-87211394D01*
X138720003Y-87211395D01*
X138662623Y-87235161D01*
X138644033Y-87241193D01*
X137732574Y-87459311D01*
X137592954Y-87492723D01*
X137578863Y-87496095D01*
X137550004Y-87499500D01*
X135162578Y-87499500D01*
X135130477Y-87495273D01*
X133557841Y-87073781D01*
X133513844Y-87066105D01*
X133503064Y-87063725D01*
X133391126Y-87033732D01*
X133391116Y-87033730D01*
X133333339Y-87026123D01*
X133333338Y-87026122D01*
X133131128Y-86999500D01*
X133131127Y-86999500D01*
X133131120Y-86999500D01*
X131868880Y-86999500D01*
X131868872Y-86999500D01*
X131868864Y-86999500D01*
X131637773Y-87029925D01*
X131637772Y-87029926D01*
X131608884Y-87033730D01*
X131476784Y-87069126D01*
X131355578Y-87101602D01*
X131113305Y-87201954D01*
X131113281Y-87201967D01*
X130886195Y-87333074D01*
X130678152Y-87492714D01*
X130678142Y-87492723D01*
X130492723Y-87678142D01*
X130492714Y-87678152D01*
X130333074Y-87886195D01*
X130201967Y-88113281D01*
X130201954Y-88113305D01*
X130101602Y-88355578D01*
X130033729Y-88608885D01*
X130032754Y-88616296D01*
X130032492Y-88618285D01*
X130024425Y-88679560D01*
X130000068Y-88864561D01*
X129999500Y-88868872D01*
X129999500Y-89131127D01*
X130019572Y-89283579D01*
X130033730Y-89391116D01*
X130040338Y-89415777D01*
X130101600Y-89644414D01*
X130101608Y-89644437D01*
X130170841Y-89811577D01*
X130170841Y-89811579D01*
X130170842Y-89811580D01*
X130179568Y-89845773D01*
X130181053Y-89859575D01*
X130168646Y-89928334D01*
X130121038Y-89979468D01*
X130116533Y-89982141D01*
X130053258Y-89999500D01*
X129726254Y-89999500D01*
X129691318Y-89994477D01*
X129666076Y-89987065D01*
X129613331Y-89955769D01*
X127820104Y-88162542D01*
X126898755Y-87241193D01*
X125974447Y-86316885D01*
X125953303Y-86288641D01*
X125947879Y-86278707D01*
X125933028Y-86210439D01*
X125957444Y-86144974D01*
X126013378Y-86103103D01*
X126013384Y-86103100D01*
X126020573Y-86100419D01*
X126063901Y-86092603D01*
X133245323Y-86092603D01*
X133277424Y-86096830D01*
X133487159Y-86153042D01*
X134846432Y-86517349D01*
X134892780Y-86525611D01*
X134903054Y-86527899D01*
X135016782Y-86558373D01*
X135276778Y-86592603D01*
X135276785Y-86592603D01*
X135539011Y-86592603D01*
X135539018Y-86592603D01*
X135799014Y-86558373D01*
X136052317Y-86490501D01*
X136239264Y-86413065D01*
X136294588Y-86390149D01*
X136294589Y-86390148D01*
X136294595Y-86390146D01*
X136294602Y-86390141D01*
X136295345Y-86389834D01*
X136298061Y-86388144D01*
X136521701Y-86259027D01*
X136729749Y-86099385D01*
X136729753Y-86099380D01*
X136729758Y-86099377D01*
X136818243Y-86010892D01*
X136910331Y-85918805D01*
X136911107Y-85918109D01*
X136914656Y-85914488D01*
X136915155Y-85913983D01*
X136915165Y-85913969D01*
X136915172Y-85913963D01*
X136915175Y-85913958D01*
X136915180Y-85913954D01*
X136915296Y-85913802D01*
X136915522Y-85913514D01*
X136915526Y-85913510D01*
X136918972Y-85909096D01*
X136919472Y-85908359D01*
X137074822Y-85705906D01*
X137205941Y-85478800D01*
X137306296Y-85236522D01*
X137374168Y-84983219D01*
X137408398Y-84723223D01*
X137408398Y-84460983D01*
X137374168Y-84200987D01*
X137306296Y-83947684D01*
X137306292Y-83947674D01*
X137205944Y-83705412D01*
X137205939Y-83705402D01*
X137205929Y-83705384D01*
X137074822Y-83478298D01*
X136938390Y-83300500D01*
X136925020Y-83283076D01*
X136915180Y-83270252D01*
X136915179Y-83270251D01*
X136915172Y-83270243D01*
X136914118Y-83269189D01*
X136914115Y-83269185D01*
X136729753Y-83084824D01*
X136729749Y-83084821D01*
X136521701Y-82925177D01*
X136294615Y-82794070D01*
X136294591Y-82794057D01*
X136056372Y-82695384D01*
X136056365Y-82695381D01*
X136052323Y-82693706D01*
X135860829Y-82642396D01*
X135799014Y-82625833D01*
X135741237Y-82618226D01*
X135539026Y-82591603D01*
X135539025Y-82591603D01*
X135539018Y-82591603D01*
X135276778Y-82591603D01*
X135276770Y-82591603D01*
X135276762Y-82591603D01*
X135045671Y-82622028D01*
X135045670Y-82622029D01*
X135031226Y-82623931D01*
X135016780Y-82625833D01*
X134896090Y-82658171D01*
X134883821Y-82660801D01*
X134846441Y-82666854D01*
X134846433Y-82666856D01*
X133277421Y-83087376D01*
X133245320Y-83091603D01*
X123741549Y-83091603D01*
X123706614Y-83086580D01*
X123695760Y-83083393D01*
X123636982Y-83045619D01*
X123607957Y-82982063D01*
X123608264Y-82979926D01*
X123617893Y-82912922D01*
X123619420Y-82909577D01*
X123656738Y-82862700D01*
X123664699Y-82856592D01*
X123831592Y-82689699D01*
X123975273Y-82502450D01*
X124093284Y-82298049D01*
X124183606Y-82079993D01*
X124244693Y-81852014D01*
X124275500Y-81618011D01*
X124275500Y-81381989D01*
X124267303Y-81319727D01*
X124267721Y-81284444D01*
X124269787Y-81271197D01*
X124299564Y-81207995D01*
X124358787Y-81170921D01*
X124421961Y-81169904D01*
X124430321Y-81171963D01*
G37*
%TD.AperFunction*%
%TA.AperFunction,NonConductor*%
G36*
X142658307Y-88631659D02*
G01*
X142658316Y-88631662D01*
X142658317Y-88631663D01*
X142661823Y-88632738D01*
X142713154Y-88663609D01*
X143591556Y-89542010D01*
X144384063Y-90334517D01*
X144511447Y-90427067D01*
X144575140Y-90473344D01*
X144663696Y-90518465D01*
X144663704Y-90518469D01*
X144671596Y-90522490D01*
X144718887Y-90546586D01*
X144779127Y-90577280D01*
X144780730Y-90578218D01*
X144784429Y-90580010D01*
X144786437Y-90581008D01*
X144790202Y-90582070D01*
X144857485Y-90603931D01*
X144900795Y-90618003D01*
X144900796Y-90618004D01*
X144937266Y-90629853D01*
X145010204Y-90653553D01*
X145243476Y-90690500D01*
X145243481Y-90690500D01*
X149873650Y-90690500D01*
X149879163Y-90691490D01*
X149882304Y-90690802D01*
X149916803Y-90698251D01*
X150079579Y-90758676D01*
X150135578Y-90800461D01*
X150143813Y-90812925D01*
X150187883Y-90889257D01*
X150188824Y-90891006D01*
X150189719Y-90892437D01*
X150189727Y-90892450D01*
X150189729Y-90892452D01*
X150189961Y-90892823D01*
X150191247Y-90894431D01*
X150333399Y-91079689D01*
X150333403Y-91079694D01*
X150333406Y-91079697D01*
X150333412Y-91079704D01*
X150500295Y-91246587D01*
X150500302Y-91246593D01*
X150500309Y-91246598D01*
X150500312Y-91246601D01*
X150525933Y-91266261D01*
X150525935Y-91266262D01*
X150525937Y-91266264D01*
X150525946Y-91266271D01*
X150548135Y-91288991D01*
X150550596Y-91291511D01*
X150557267Y-91300647D01*
X150580910Y-91366393D01*
X150565254Y-91434486D01*
X150515286Y-91483296D01*
X150512047Y-91485016D01*
X150453891Y-91499500D01*
X144770719Y-91499500D01*
X144735783Y-91494477D01*
X144710541Y-91487065D01*
X144657796Y-91455769D01*
X142593861Y-89391834D01*
X142588651Y-89383895D01*
X142583705Y-89380337D01*
X142566205Y-89349687D01*
X142559647Y-89333075D01*
X142497952Y-89176803D01*
X142490351Y-89115088D01*
X142500500Y-89038011D01*
X142500500Y-88801989D01*
X142497286Y-88777575D01*
X142497705Y-88742291D01*
X142497786Y-88741769D01*
X142499448Y-88731113D01*
X142529222Y-88667908D01*
X142588443Y-88630833D01*
X142658307Y-88631659D01*
G37*
%TD.AperFunction*%
%TA.AperFunction,NonConductor*%
G36*
X159422920Y-86452445D02*
G01*
X159436542Y-86453509D01*
X159440463Y-86454389D01*
X159449151Y-86456940D01*
X159453418Y-86457296D01*
X159461741Y-86459164D01*
X159509865Y-86481683D01*
X159510036Y-86481749D01*
X159510051Y-86481770D01*
X159510081Y-86481784D01*
X159521440Y-86490501D01*
X159686195Y-86616924D01*
X159913281Y-86748031D01*
X159913291Y-86748036D01*
X159913299Y-86748041D01*
X159913309Y-86748046D01*
X160155571Y-86848394D01*
X160155581Y-86848398D01*
X160408884Y-86916270D01*
X160668880Y-86950500D01*
X160668887Y-86950500D01*
X160931113Y-86950500D01*
X160931120Y-86950500D01*
X161191116Y-86916270D01*
X161444419Y-86848398D01*
X161686697Y-86748043D01*
X161686704Y-86748038D01*
X161686708Y-86748037D01*
X161719665Y-86729008D01*
X161798064Y-86683744D01*
X161830824Y-86670630D01*
X161844311Y-86667358D01*
X161914102Y-86670682D01*
X161970981Y-86711165D01*
X161971987Y-86712443D01*
X161996309Y-86765667D01*
X161997259Y-86770596D01*
X161999500Y-86794058D01*
X161999500Y-91929280D01*
X161999499Y-91929282D01*
X161999500Y-91929283D01*
X161994476Y-91964217D01*
X161987064Y-91989458D01*
X161955769Y-92042202D01*
X159781831Y-94216138D01*
X159739684Y-94243794D01*
X159566806Y-94312044D01*
X159505088Y-94319646D01*
X159432112Y-94310039D01*
X159430097Y-94309705D01*
X159428021Y-94309500D01*
X159428016Y-94309500D01*
X159428011Y-94309500D01*
X159191989Y-94309500D01*
X159191983Y-94309500D01*
X159191981Y-94309500D01*
X159185861Y-94310253D01*
X159184955Y-94310425D01*
X158957992Y-94340305D01*
X158730001Y-94401395D01*
X158511947Y-94491716D01*
X158511947Y-94491717D01*
X158511943Y-94491719D01*
X158462639Y-94520185D01*
X158307550Y-94609725D01*
X158303431Y-94612886D01*
X158281484Y-94626354D01*
X158277134Y-94628436D01*
X158274661Y-94629392D01*
X158274003Y-94629934D01*
X158267881Y-94632865D01*
X158263230Y-94633619D01*
X158244028Y-94641412D01*
X158243667Y-94641501D01*
X158220709Y-94640517D01*
X158198913Y-94644053D01*
X158187516Y-94639094D01*
X158174111Y-94638520D01*
X158173207Y-94638213D01*
X158142625Y-94622838D01*
X158142163Y-94622519D01*
X158136073Y-94616712D01*
X158134845Y-94616178D01*
X158133671Y-94614422D01*
X158117460Y-94598964D01*
X158117212Y-94599188D01*
X158116699Y-94598618D01*
X158115943Y-94597518D01*
X158114047Y-94595710D01*
X158110808Y-94591466D01*
X158111448Y-94590977D01*
X158098382Y-94571961D01*
X158072001Y-94520185D01*
X158053343Y-94483567D01*
X157993641Y-94401394D01*
X157914518Y-94292490D01*
X155477510Y-91855483D01*
X155286434Y-91716657D01*
X155233552Y-91689712D01*
X155076000Y-91609434D01*
X155022108Y-91591923D01*
X154851368Y-91536446D01*
X154851362Y-91536445D01*
X154618102Y-91499500D01*
X154618097Y-91499500D01*
X154618092Y-91499500D01*
X152933225Y-91499500D01*
X152898290Y-91494477D01*
X152887436Y-91491290D01*
X152828658Y-91453516D01*
X152799633Y-91389960D01*
X152800191Y-91386077D01*
X152809569Y-91320819D01*
X152811096Y-91317474D01*
X152848410Y-91270600D01*
X152854061Y-91266264D01*
X152879699Y-91246592D01*
X153046592Y-91079699D01*
X153190273Y-90892450D01*
X153216225Y-90847498D01*
X153238035Y-90819763D01*
X153249350Y-90808973D01*
X153311446Y-90776957D01*
X153313278Y-90776604D01*
X153374455Y-90780259D01*
X153381826Y-90782615D01*
X153406066Y-90793339D01*
X153431951Y-90808284D01*
X153650007Y-90898606D01*
X153877986Y-90959693D01*
X154111989Y-90990500D01*
X154111996Y-90990500D01*
X154348004Y-90990500D01*
X154348011Y-90990500D01*
X154582014Y-90959693D01*
X154809993Y-90898606D01*
X155028049Y-90808284D01*
X155232450Y-90690273D01*
X155406841Y-90556458D01*
X155430139Y-90542352D01*
X155438907Y-90538283D01*
X155448590Y-90533791D01*
X155517681Y-90523433D01*
X155523726Y-90524265D01*
X155573840Y-90542783D01*
X155576697Y-90544619D01*
X155576697Y-90544618D01*
X155578696Y-90545903D01*
X155587127Y-90551831D01*
X155661483Y-90608885D01*
X155767550Y-90690273D01*
X155882811Y-90756819D01*
X155968505Y-90806295D01*
X155970241Y-90807374D01*
X155971663Y-90808163D01*
X155971937Y-90808276D01*
X155971943Y-90808280D01*
X155971948Y-90808282D01*
X155971951Y-90808284D01*
X156190007Y-90898606D01*
X156417986Y-90959693D01*
X156651989Y-90990500D01*
X156651996Y-90990500D01*
X156888004Y-90990500D01*
X156888011Y-90990500D01*
X157122014Y-90959693D01*
X157349993Y-90898606D01*
X157568049Y-90808284D01*
X157772450Y-90690273D01*
X157946841Y-90556458D01*
X157970139Y-90542352D01*
X157978907Y-90538283D01*
X157988590Y-90533791D01*
X158057681Y-90523433D01*
X158063726Y-90524265D01*
X158113840Y-90542783D01*
X158116697Y-90544619D01*
X158116697Y-90544618D01*
X158118696Y-90545903D01*
X158127127Y-90551831D01*
X158201483Y-90608885D01*
X158307550Y-90690273D01*
X158422811Y-90756819D01*
X158508505Y-90806295D01*
X158510241Y-90807374D01*
X158511663Y-90808163D01*
X158511937Y-90808276D01*
X158511943Y-90808280D01*
X158511948Y-90808282D01*
X158511951Y-90808284D01*
X158730007Y-90898606D01*
X158957986Y-90959693D01*
X159191989Y-90990500D01*
X159191996Y-90990500D01*
X159428004Y-90990500D01*
X159428011Y-90990500D01*
X159662014Y-90959693D01*
X159889993Y-90898606D01*
X160108049Y-90808284D01*
X160312450Y-90690273D01*
X160499699Y-90546592D01*
X160499701Y-90546589D01*
X160499706Y-90546586D01*
X160666587Y-90379704D01*
X160666592Y-90379699D01*
X160810273Y-90192450D01*
X160928284Y-89988049D01*
X161018606Y-89769993D01*
X161079693Y-89542014D01*
X161110500Y-89308011D01*
X161110500Y-89071989D01*
X161079693Y-88837986D01*
X161018606Y-88610007D01*
X160928284Y-88391951D01*
X160928282Y-88391948D01*
X160928280Y-88391943D01*
X160928277Y-88391938D01*
X160928162Y-88391660D01*
X160927382Y-88390255D01*
X160926297Y-88388509D01*
X160907869Y-88356592D01*
X160886118Y-88318918D01*
X160810273Y-88187550D01*
X160810272Y-88187548D01*
X160666595Y-88000305D01*
X160666589Y-88000297D01*
X160666574Y-88000281D01*
X160499712Y-87833420D01*
X160499704Y-87833412D01*
X160499697Y-87833406D01*
X160499694Y-87833403D01*
X160499689Y-87833399D01*
X160320032Y-87695544D01*
X160320027Y-87695541D01*
X160312454Y-87689730D01*
X160312453Y-87689729D01*
X160312450Y-87689727D01*
X160204670Y-87627500D01*
X160204166Y-87627209D01*
X160204088Y-87627163D01*
X160108065Y-87571724D01*
X160108048Y-87571715D01*
X159889997Y-87481395D01*
X159725809Y-87437401D01*
X159725808Y-87437400D01*
X159669864Y-87422409D01*
X159662119Y-87419780D01*
X159653951Y-87419245D01*
X159429889Y-87389747D01*
X159428208Y-87389500D01*
X159428017Y-87389500D01*
X159428011Y-87389500D01*
X159191989Y-87389500D01*
X159191983Y-87389500D01*
X159191981Y-87389500D01*
X159185861Y-87390253D01*
X159184955Y-87390425D01*
X158957992Y-87420305D01*
X158730001Y-87481395D01*
X158511950Y-87571715D01*
X158511942Y-87571719D01*
X158307545Y-87689730D01*
X158307536Y-87689736D01*
X158133137Y-87823557D01*
X158109802Y-87837681D01*
X158091375Y-87846223D01*
X158022274Y-87856558D01*
X158022266Y-87856557D01*
X158022261Y-87856557D01*
X158016200Y-87855720D01*
X157966125Y-87837202D01*
X157963298Y-87835385D01*
X157963297Y-87835385D01*
X157961356Y-87834138D01*
X157952911Y-87828199D01*
X157946861Y-87823557D01*
X157913619Y-87798049D01*
X157780032Y-87695544D01*
X157780027Y-87695541D01*
X157772454Y-87689730D01*
X157772453Y-87689729D01*
X157772450Y-87689727D01*
X157664670Y-87627500D01*
X157664166Y-87627209D01*
X157664088Y-87627163D01*
X157568065Y-87571724D01*
X157568048Y-87571715D01*
X157349997Y-87481395D01*
X157185809Y-87437401D01*
X157185808Y-87437400D01*
X157129864Y-87422409D01*
X157122119Y-87419780D01*
X157113951Y-87419245D01*
X156889889Y-87389747D01*
X156888208Y-87389500D01*
X156888017Y-87389500D01*
X156888011Y-87389500D01*
X156651989Y-87389500D01*
X156651983Y-87389500D01*
X156651981Y-87389500D01*
X156645861Y-87390253D01*
X156644955Y-87390425D01*
X156417992Y-87420305D01*
X156190001Y-87481395D01*
X155971950Y-87571715D01*
X155971942Y-87571719D01*
X155767545Y-87689730D01*
X155767536Y-87689736D01*
X155593137Y-87823557D01*
X155569802Y-87837681D01*
X155551375Y-87846223D01*
X155482274Y-87856558D01*
X155482266Y-87856557D01*
X155482261Y-87856557D01*
X155476200Y-87855720D01*
X155426125Y-87837202D01*
X155423298Y-87835385D01*
X155423297Y-87835385D01*
X155421356Y-87834138D01*
X155412911Y-87828199D01*
X155406861Y-87823557D01*
X155373619Y-87798049D01*
X155240032Y-87695544D01*
X155240027Y-87695541D01*
X155232454Y-87689730D01*
X155232453Y-87689729D01*
X155232450Y-87689727D01*
X155124670Y-87627500D01*
X155124166Y-87627209D01*
X155124088Y-87627163D01*
X155028065Y-87571724D01*
X155028048Y-87571715D01*
X154810002Y-87481397D01*
X154809997Y-87481395D01*
X154809993Y-87481394D01*
X154804100Y-87479815D01*
X154804095Y-87479813D01*
X154727585Y-87459311D01*
X154695148Y-87445421D01*
X154683300Y-87438200D01*
X154671302Y-87425004D01*
X154667925Y-87422945D01*
X154666197Y-87419388D01*
X154636299Y-87386502D01*
X154624709Y-87317605D01*
X154624903Y-87315983D01*
X154645336Y-87261199D01*
X154648152Y-87257038D01*
X154663147Y-87238878D01*
X155402604Y-86499423D01*
X155430854Y-86478275D01*
X155453946Y-86465667D01*
X155513371Y-86450500D01*
X159409390Y-86450500D01*
X159422920Y-86452445D01*
G37*
%TD.AperFunction*%
%TA.AperFunction,NonConductor*%
G36*
X139394816Y-90750516D02*
G01*
X140121569Y-91246601D01*
X140257857Y-91339632D01*
X140373516Y-91418581D01*
X140391288Y-91433315D01*
X143102490Y-94144517D01*
X143229874Y-94237067D01*
X143293567Y-94283344D01*
X143344902Y-94309500D01*
X143405365Y-94340307D01*
X143497559Y-94387283D01*
X143499158Y-94388219D01*
X143502874Y-94390019D01*
X143504864Y-94391008D01*
X143508627Y-94392069D01*
X143596815Y-94420723D01*
X143612154Y-94425707D01*
X143728631Y-94463553D01*
X143961903Y-94500500D01*
X143961908Y-94500500D01*
X150113835Y-94500500D01*
X150148762Y-94505521D01*
X150159615Y-94508707D01*
X150218396Y-94546477D01*
X150247425Y-94610031D01*
X150237486Y-94679190D01*
X150237485Y-94679192D01*
X150234300Y-94686167D01*
X150209184Y-94722342D01*
X150176186Y-94755339D01*
X150176182Y-94755343D01*
X150176175Y-94755352D01*
X150176169Y-94755359D01*
X150047999Y-94940362D01*
X150047995Y-94940368D01*
X150047990Y-94940378D01*
X149954903Y-95145315D01*
X149946668Y-95177993D01*
X149946669Y-95177994D01*
X149941500Y-95198509D01*
X149941500Y-95198510D01*
X149928093Y-95231159D01*
X149920159Y-95244625D01*
X149869176Y-95292388D01*
X149861602Y-95296209D01*
X149805750Y-95309500D01*
X143673411Y-95309500D01*
X143638475Y-95304477D01*
X143613233Y-95297065D01*
X143560488Y-95265769D01*
X139239507Y-90944788D01*
X139218364Y-90916549D01*
X139216082Y-90912370D01*
X139201222Y-90844102D01*
X139225630Y-90778634D01*
X139281558Y-90736755D01*
X139351249Y-90731761D01*
X139394816Y-90750516D01*
G37*
%TD.AperFunction*%
%TA.AperFunction,NonConductor*%
G36*
X157907306Y-99016115D02*
G01*
X157950496Y-99071036D01*
X157954675Y-99083294D01*
X157993042Y-99218606D01*
X157994797Y-99224793D01*
X157999500Y-99258619D01*
X157999500Y-100896652D01*
X157994576Y-100913418D01*
X157994477Y-100931588D01*
X157992756Y-100937449D01*
X157983116Y-100952448D01*
X157979815Y-100963691D01*
X157970959Y-100971364D01*
X157954981Y-100996227D01*
X157928099Y-101008503D01*
X157927011Y-101009446D01*
X157925768Y-101010006D01*
X157921497Y-101011900D01*
X157920318Y-101012056D01*
X157891425Y-101025251D01*
X157857538Y-101020378D01*
X157852233Y-101021082D01*
X157847738Y-101018969D01*
X157822267Y-101015307D01*
X157801301Y-100997142D01*
X157789000Y-100991360D01*
X157782301Y-100980680D01*
X157769470Y-100969563D01*
X157768756Y-100968452D01*
X157766918Y-100965593D01*
X157752746Y-100933558D01*
X157751875Y-100932170D01*
X157751881Y-100931603D01*
X157751455Y-100930641D01*
X157748606Y-100920007D01*
X157746317Y-100914482D01*
X157692395Y-100784302D01*
X157658284Y-100701951D01*
X157658282Y-100701948D01*
X157658280Y-100701943D01*
X157658277Y-100701938D01*
X157658164Y-100701665D01*
X157657374Y-100700241D01*
X157656294Y-100698503D01*
X157569087Y-100547457D01*
X157540273Y-100497550D01*
X157404748Y-100320930D01*
X157404746Y-100320928D01*
X157404744Y-100320926D01*
X157396593Y-100310302D01*
X157396587Y-100310295D01*
X157229704Y-100143412D01*
X157229697Y-100143406D01*
X157229694Y-100143403D01*
X157229689Y-100143399D01*
X157050123Y-100005614D01*
X157050119Y-100005612D01*
X157042454Y-99999730D01*
X157042453Y-99999729D01*
X157042450Y-99999727D01*
X156902499Y-99918926D01*
X156902192Y-99918748D01*
X156902063Y-99918673D01*
X156838065Y-99881724D01*
X156838048Y-99881715D01*
X156619997Y-99791395D01*
X156500713Y-99759433D01*
X156461141Y-99748829D01*
X156399864Y-99732410D01*
X156392117Y-99729780D01*
X156383951Y-99729245D01*
X156159889Y-99699747D01*
X156158208Y-99699500D01*
X156158017Y-99699500D01*
X156158011Y-99699500D01*
X156158004Y-99699500D01*
X155872330Y-99699500D01*
X155872325Y-99699499D01*
X155872323Y-99699500D01*
X155837389Y-99694475D01*
X155822390Y-99690070D01*
X155763644Y-99652327D01*
X155763615Y-99652293D01*
X155763614Y-99652293D01*
X155763613Y-99652291D01*
X155762457Y-99650958D01*
X155734977Y-99596083D01*
X155733332Y-99588521D01*
X155730500Y-99562168D01*
X155730500Y-99240937D01*
X155730894Y-99238460D01*
X155730557Y-99237167D01*
X155732795Y-99217193D01*
X155738924Y-99185777D01*
X155739175Y-99184489D01*
X155771332Y-99122461D01*
X155786043Y-99114012D01*
X155786438Y-99113437D01*
X155788701Y-99112485D01*
X155831920Y-99087664D01*
X155846095Y-99088355D01*
X155850847Y-99086358D01*
X155868520Y-99089450D01*
X155901439Y-99091056D01*
X155905321Y-99092400D01*
X155917705Y-99098056D01*
X155919671Y-99098400D01*
X155920863Y-99099498D01*
X155926744Y-99102184D01*
X155965519Y-99124571D01*
X155966026Y-99124906D01*
X155971549Y-99128054D01*
X155971555Y-99128058D01*
X155971803Y-99128199D01*
X155971939Y-99128278D01*
X155971943Y-99128279D01*
X155972165Y-99128406D01*
X155973833Y-99129063D01*
X156190007Y-99218606D01*
X156417986Y-99279693D01*
X156651989Y-99310500D01*
X156651996Y-99310500D01*
X156888004Y-99310500D01*
X156888011Y-99310500D01*
X157122014Y-99279693D01*
X157349993Y-99218606D01*
X157568049Y-99128284D01*
X157568441Y-99128058D01*
X157594004Y-99113299D01*
X157772450Y-99010273D01*
X157772453Y-99010270D01*
X157773379Y-99009736D01*
X157841279Y-98993263D01*
X157907306Y-99016115D01*
G37*
%TD.AperFunction*%
%TA.AperFunction,NonConductor*%
G36*
X163947126Y-94449805D02*
G01*
X163988999Y-94505737D01*
X163989001Y-94505741D01*
X163991682Y-94512929D01*
X163999500Y-94556263D01*
X163999500Y-99683645D01*
X163998509Y-99689159D01*
X163999198Y-99692300D01*
X163991749Y-99726799D01*
X163931321Y-99889580D01*
X163889536Y-99945578D01*
X163877073Y-99953813D01*
X163797556Y-99999722D01*
X163797549Y-99999726D01*
X163797541Y-99999733D01*
X163789877Y-100005614D01*
X163610309Y-100143399D01*
X163610294Y-100143413D01*
X163610286Y-100143420D01*
X163443420Y-100310286D01*
X163443413Y-100310294D01*
X163443399Y-100310309D01*
X163299736Y-100497536D01*
X163299730Y-100497545D01*
X163181719Y-100701942D01*
X163181715Y-100701950D01*
X163091395Y-100920001D01*
X163030305Y-101147992D01*
X162999503Y-101381963D01*
X162999500Y-101381987D01*
X162999500Y-101618011D01*
X162999503Y-101618035D01*
X163021638Y-101786174D01*
X163029578Y-101846481D01*
X163030052Y-101850084D01*
X163030307Y-101852017D01*
X163057209Y-101952413D01*
X163091394Y-102079993D01*
X163181715Y-102298048D01*
X163181719Y-102298056D01*
X163224281Y-102371776D01*
X163224331Y-102371862D01*
X163224555Y-102372249D01*
X163299727Y-102502450D01*
X163299729Y-102502453D01*
X163299730Y-102502454D01*
X163305595Y-102510097D01*
X163305596Y-102510099D01*
X163443399Y-102689689D01*
X163443403Y-102689694D01*
X163443406Y-102689697D01*
X163443412Y-102689704D01*
X163610295Y-102856587D01*
X163610302Y-102856593D01*
X163610305Y-102856595D01*
X163610309Y-102856599D01*
X163664782Y-102898397D01*
X163797548Y-103000272D01*
X163806603Y-103005500D01*
X163900751Y-103059856D01*
X163998505Y-103116295D01*
X164000241Y-103117374D01*
X164001663Y-103118163D01*
X164001937Y-103118276D01*
X164001943Y-103118280D01*
X164001948Y-103118282D01*
X164001951Y-103118284D01*
X164220007Y-103208606D01*
X164447986Y-103269693D01*
X164681989Y-103300500D01*
X164681996Y-103300500D01*
X166318004Y-103300500D01*
X166318010Y-103300500D01*
X166318011Y-103300500D01*
X166420175Y-103287049D01*
X166477171Y-103281828D01*
X166513119Y-103274813D01*
X166549071Y-103270080D01*
X166552007Y-103269694D01*
X166552007Y-103269693D01*
X166552014Y-103269693D01*
X166581778Y-103261717D01*
X166590102Y-103259791D01*
X167907189Y-103002794D01*
X167930937Y-103000500D01*
X171956241Y-103000500D01*
X171968786Y-103001136D01*
X172011699Y-103005500D01*
X172011700Y-103005500D01*
X173989295Y-103005500D01*
X173989300Y-103005500D01*
X174032451Y-103001387D01*
X174035903Y-103001058D01*
X174047668Y-103000499D01*
X174814210Y-103000499D01*
X174814216Y-103000499D01*
X174847997Y-102997840D01*
X174872905Y-102998389D01*
X174878086Y-102999027D01*
X174879381Y-102999300D01*
X174879801Y-102999239D01*
X174886171Y-103000025D01*
X174889320Y-103001387D01*
X174890032Y-103001537D01*
X174890001Y-103001682D01*
X174890524Y-103001908D01*
X174909775Y-103005313D01*
X174911743Y-103005961D01*
X174931723Y-103019731D01*
X174950297Y-103027767D01*
X174956253Y-103036638D01*
X174969226Y-103045579D01*
X174971195Y-103048004D01*
X174988539Y-103076475D01*
X174988794Y-103077058D01*
X174997918Y-103109063D01*
X174998232Y-103111242D01*
X174999500Y-103128928D01*
X174999500Y-103309281D01*
X174999499Y-103309283D01*
X174999500Y-103309284D01*
X174994476Y-103344218D01*
X174987064Y-103369459D01*
X174955769Y-103422203D01*
X174427399Y-103950573D01*
X174399148Y-103971722D01*
X174376060Y-103984330D01*
X174316630Y-103999500D01*
X161930942Y-103999500D01*
X161907194Y-103997205D01*
X161114557Y-103842541D01*
X161105247Y-103837714D01*
X161094789Y-103836950D01*
X161074763Y-103821909D01*
X161052529Y-103810382D01*
X161045824Y-103800175D01*
X161038921Y-103794990D01*
X161022055Y-103763987D01*
X161008250Y-103726796D01*
X161000500Y-103683645D01*
X161000500Y-99173649D01*
X161002334Y-99152403D01*
X161003748Y-99144271D01*
X161003749Y-99144267D01*
X161108807Y-97664072D01*
X161108670Y-97651356D01*
X161108672Y-97648594D01*
X161108760Y-97641221D01*
X161110500Y-97628011D01*
X161110500Y-97496696D01*
X161110509Y-97495949D01*
X161120548Y-97463219D01*
X161130185Y-97430402D01*
X161130986Y-97429190D01*
X161130999Y-97429151D01*
X161131031Y-97429123D01*
X161132085Y-97427532D01*
X161252834Y-97250638D01*
X161808583Y-96436478D01*
X161823308Y-96418717D01*
X163775214Y-94466812D01*
X163803457Y-94445668D01*
X163813391Y-94440244D01*
X163881661Y-94425391D01*
X163947126Y-94449805D01*
G37*
%TD.AperFunction*%
%TA.AperFunction,Conductor*%
%TO.N,VEE*%
G36*
X159507225Y-96819308D02*
G01*
X159510034Y-96821902D01*
X160103395Y-97584874D01*
X160105830Y-97592885D01*
X160000772Y-99073080D01*
X159996768Y-99081090D01*
X159989101Y-99083952D01*
X159008844Y-99083952D01*
X159000571Y-99080525D01*
X158997588Y-99075444D01*
X158887704Y-98687911D01*
X158701459Y-98031069D01*
X158702499Y-98022176D01*
X158702923Y-98021475D01*
X159491021Y-96822657D01*
X159498430Y-96817627D01*
X159507225Y-96819308D01*
G37*
%TD.AperFunction*%
%TD*%
%TA.AperFunction,Conductor*%
%TO.N,Net-(C3-B)*%
G36*
X187505648Y-102463763D02*
G01*
X188986384Y-103450263D01*
X188991369Y-103457702D01*
X188989634Y-103466487D01*
X188986384Y-103469737D01*
X187505648Y-104456236D01*
X187496863Y-104457971D01*
X187493929Y-104456964D01*
X186506468Y-103963234D01*
X186500600Y-103956469D01*
X186500000Y-103952769D01*
X186500000Y-102967231D01*
X186503427Y-102958958D01*
X186506468Y-102956766D01*
X187493930Y-102463034D01*
X187502861Y-102462400D01*
X187505648Y-102463763D01*
G37*
%TD.AperFunction*%
%TD*%
%TA.AperFunction,Conductor*%
%TO.N,Net-(U2A-+)*%
G36*
X138961224Y-88202704D02*
G01*
X138962211Y-88203383D01*
X139777512Y-88828613D01*
X139989947Y-88991524D01*
X139994426Y-88999278D01*
X139992111Y-89007928D01*
X139990743Y-89009423D01*
X139225666Y-89712398D01*
X139217256Y-89715473D01*
X139216100Y-89715366D01*
X137714217Y-89501431D01*
X137706510Y-89496872D01*
X137704167Y-89489848D01*
X137704167Y-88509230D01*
X137707594Y-88500957D01*
X137713141Y-88497852D01*
X138952382Y-88201296D01*
X138961224Y-88202704D01*
G37*
%TD.AperFunction*%
%TD*%
%TA.AperFunction,Conductor*%
%TO.N,Net-(Q1-B)*%
G36*
X150891900Y-96012947D02*
G01*
X150895327Y-96015320D01*
X151682711Y-96801722D01*
X151686143Y-96809993D01*
X151682721Y-96818268D01*
X151682711Y-96818278D01*
X150895327Y-97604679D01*
X150887052Y-97608101D01*
X150882951Y-97607356D01*
X150097592Y-97312847D01*
X150091049Y-97306734D01*
X150090000Y-97301892D01*
X150090000Y-96318108D01*
X150093427Y-96309835D01*
X150097592Y-96307153D01*
X150882951Y-96012643D01*
X150891900Y-96012947D01*
G37*
%TD.AperFunction*%
%TD*%
M02*
