M48
; DRILL file KiCad 10.0.3 date 2026-06-21T20:43:56
; FORMAT={-:-/ absolute / metric / decimal}
; #@! TF.CreationDate,2026-06-21T20:43:56-03:00
; #@! TF.GenerationSoftware,Kicad,Pcbnew,10.0.3
; #@! TF.FileFunction,Plated,1,2,PTH
FMAT,2
METRIC
; #@! TA.AperFunction,Plated,PTH,ComponentDrill
T1C0.800
; #@! TA.AperFunction,Plated,PTH,ComponentDrill
T2C1.000
; #@! TA.AperFunction,Plated,PTH,ComponentDrill
T3C1.190
; #@! TA.AperFunction,Plated,PTH,ComponentDrill
T4C1.500
; #@! TA.AperFunction,Plated,PTH,ComponentDrill
T5C1.520
%
G90
G05
T1
X107.92Y-87.0
X107.92Y-90.5
X116.775Y-81.5
X118.08Y-87.0
X118.08Y-90.5
X120.0Y-104.0
X121.775Y-81.5
X123.5Y-104.0
X135.408Y-84.592
X140.0Y-88.92
X140.0Y-99.08
X142.592Y-77.408
X151.69Y-89.19
X151.69Y-96.81
X152.0Y-81.0
X152.0Y-86.0
X154.23Y-89.19
X154.23Y-96.81
X155.34Y-101.5
X156.77Y-89.19
X156.77Y-96.81
X159.31Y-89.19
X159.31Y-96.81
X159.5Y-105.5
X159.5Y-110.5
X165.5Y-101.5
T2
X122.5Y-89.0
X132.5Y-89.0
X174.0Y-100.5
X176.5Y-73.5
X176.5Y-78.5
X176.5Y-86.0
X176.5Y-91.0
X179.0Y-100.5
T3
X102.8Y-85.02
X102.8Y-87.56
X102.8Y-90.1
X102.82Y-101.41
X102.82Y-103.95
X102.82Y-106.49
X185.0Y-79.96
X185.0Y-82.5
X185.0Y-85.04
T4
X116.325Y-76.55
X121.8Y-76.55
X127.275Y-76.55
X150.525Y-76.71
X156.0Y-76.71
X161.475Y-76.71
T5
X189.0Y-103.46
X189.0Y-108.54
M30
